<?xml version="1.0" standalone="no"?>
<!DOCTYPE svg PUBLIC "-//W3C//DTD SVG 1.1//EN" "http://www.w3.org/Graphics/SVG/1.1/DTD/svg11.dtd" >
<svg xmlns="http://www.w3.org/2000/svg">
<metadata></metadata>
<defs>
<font id="apercumedium_italic" horiz-adv-x="1216" >
<font-face units-per-em="2048" ascent="1638" descent="-410" />
<missing-glyph horiz-adv-x="464" />
<glyph unicode="&#xfb01;" horiz-adv-x="1097" d="M45 0l164 844h-133l37 188h133l6 37q64 381 491 381q188 0 291 -59l-88 -181q-101 52 -215 52q-234 0 -264 -193l-6 -37h551l-201 -1032h-215l164 844h-336l-164 -844h-215z" />
<glyph unicode="&#xfb02;" horiz-adv-x="1257" d="M45 0l164 844h-133l37 188h133l10 53q35 180 144 272.5t274 92.5h520l-281 -1450h-215l244 1262h-299q-140 0 -170 -162l-12 -68h227l-37 -188h-227l-164 -844h-215z" />
<glyph horiz-adv-x="0" />
<glyph horiz-adv-x="0" />
<glyph horiz-adv-x="682" />
<glyph unicode="&#xd;" horiz-adv-x="464" />
<glyph unicode=" "  horiz-adv-x="464" />
<glyph unicode="&#x09;" horiz-adv-x="464" />
<glyph unicode="&#xa0;" horiz-adv-x="464" />
<glyph unicode="!" horiz-adv-x="737" d="M119 145q0 66 43 109q44 44 112 44t111 -44q44 -43 44 -109t-44 -110q-43 -43 -111 -43t-112 43q-43 44 -43 110zM244 453l135 981h291l-244 -981h-182z" />
<glyph unicode="&#x22;" horiz-adv-x="956" d="M254 961l35 489h266l-158 -489h-143zM604 961l35 489h266l-157 -489h-144z" />
<glyph unicode="#" horiz-adv-x="1435" d="M76 412l20 168h271l88 274h-242l20 168h277l135 412h178l-135 -412h256l135 412h178l-135 -412h238l-21 -168h-272l-88 -274h244l-21 -168h-278l-133 -412h-179l133 412h-256l-133 -412h-178l133 412h-235zM545 580h256l88 274h-256z" />
<glyph unicode="$" horiz-adv-x="1091" d="M33 383l194 109q11 -138 78.5 -216.5t179.5 -78.5q108 0 175 60t67 167q0 81 -50.5 136t-164.5 112q-281 139 -281 377q0 169 99.5 273.5t269.5 123.5l35 172h205l-37 -191q80 -30 139.5 -92.5t83.5 -136.5l-199 -104q-53 151 -186 151q-77 0 -127.5 -48.5t-50.5 -131.5 q0 -86 74 -145q70 -50 163 -95q93 -44 148 -90.5t84 -115.5t29 -166q0 -226 -142 -347q-121 -103 -297 -118l-33 -172h-204l34 184q-126 37 -205.5 142.5t-80.5 240.5z" />
<glyph unicode="%" horiz-adv-x="1812" d="M123 1073q0 168 113 275q108 102 282 102q125 0 201 -82q80 -80 80 -197q0 -158 -113 -274q-94 -102 -283 -102q-123 0 -202 79q-78 84 -78 199zM127 31l1389 1474l104 -100l-1389 -1475zM305 1094q0 -58 34 -93.5t93 -35.5q80 0 131 51q53 53 53 135q0 58 -34 93.5 t-93 35.5q-80 0 -131 -51q-53 -53 -53 -135zM952 262q0 168 113 275q108 102 283 102q124 0 200 -82q80 -80 80 -197q0 -168 -112 -274q-108 -102 -283 -102q-124 0 -203 79q-78 84 -78 199zM1135 283q0 -58 34 -93.5t93 -35.5q80 0 131 51q53 53 53 135q0 58 -34 93.5 t-93 35.5q-80 0 -131 -51q-53 -53 -53 -135z" />
<glyph unicode="&#x26;" horiz-adv-x="1296" d="M61 375q0 312 371 493q-70 125 -70 226q0 161 109 264q103 92 272 92q133 0 212 -74.5t79 -193.5q0 -125 -85.5 -216.5t-256.5 -170.5l195 -320q66 97 135 244l117 -168q-76 -154 -154 -248l180 -303h-241l-78 137q-150 -153 -400 -153q-169 0 -276 104 q-109 106 -109 287zM272 393q0 -97 56 -155t145 -58q151 0 275 133l-234 396q-242 -120 -242 -316zM559 1087q0 -66 43 -145q54 23 105 49q48 27 86 71t38 89q0 111 -114 111q-70 0 -114 -47.5t-44 -127.5z" />
<glyph unicode="'" horiz-adv-x="602" d="M254 961l35 489h262l-158 -489h-139z" />
<glyph unicode="(" horiz-adv-x="600" d="M94 434q0 317 108 604.5t308 497.5h211q-416 -509 -416 -1114q0 -315 98 -524h-210q-99 237 -99 536z" />
<glyph unicode=")" horiz-adv-x="600" d="M-133 -102q416 509 416 1114q0 310 -97 524h211q97 -240 97 -537q0 -317 -108 -604t-308 -497h-211z" />
<glyph unicode="*" horiz-adv-x="1007" d="M168 1102l80 174l231 -80l51 254h181l-52 -254l261 80l34 -174l-274 -80l111 -207l-162 -104l-113 204l-188 -204l-138 104l203 207z" />
<glyph unicode="+" horiz-adv-x="1185" d="M92 555l37 188h360l70 361h191l-70 -361h362l-36 -188h-363l-72 -362h-190l72 362h-361z" />
<glyph unicode="," horiz-adv-x="731" d="M-12 -270l243 532h293l-379 -532h-157z" />
<glyph unicode="-" horiz-adv-x="999" d="M104 555l35 188h723l-35 -188h-723z" />
<glyph unicode="." horiz-adv-x="595" d="M47 141q0 64 43 107q44 44 108 44t107 -44q44 -43 44 -107t-44 -108q-43 -43 -107 -43t-108 43q-43 44 -43 108z" />
<glyph unicode="/" horiz-adv-x="1075" d="M-184 -102l1200 1638h231l-1202 -1638h-229z" />
<glyph unicode="0" d="M68 502q0 271 94 506q40 96 93 173.5t124 139t165 95.5t204 34q192 0 296.5 -133.5t104.5 -384.5q0 -279 -96 -506q-38 -96 -90.5 -173.5t-123.5 -139t-165.5 -95.5t-204.5 -34q-192 0 -296.5 133.5t-104.5 384.5zM287 528q0 -180 53 -264t168 -84q106 0 191.5 71.5 t134.5 190.5q96 224 96 463q0 180 -53 264t-168 84q-106 0 -191.5 -71t-136.5 -191q-94 -230 -94 -463z" />
<glyph unicode="1" horiz-adv-x="829" d="M143 967l45 229l445 238h90l-281 -1434h-219l219 1126z" />
<glyph unicode="2" horiz-adv-x="1124" d="M-23 0l17 90l663 696q87 90 121 148q35 59 35 147q0 80 -42.5 126t-117.5 46q-166 0 -231 -221l-213 39q45 176 167 277.5t302 101.5q170 0 265 -91t95 -251q0 -219 -180 -408l-475 -503h510l-37 -197h-879z" />
<glyph unicode="3" horiz-adv-x="1128" d="M14 395l215 41q11 -117 71.5 -186.5t158.5 -69.5q131 0 201.5 84.5t70.5 227.5q0 115 -60 179t-159 64q-70 0 -129 -26l-96 120l368 408h-450l37 197h805l-15 -74l-440 -475q27 6 57 6q136 0 218.5 -99t82.5 -276q0 -231 -102 -360q-138 -172 -416 -172q-185 0 -297 118 q-112 121 -121 293z" />
<glyph unicode="4" horiz-adv-x="1171" d="M12 287l19 98l788 1049h244l-186 -951h161l-37 -196h-161l-58 -287h-219l58 287h-609zM336 483h321l117 600z" />
<glyph unicode="5" horiz-adv-x="1120" d="M35 340q0 29 2 37l209 37v-23q0 -98 58 -154.5t155 -56.5q126 0 206 97t80 255q0 106 -53.5 164t-152.5 58q-164 0 -303 -148l-136 29l226 799h727l-37 -197h-537l-112 -358q89 71 221 71q183 0 280 -100.5t97 -300.5q0 -253 -148 -410q-143 -155 -397 -155 q-169 0 -277 102t-108 254z" />
<glyph unicode="6" horiz-adv-x="1150" d="M59 371q0 178 134 356l550 723h256l-419 -537q25 5 38 5q171 0 274 -107.5t103 -290.5q0 -243 -143 -389q-144 -147 -381 -147q-187 0 -299 106q-113 107 -113 281zM279 401q0 -100 54 -160.5t142 -60.5q133 0 215 88q86 89 86 226q0 112 -52.5 169.5t-143.5 57.5 q-130 0 -215 -94q-86 -92 -86 -226z" />
<glyph unicode="7" horiz-adv-x="1026" d="M43 0l737 1237h-565l39 197h840l-21 -99l-794 -1335h-236z" />
<glyph unicode="8" horiz-adv-x="1132" d="M45 367q0 132 77 240.5t208 166.5q-107 94 -107 258q0 191 152 316q126 102 332 102q162 0 253 -92.5t91 -263.5q0 -112 -70 -203q-72 -93 -154 -123q65 -32 108.5 -111.5t43.5 -183.5q0 -210 -119 -338q-139 -151 -414 -151q-184 0 -292.5 102t-108.5 281zM264 389 q0 -92 56.5 -150.5t144.5 -58.5q127 0 209 70q86 74 86 207q0 95 -54.5 146.5t-148.5 51.5q-122 0 -207 -73q-86 -71 -86 -193zM434 1036q0 -81 44.5 -129.5t117.5 -48.5q106 0 175 66t69 166q0 80 -46 126t-120 46q-98 0 -170 -66q-70 -64 -70 -160z" />
<glyph unicode="9" horiz-adv-x="1150" d="M158 -16l420 536q-20 -4 -39 -4q-171 0 -274 107t-103 290q0 244 143 390q144 147 381 147q184 0 299 -109q113 -107 113 -278q0 -179 -133 -356l-551 -723h-256zM381 940q0 -112 53 -169.5t144 -57.5q129 0 215 92q86 95 86 227q0 99 -54.5 160t-142.5 61 q-130 0 -217 -90q-84 -90 -84 -223z" />
<glyph unicode=":" horiz-adv-x="632" d="M74 141q0 64 43 107q44 44 108 44t107 -44q44 -43 44 -107t-44 -108q-43 -43 -107 -43t-108 43q-43 44 -43 108zM203 802q0 64 43 107q44 44 108 44t107 -44q44 -43 44 -107t-44 -108q-43 -43 -107 -43t-108 43q-43 44 -43 108z" />
<glyph unicode=";" horiz-adv-x="632" d="M-133 -270l244 532h292l-378 -532h-158zM203 802q0 64 43 107q44 44 108 44t107 -44q44 -43 44 -107t-44 -108q-43 -43 -107 -43t-108 43q-43 44 -43 108z" />
<glyph unicode="&#x3c;" horiz-adv-x="952" d="M72 528v213l745 394v-228l-518 -272l518 -273v-227z" />
<glyph unicode="=" horiz-adv-x="1210" d="M162 371v188h850v-188h-850zM162 711v188h850v-188h-850z" />
<glyph unicode="&#x3e;" horiz-adv-x="952" d="M135 135v227l518 273l-518 272v228l746 -394v-213z" />
<glyph unicode="?" horiz-adv-x="925" d="M145 1141q52 144 166.5 226.5t270.5 82.5q152 0 235.5 -71.5t83.5 -194.5q0 -197 -211 -291l-239 -109q-53 -22 -80 -47.5t-31 -74.5q0 -34 21 -55t53 -21q43 0 73 28.5t62 92.5l162 -54q-55 -128 -128.5 -178.5t-197.5 -50.5q-104 0 -169.5 61.5t-65.5 165.5 q0 185 229 279l194 82q63 27 90 61.5t27 93.5q0 51 -33.5 81t-89.5 30q-153 0 -229 -186zM170 145q0 66 43 109q44 44 112 44t111 -44q44 -43 44 -109t-44 -110q-43 -43 -111 -43t-112 43q-43 44 -43 110z" />
<glyph unicode="@" horiz-adv-x="1863" d="M117 541q0 431 258 680q261 249 676 249q303 0 501 -180q201 -180 201 -493q0 -265 -106 -418q-106 -158 -330 -158q-69 0 -129.5 38.5t-83.5 98.5q-107 -137 -289 -137q-154 0 -240 93t-86 255q0 221 132 353q132 135 348 135q83 0 148.5 -28t90.5 -75l35 88h156 l-109 -503q-12 -50 -12 -72q0 -57 80 -57q190 0 190 352q0 252 -139 386t-393 134q-297 0 -492 -195q-192 -192 -192 -524q0 -269 160 -420q159 -147 403 -147q143 0 272 29q109 25 287 108l59 -184q-198 -84 -317 -111q-133 -31 -315 -31q-332 0 -549 199 q-215 200 -215 535zM692 586q0 -81 42.5 -128.5t119.5 -47.5q117 0 193 82q75 81 75 202q0 85 -43.5 129.5t-120.5 44.5q-110 0 -188 -84t-78 -198z" />
<glyph unicode="A" d="M-125 0l772 1434h219l219 -1434h-233l-47 356h-508l-186 -356h-236zM408 569h372l-75 580z" />
<glyph unicode="B" horiz-adv-x="1263" d="M61 0l281 1434h473q169 0 271 -87t102 -239q0 -228 -209 -330q72 -31 116 -106t44 -183q0 -242 -142 -366q-138 -123 -362 -123h-574zM332 213h276q142 0 221.5 64.5t79.5 189.5q0 188 -209 188h-282zM459 868h262q103 0 169 54t66 151q0 148 -168 148h-262z" />
<glyph unicode="C" horiz-adv-x="1382" d="M63 567q0 169 57 327t161 282q105 127 264 200.5t344 73.5q212 0 337.5 -120.5t143.5 -323.5l-223 -54q-23 149 -94 217t-205 68q-165 0 -293 -98q-126 -96 -192 -241.5t-66 -309.5q0 -194 89.5 -292.5t258.5 -98.5q131 0 223 66.5t179 215.5l202 -61 q-99 -222 -257.5 -328t-387.5 -106q-233 0 -387 157t-154 426z" />
<glyph unicode="D" horiz-adv-x="1376" d="M61 0l281 1434h383q258 0 414 -156q157 -154 157 -453q0 -356 -227 -592q-227 -233 -582 -233h-426zM330 213h141q265 0 428 166q164 170 164 426q0 416 -401 416h-138z" />
<glyph unicode="E" horiz-adv-x="1161" d="M61 0l281 1434h838l-43 -213h-611l-67 -353h489l-41 -213h-489l-86 -442h631l-43 -213h-859z" />
<glyph unicode="F" horiz-adv-x="1134" d="M61 0l279 1434h850l-43 -213h-623l-71 -371h497l-41 -213h-497l-125 -637h-226z" />
<glyph unicode="G" horiz-adv-x="1433" d="M63 557q0 248 95 449q96 205 283 324.5t429 119.5q218 0 347 -123q130 -121 139 -315l-219 -64q-29 154 -102.5 221.5t-205.5 67.5q-245 0 -389 -188q-143 -186 -143 -457q0 -185 92 -290t256 -105q144 0 249.5 87.5t156.5 239.5h-281l39 199h504l-142 -723h-190l12 178 q-144 -194 -401 -194q-227 0 -377 153q-152 155 -152 420z" />
<glyph unicode="H" horiz-adv-x="1425" d="M61 0l281 1434h227l-110 -562h567l111 562h227l-281 -1434h-227l129 659h-567l-129 -659h-228z" />
<glyph unicode="I" horiz-adv-x="630" d="M61 0l281 1434h227l-280 -1434h-228z" />
<glyph unicode="J" horiz-adv-x="1124" d="M-4 379l225 45q0 -106 44 -166.5t128 -60.5q209 0 262 258l191 979h227l-205 -1033q-46 -228 -186 -329q-119 -88 -317 -88q-168 0 -269 116q-100 115 -100 279z" />
<glyph unicode="K" horiz-adv-x="1257" d="M61 0l281 1434h227l-106 -543l569 543h293l-688 -646l469 -788h-279l-401 702l-137 -702h-228z" />
<glyph unicode="L" horiz-adv-x="1046" d="M61 0l279 1434h227l-237 -1221h606l-43 -213h-832z" />
<glyph unicode="M" horiz-adv-x="1622" d="M61 0l281 1434h268l158 -955l504 955h289l-281 -1434h-227l180 934l-440 -803h-172l-144 836l-188 -967h-228z" />
<glyph unicode="N" horiz-adv-x="1449" d="M61 0l281 1434h244l375 -1033l200 1033h228l-281 -1434h-244l-375 1028l-200 -1028h-228z" />
<glyph unicode="O" horiz-adv-x="1488" d="M63 567q0 443 291 697q210 186 525 186q222 0 376 -154q154 -151 154 -430q0 -442 -291 -696q-210 -186 -524 -186q-223 0 -377 151q-154 154 -154 432zM299 588q0 -187 89.5 -289t246.5 -102q231 0 381 182q158 196 158 467q0 187 -89.5 289t-246.5 102 q-231 0 -381 -182q-158 -196 -158 -467z" />
<glyph unicode="P" horiz-adv-x="1210" d="M61 0l281 1434h477q187 0 292.5 -94t105.5 -263q0 -236 -148 -363.5t-405 -127.5h-261l-114 -586h-228zM444 799h277q113 0 187.5 69.5t74.5 178.5q0 174 -184 174h-273z" />
<glyph unicode="Q" horiz-adv-x="1488" d="M61 567q0 443 291 697q210 186 525 186q222 0 376 -154q154 -151 154 -430q0 -354 -197 -598l109 -133l-180 -151l-103 125q-180 -125 -444 -125q-223 0 -377 151q-154 154 -154 432zM297 588q0 -187 89.5 -289t246.5 -102q149 0 268 79l-141 173l182 151l121 -151 q108 176 108 397q0 187 -89 289t-246 102q-231 0 -381 -182q-158 -196 -158 -467z" />
<glyph unicode="R" horiz-adv-x="1243" d="M61 0l281 1434h481q183 0 281 -87.5t98 -242.5q0 -185 -106 -297q-108 -114 -260 -148l282 -659h-258l-274 643h-170l-127 -643h-228zM457 856h256q111 0 182.5 57.5t71.5 155.5q0 72 -44 112t-124 40h-273z" />
<glyph unicode="S" horiz-adv-x="1091" d="M33 383l194 109q11 -138 78.5 -216.5t179.5 -78.5q108 0 175 60t67 167q0 81 -50.5 136t-164.5 112q-281 139 -281 377q0 188 122 294.5t323 106.5q127 0 221 -76q96 -77 129 -176l-199 -104q-53 151 -186 151q-77 0 -127.5 -48.5t-50.5 -131.5q0 -86 74 -145 q70 -50 163 -95q93 -44 148 -90.5t84 -115.5t29 -166q0 -226 -142 -347q-143 -122 -379 -122q-168 0 -286 112q-118 115 -121 287z" />
<glyph unicode="T" horiz-adv-x="1050" d="M115 1221l43 213h1009l-43 -213h-391l-237 -1221h-228l238 1221h-391z" />
<glyph unicode="U" horiz-adv-x="1382" d="M131 391q0 38 19 146l174 897h227l-180 -928q-11 -71 -11 -96q0 -213 232 -213q134 0 221.5 79t116.5 230l180 928h227l-178 -918q-56 -286 -203 -409t-405 -123q-198 0 -309 104.5t-111 302.5z" />
<glyph unicode="V" horiz-adv-x="1179" d="M117 1434h237l138 -1119l579 1119h246l-762 -1434h-229z" />
<glyph unicode="W" horiz-adv-x="1839" d="M172 1434h238l41 -1102l446 950h211l94 -950l481 1102h238l-655 -1434h-232l-100 891l-432 -891h-232z" />
<glyph unicode="X" horiz-adv-x="1146" d="M-117 0l598 782l-245 652h241l166 -449l336 449h262l-514 -670l289 -764h-244l-211 559l-416 -559h-262z" />
<glyph unicode="Y" horiz-adv-x="1024" d="M106 1434h242l166 -596l399 596h252l-575 -820l-121 -614h-227l120 614z" />
<glyph unicode="Z" horiz-adv-x="1161" d="M-51 0l22 111l850 1110h-614l43 213h926l-23 -111l-844 -1110h664l-43 -213h-981z" />
<glyph unicode="[" horiz-adv-x="688" d="M41 -102l315 1638h428l-36 -193h-222l-243 -1253h221l-37 -192h-426z" />
<glyph unicode="\" horiz-adv-x="980" d="M98 1536h215l576 -1638h-215z" />
<glyph unicode="]" horiz-adv-x="688" d="M-41 -102l35 192h221l244 1253h-221l36 193h428l-317 -1638h-426z" />
<glyph unicode="^" horiz-adv-x="1210" d="M137 846l391 588h181l391 -588h-211l-271 399l-270 -399h-211z" />
<glyph unicode="_" horiz-adv-x="1011" d="M-96 -188l35 188h911l-35 -188h-911z" />
<glyph unicode="`" horiz-adv-x="440" d="M106 1450h293l84 -303h-168z" />
<glyph unicode="a" horiz-adv-x="1220" d="M51 401q0 282 154 465q157 183 426 183q85 0 152 -35.5t98 -95.5l20 114h215l-198 -1032h-216l23 119q-114 -135 -299 -135q-174 0 -276 120q-99 120 -99 297zM283 453q0 -133 56 -207t153 -74q154 0 243 127q90 131 90 303q0 258 -215 258q-151 0 -239 -125 q-88 -122 -88 -282z" />
<glyph unicode="b" horiz-adv-x="1236" d="M47 0l283 1450h215l-103 -532q116 131 295 131q170 0 273.5 -116.5t103.5 -322.5q0 -264 -147 -446q-146 -180 -414 -180q-85 0 -162 40t-104 95l-25 -119h-215zM340 426q0 -111 58.5 -182.5t144.5 -71.5q153 0 245 129q95 133 95 295q0 129 -54 196.5t-153 67.5 q-148 0 -242 -129q-94 -125 -94 -305z" />
<glyph unicode="c" horiz-adv-x="1120" d="M51 424q0 166 70 303q71 145 212 233.5t320 88.5q157 0 255.5 -75t129.5 -212l-200 -80q-55 178 -222 178q-148 0 -243 -127q-94 -125 -94 -297q0 -127 53 -195.5t151 -68.5q167 0 287 188l176 -79q-102 -161 -217.5 -229t-282.5 -68q-182 0 -288.5 119t-106.5 321z" />
<glyph unicode="d" horiz-adv-x="1263" d="M51 395q0 281 154 467q153 187 422 187q185 0 264 -125l100 526h215l-282 -1450h-215l24 119q-49 -59 -131.5 -97t-175.5 -38q-176 0 -275.5 111.5t-99.5 299.5zM283 434q0 -117 57.5 -189.5t151.5 -72.5q110 0 190 74q149 134 149 356q0 124 -54.5 191t-151.5 67 q-156 0 -250 -131q-92 -133 -92 -295z" />
<glyph unicode="e" horiz-adv-x="1148" d="M47 424q0 248 168 434q170 191 434 191q186 0 290.5 -108t104.5 -288q0 -39 -10 -104l-18 -92h-744q-6 -34 -6 -68q0 -100 57 -158.5t164 -58.5q176 0 308 188l163 -86q-105 -156 -222.5 -223t-293.5 -67q-186 0 -290 122q-105 123 -105 318zM311 635h514 q0 104 -54 164.5t-159 60.5q-101 0 -182.5 -62t-118.5 -163z" />
<glyph unicode="f" horiz-adv-x="706" d="M45 0l164 844h-133l37 188h133l14 76q65 342 399 342q98 0 168 -37l-77 -180q-56 29 -107 29q-141 0 -168 -150l-14 -80h225l-37 -188h-225l-164 -844h-215z" />
<glyph unicode="g" horiz-adv-x="1069" d="M-53 -141q0 157 131 258q-41 59 -41 133q0 135 178 237q-43 67 -43 152q0 176 117 293t307 117q127 0 201 -45l200 102l70 -150l-162 -79q21 -52 21 -119q0 -188 -117.5 -295t-312.5 -107q-87 0 -174 35q-74 -41 -74 -100q0 -74 92 -74h227q139 0 216 -66.5t77 -197.5 q0 -197 -143 -291q-146 -96 -371 -96q-184 0 -291.5 79t-107.5 214zM158 -96q0 -150 209 -150q268 0 268 166q0 117 -148 117h-165q-56 0 -103 6q-61 -46 -61 -139zM383 678q0 -67 35.5 -105t97.5 -38q85 0 142 55t57 139q0 67 -35.5 103t-97.5 36q-87 0 -143 -53t-56 -137z " />
<glyph unicode="h" horiz-adv-x="1204" d="M49 0l281 1450h215l-115 -594q156 193 373 193q117 0 186.5 -62t69.5 -168q0 -30 -10 -92l-142 -727h-215l129 672q8 36 8 73q0 115 -124 115q-104 0 -213 -115q-106 -112 -144 -309l-84 -436h-215z" />
<glyph unicode="i" horiz-adv-x="587" d="M49 0l201 1032h215l-201 -1032h-215zM268 1323q0 61 43 104q43 44 104.5 44t104.5 -44q43 -43 43 -104t-43 -104q-41 -41 -104.5 -41t-106.5 41q-41 43 -41 104z" />
<glyph unicode="j" horiz-adv-x="587" d="M-184 -227q123 30 184 85.5t84 168.5l195 1005h215l-213 -1098q-31 -166 -142 -253.5t-305 -114.5zM297 1323q0 61 43 104q43 44 104.5 44t104.5 -44q43 -43 43 -104t-43 -104q-41 -41 -104.5 -41t-106.5 41q-41 43 -41 104z" />
<glyph unicode="k" horiz-adv-x="1064" d="M49 0l281 1450h215l-156 -819l397 401h281l-492 -479l328 -553h-264l-279 494l-96 -494h-215z" />
<glyph unicode="l" horiz-adv-x="624" d="M66 0l280 1450h215l-280 -1450h-215z" />
<glyph unicode="m" horiz-adv-x="1748" d="M49 0l201 1032h215l-33 -166q57 85 145.5 134t186.5 49q210 0 244 -199q138 199 350 199q128 0 187 -58t59 -176q0 -33 -9 -76l-143 -739h-215l133 692q6 37 6 49q0 119 -125 119q-100 0 -186 -121t-127 -325l-80 -414h-215l133 692q6 37 6 49q0 119 -112 119 q-93 0 -187 -110q-93 -113 -127 -283l-92 -467h-215z" />
<glyph unicode="n" horiz-adv-x="1185" d="M49 0l201 1032h215l-31 -164q138 181 352 181q118 0 186 -62.5t68 -167.5q0 -45 -12 -104l-139 -715h-215l129 672q8 36 8 65q0 123 -119 123q-104 0 -205 -110q-97 -106 -133 -281l-90 -469h-215z" />
<glyph unicode="o" horiz-adv-x="1204" d="M51 428q0 284 162 446q172 175 442 175q192 0 310 -127q116 -125 116 -318q0 -285 -161 -446q-171 -174 -443 -174q-191 0 -309 127q-117 126 -117 317zM281 449q0 -128 61 -202.5t164 -74.5q150 0 252 129q94 119 94 283q0 128 -61 202t-164 74q-150 0 -252 -129 q-94 -119 -94 -282z" />
<glyph unicode="p" horiz-adv-x="1249" d="M-29 -418l283 1450h215l-25 -119q49 60 132 98t176 38q176 0 275 -111.5t99 -300.5q0 -281 -153 -469q-153 -184 -422 -184q-185 0 -264 125l-101 -527h-215zM346 430q0 -124 54.5 -191t152.5 -67q157 0 248 131q94 131 94 295q0 117 -57.5 189.5t-151.5 72.5 q-109 0 -192 -74q-148 -137 -148 -356z" />
<glyph unicode="q" horiz-adv-x="1214" d="M51 422q0 263 148 446q147 181 413 181q85 0 162.5 -40.5t104.5 -95.5l24 119h215l-282 -1450h-215l102 533q-116 -131 -295 -131q-170 0 -273.5 116t-103.5 322zM283 436q0 -129 53.5 -196.5t152.5 -67.5q147 0 242 127q94 128 94 307q0 111 -58 182.5t-144 71.5 q-154 0 -248 -131q-92 -130 -92 -293z" />
<glyph unicode="r" horiz-adv-x="907" d="M49 0l201 1032h215l-33 -166q136 183 340 183q66 0 127 -25l-76 -195q-54 31 -114 31q-108 0 -215 -110q-105 -108 -146 -314l-84 -436h-215z" />
<glyph unicode="s" horiz-adv-x="937" d="M23 279l182 81q20 -85 73.5 -136.5t135.5 -51.5q75 0 117 35t42 100q0 47 -44 84t-138 78q-207 89 -207 268q0 147 95 229.5t260 82.5q103 0 183.5 -46t117.5 -126l-158 -119q-68 102 -166 102q-56 0 -88.5 -28t-32.5 -78q0 -43 33 -71.5t121 -68.5q60 -28 92.5 -48 t67.5 -54q75 -63 75 -184q0 -168 -100 -256t-276 -88q-166 0 -267 88q-103 89 -118 207z" />
<glyph unicode="t" horiz-adv-x="743" d="M51 844l35 188h174l53 285l240 133l-82 -418h258l-35 -188h-258l-98 -504q-6 -35 -6 -64q0 -104 110 -104q45 0 105 29l18 -181q-79 -36 -194 -36q-121 0 -187.5 68.5t-66.5 193.5q0 51 10 106l98 492h-174z" />
<glyph unicode="u" horiz-adv-x="1191" d="M96 213q0 41 13 104l139 715h215l-129 -672q-8 -36 -8 -65q0 -123 118 -123q103 0 205 111q98 106 133 280l90 469h215l-200 -1032h-215l30 164q-137 -180 -352 -180q-118 0 -186 62t-68 167z" />
<glyph unicode="v" horiz-adv-x="913" d="M51 1032h215l80 -758l371 758h227l-532 -1032h-211z" />
<glyph unicode="w" horiz-adv-x="1509" d="M104 1032h226l43 -745l327 745h211l33 -753l332 753h229l-514 -1032h-203l-36 725l-326 -725h-201z" />
<glyph unicode="x" horiz-adv-x="974" d="M-80 0l447 559l-205 473h229l119 -307l231 307h248l-397 -493l223 -539h-225l-139 356l-281 -356h-250z" />
<glyph unicode="y" horiz-adv-x="980" d="M-14 -418l254 477l-170 973h227l109 -694l360 694h235l-800 -1450h-215z" />
<glyph unicode="z" horiz-adv-x="946" d="M-23 0l15 86l569 758h-414l35 188h723l-16 -86l-563 -758h452l-35 -188h-766z" />
<glyph unicode="{" horiz-adv-x="679" d="M61 621l39 192q102 0 141 31.5t58 124.5l74 370q19 91 78.5 144t150.5 53h148l-37 -193h-51q-45 0 -68.5 -19.5t-30.5 -66.5l-69 -356q-18 -92 -62 -131.5t-123 -52.5q117 -21 117 -135q0 -37 -8 -68l-66 -338q-4 -32 -4 -33q0 -29 16 -41t54 -12h51l-37 -192h-149 q-74 0 -114 42t-40 115q0 3 4 39l70 371q8 36 8 65q0 51 -32 71t-118 20z" />
<glyph unicode="|" horiz-adv-x="587" d="M195 -102v1638h204v-1638h-204z" />
<glyph unicode="}" horiz-adv-x="679" d="M-74 -102l37 192h51q45 0 68.5 19.5t30.5 66.5l69 356q18 92 62 132t123 53q-117 21 -117 135q0 37 8 68l66 337q4 32 4 33q0 29 -16 41t-54 12h-51l37 193h149q74 0 114 -42.5t40 -115.5q0 -3 -4 -39l-70 -370q-8 -36 -8 -66q0 -51 31.5 -70.5t117.5 -19.5l-39 -192 q-102 0 -140.5 -31.5t-57.5 -124.5l-74 -371q-19 -90 -78.5 -143t-150.5 -53h-148z" />
<glyph unicode="~" horiz-adv-x="1318" d="M121 649q136 207 332 207q89 0 204 -53t181 -53q98 0 202 96l95 -123q-136 -207 -332 -207q-90 0 -205 53q-117 54 -180 54q-98 0 -203 -97z" />
<glyph unicode="&#xa1;" horiz-adv-x="550" d="M-238 -418l244 981h182l-135 -981h-291zM2 870q0 66 43 109q44 44 112 44t111 -44q44 -43 44 -109t-44 -110q-43 -43 -111 -43t-112 43q-43 44 -43 110z" />
<glyph unicode="&#xa2;" horiz-adv-x="1142" d="M113 629q0 224 133 401q132 176 360 213l58 295h204l-57 -293q237 -44 289 -278l-201 -80q-55 178 -221 178q-149 0 -244 -127q-94 -125 -94 -297q0 -127 53.5 -195.5t151.5 -68.5q166 0 286 188l177 -80q-86 -136 -180.5 -204.5t-219.5 -85.5l-57 -295h-205l57 299 q-137 32 -213.5 146t-76.5 284z" />
<glyph unicode="&#xa3;" horiz-adv-x="1150" d="M-31 125q160 126 235 233.5t75 245.5q0 27 -3 39h-163l41 205h92q-4 78 -4 100q0 238 131.5 370t361.5 132q149 0 244.5 -73.5t124.5 -209.5l-195 -84q-43 162 -200 162q-126 0 -191 -89.5t-65 -235.5q0 -1 0.5 -10t1.5 -26t2 -36h342l-39 -205h-283q0 -147 -53.5 -250 t-177.5 -190q99 57 182 57q53 0 117 -37q65 -35 104 -35q53 0 94 27q38 25 111 111l127 -125q-91 -122 -171.5 -169.5t-191.5 -47.5q-90 0 -174 34q-81 37 -127 37q-122 0 -249 -71z" />
<glyph unicode="&#xa4;" horiz-adv-x="1177" d="M31 270l180 138q-61 100 -61 221t61 221l-180 137l170 170l137 -178q92 63 221 63t221 -63l138 178l169 -170l-180 -137q61 -100 61 -221t-61 -221l180 -138l-169 -170l-138 179q-94 -64 -221 -64t-221 64l-137 -179zM360 629q0 -96 54 -156q56 -59 145 -59q90 0 143 59 q56 59 56 156q0 96 -56 155q-54 60 -143 60q-88 0 -145 -60q-54 -60 -54 -155z" />
<glyph unicode="&#xa5;" horiz-adv-x="1169" d="M106 289l37 188h308l26 137h-307l37 189h215l-186 631h243l148 -594l397 594h246l-439 -631h216l-37 -189h-308l-26 -137h307l-37 -188h-307l-57 -289h-226l58 289h-308z" />
<glyph unicode="&#xa6;" horiz-adv-x="526" d="M195 -102v714h204v-714h-204zM195 821v715h204v-715h-204z" />
<glyph unicode="&#xa7;" horiz-adv-x="1196" d="M45 -119l201 62q40 -172 190 -172q79 0 129.5 48.5t50.5 141.5q-6 63 -24 99t-64 69q-45 31 -55 37q-17 12 -70 41q-18 11 -42.5 24.5t-26.5 14.5q-191 111 -191 286q0 112 52.5 184t158.5 132q-51 96 -51 201q0 184 114 292.5t302 108.5q156 0 254 -86t117 -229 l-201 -62q-40 172 -191 172q-79 0 -129.5 -48.5t-50.5 -141.5q5 -60 23.5 -97.5t62.5 -70.5l55 -39q3 -2 27.5 -15t42.5 -24l72 -39q190 -111 190 -287q0 -114 -51.5 -184t-159.5 -131q51 -96 51 -201q0 -185 -113.5 -293t-301.5 -108q-156 0 -254 86t-117 229zM340 555 q0 -67 70 -125q63 -45 69 -49l90 -49q44 -22 88 -49q33 14 52 25t40 31t32 50t14 72q0 68 -72 125q-44 35 -68 47q-51 31 -90 51q-44 22 -88 49q-33 -14 -52 -25t-40 -31t-31.5 -50t-13.5 -72z" />
<glyph unicode="&#xa8;" horiz-adv-x="671" d="M113 1333q0 55 37 92t92 37t92 -37t37 -92t-37 -92t-92 -37t-92 37t-37 92zM491 1333q0 55 37 92t92.5 37t92.5 -37t37 -92t-37 -92t-92.5 -37t-92.5 37t-37 92z" />
<glyph unicode="&#xa9;" horiz-adv-x="1843" d="M137 717q0 340 223 569q224 230 562 230q335 0 559 -230q225 -231 225 -569q0 -339 -225 -570q-223 -229 -559 -229q-339 0 -562 229t-223 570zM334 717q0 -260 164 -436q163 -175 424 -175t424 175t163 436t-163 436q-162 174 -424 174t-424 -174q-164 -176 -164 -436z M514 717q0 212 119 325q120 117 289 117q142 0 243 -74.5t121 -201.5l-174 -39q-46 143 -190 143q-98 0 -156.5 -71.5t-58.5 -198.5t58.5 -199t156.5 -72q144 0 190 144l174 -39q-20 -127 -121 -202t-243 -75q-168 0 -289 115q-119 116 -119 328z" />
<glyph unicode="&#xaa;" horiz-adv-x="862" d="M115 852q0 123 95 194.5t255 71.5h139v35q0 71 -43.5 106t-118.5 35q-119 0 -153 -106l-142 31q23 105 101 164t194 59q330 0 330 -320v-508h-139l-19 111q-85 -119 -249 -119q-112 0 -181 64t-69 182zM291 852q0 -98 102 -98q89 0 150 56t61 151v22h-145 q-75 0 -121.5 -35.5t-46.5 -95.5z" />
<glyph unicode="&#xab;" horiz-adv-x="1390" d="M66 565l30 152l680 413l-49 -247l-430 -254l328 -271l-43 -219zM639 565l31 152l680 413l-50 -247l-430 -254l328 -271l-43 -219z" />
<glyph unicode="&#xac;" horiz-adv-x="1128" d="M80 625v188h919v-522h-213v334h-706z" />
<glyph unicode="&#xad;" horiz-adv-x="999" d="M104 555l35 188h723l-35 -188h-723z" />
<glyph unicode="&#xae;" horiz-adv-x="1843" d="M137 717q0 340 223 569q224 230 562 230q335 0 559 -230q225 -231 225 -569q0 -339 -225 -570q-223 -229 -559 -229q-339 0 -562 229t-223 570zM334 717q0 -260 164 -436q163 -175 424 -175t424 175t163 436t-163 436q-162 174 -424 174t-424 -174q-164 -176 -164 -436z M625 281v872h323q137 0 210 -64.5t73 -185.5q0 -98 -50.5 -160t-138.5 -81l261 -381h-201l-250 372h-51v-372h-176zM801 817h145q111 0 111 86t-111 86h-145v-172z" />
<glyph unicode="&#xaf;" horiz-adv-x="595" d="M131 1282l39 193h526l-39 -193h-526z" />
<glyph unicode="&#xb0;" horiz-adv-x="716" d="M201 1214q0 97 65 162q66 66 168 66t168 -66t66 -162q0 -97 -66 -163q-64 -64 -168 -64t-168 64q-65 65 -65 163zM350 1214.5q0 -38.5 23 -63.5q23 -23 61.5 -23t61.5 23q23 25 23 63.5t-23 61.5q-23 25 -61.5 25t-61.5 -25q-23 -23 -23 -61.5z" />
<glyph unicode="&#xb1;" horiz-adv-x="1349" d="M129 0l35 188h911l-35 -188h-911zM270 723l37 188h361l69 361h191l-70 -361h363l-37 -188h-363l-71 -363h-191l72 363h-361z" />
<glyph unicode="&#xb2;" horiz-adv-x="790" d="M152 614l12 62l377 381q80 80 80 151q0 86 -78 86q-40 0 -75.5 -32.5t-53.5 -90.5l-148 41q25 103 107 166.5t192 63.5q100 0 163 -56.5t63 -146.5q0 -77 -22.5 -128.5t-80.5 -109.5l-239 -239h274l-29 -148h-542z" />
<glyph unicode="&#xb3;" horiz-adv-x="876" d="M184 854l148 20q9 -120 123 -120q61 0 101 40.5t40 108.5q0 51 -27 81.5t-66 30.5t-83 -24l-55 96l184 199h-252l29 148h487l-12 -60l-234 -246q86 0 140.5 -58t54.5 -150q0 -141 -86 -227.5t-232 -86.5q-122 0 -191 68.5t-69 179.5z" />
<glyph unicode="&#xb4;" horiz-adv-x="460" d="M90 1147l201 303h293l-324 -303h-170z" />
<glyph unicode="&#xb5;" horiz-adv-x="1193" d="M139 -418v1450h213v-672q0 -188 160 -188q108 0 184 119q80 121 80 323v418h213v-1032h-213v176q-119 -192 -334 -192q-38 0 -90 10v-412h-213z" />
<glyph unicode="&#xb6;" horiz-adv-x="1464" d="M156 965q0 217 149 342q151 127 371 127h751l-36 -189h-131l-322 -1663h-211l322 1663h-199l-322 -1663h-211l193 991q-153 0 -256 109q-98 110 -98 283z" />
<glyph unicode="&#xb7;" horiz-adv-x="593" d="M156 755q0 64 43 107q44 44 108 44t107 -44q44 -43 44 -107t-44 -108q-43 -43 -107 -43t-108 43q-43 44 -43 108z" />
<glyph unicode="&#xb8;" horiz-adv-x="423" d="M-129 -399l295 276h166l-236 -391z" />
<glyph unicode="&#xb9;" horiz-adv-x="686" d="M184 1130l33 175l293 129h63l-157 -820h-160l115 598z" />
<glyph unicode="&#xba;" horiz-adv-x="903" d="M115 1024q0 177 108 297q109 121 291 121q180 0 289 -121q108 -120 108 -297t-108 -297q-109 -121 -289 -121q-182 0 -291 121q-108 120 -108 297zM291 1024q0 -110 59 -190t164 -80q103 0 162 80t59 190t-59 190t-162 80q-105 0 -164 -80t-59 -190z" />
<glyph unicode="&#xbb;" horiz-adv-x="1390" d="M39 139l49 248l430 254l-328 270l43 219l517 -425l-31 -152zM612 139l50 248l430 254l-328 270l43 219l516 -425l-31 -152z" />
<glyph unicode="&#xbc;" horiz-adv-x="1841" d="M152 31l1388 1474l105 -100l-1389 -1475zM207 1130l33 175l292 129h64l-158 -820h-159l114 598zM889 145l14 72l445 602h188l-102 -526h98l-29 -148h-98l-27 -145h-159l26 145h-356zM1122 293h152l57 293z" />
<glyph unicode="&#xbd;" horiz-adv-x="1923" d="M152 31l1388 1474l105 -100l-1389 -1475zM229 1130l33 175l293 129h63l-157 -820h-160l115 598zM1071 0l12 61l377 381q80 80 80 152q0 86 -78 86q-40 0 -75.5 -32.5t-53.5 -90.5l-147 41q25 103 107 166t192 63q100 0 162.5 -56t62.5 -146q0 -77 -22.5 -129t-79.5 -109 l-240 -240h274l-28 -147h-543z" />
<glyph unicode="&#xbe;" horiz-adv-x="1972" d="M184 854l148 20q9 -120 123 -120q61 0 101 40.5t40 108.5q0 51 -27 81.5t-66 30.5t-83 -24l-55 96l184 199h-252l29 148h487l-12 -60l-234 -246q86 0 140.5 -58t54.5 -150q0 -141 -86 -227.5t-232 -86.5q-122 0 -191 68.5t-69 179.5zM283 31l1388 1474l105 -100 l-1389 -1475zM999 145l15 72l444 602h189l-103 -526h98l-28 -148h-98l-27 -145h-160l27 145h-357zM1233 293h151l58 293z" />
<glyph unicode="&#xbf;" horiz-adv-x="755" d="M-291 -168q0 197 211 291l240 108q52 23 79 48.5t31 74.5q0 34 -21 55t-52 21q-43 0 -73.5 -28.5t-62.5 -92.5l-161 53q55 129 128.5 179.5t196.5 50.5q104 0 170 -61.5t66 -165.5q0 -185 -230 -279l-194 -82q-63 -27 -90 -62t-27 -94q0 -51 33.5 -80.5t89.5 -29.5 q153 0 229 186l193 -49q-52 -144 -166 -226.5t-270 -82.5q-152 0 -236 71.5t-84 194.5zM129 870q0 66 43 109q44 44 112 44t111 -44q44 -43 44 -109t-44 -110q-43 -43 -111 -43t-112 43q-43 44 -43 110z" />
<glyph unicode="&#xc0;" d="M-125 0l772 1434h219l219 -1434h-233l-47 356h-508l-186 -356h-236zM408 569h372l-75 580zM498 1851h293l83 -303h-167z" />
<glyph unicode="&#xc1;" d="M-125 0l772 1434h219l219 -1434h-233l-47 356h-508l-186 -356h-236zM408 569h372l-75 580zM600 1548l201 303h293l-324 -303h-170z" />
<glyph unicode="&#xc2;" d="M-125 0l772 1434h219l219 -1434h-233l-47 356h-508l-186 -356h-236zM383 1561l395 360h62l256 -360h-205l-113 155l-168 -155h-227zM408 569h372l-75 580z" />
<glyph unicode="&#xc3;" d="M-125 0l772 1434h219l219 -1434h-233l-47 356h-508l-186 -356h-236zM373 1679q48 74 120.5 120t145.5 46q79 0 143 -43q68 -41 117 -41q59 0 141 82l115 -96q-48 -74 -120.5 -120t-145.5 -46q-78 0 -146 41q-64 43 -114 43q-60 0 -142 -82zM408 569h372l-75 580z" />
<glyph unicode="&#xc4;" d="M-125 0l772 1434h219l219 -1434h-233l-47 356h-508l-186 -356h-236zM408 569h372l-75 580zM473 1734.5q0 55.5 37 92.5t92 37t92 -37t37 -92.5t-37 -92.5t-92 -37t-92 37t-37 92.5zM852 1734.5q0 55.5 37 92.5t92 37t92 -37t37 -92.5t-37 -92.5t-92 -37t-92 37t-37 92.5z " />
<glyph unicode="&#xc5;" d="M-125 0l772 1434h219l219 -1434h-233l-47 356h-508l-186 -356h-236zM408 569h372l-75 580zM602 1739q0 88 59.5 148.5t147.5 60.5q90 0 148.5 -60t58.5 -149q0 -87 -58.5 -144t-148.5 -57q-88 0 -147.5 58t-59.5 143zM735 1741q0 -46 37 -65t74 0t37 65q4 49 -35 69.5 t-78 0t-35 -69.5z" />
<glyph unicode="&#xc6;" horiz-adv-x="1742" d="M-125 0l899 1434h987l-43 -213h-610l-68 -353h490l-41 -213h-490l-86 -442h631l-43 -213h-858l70 356h-367l-217 -356h-254zM479 569h277l112 580h-34z" />
<glyph unicode="&#xc7;" horiz-adv-x="1382" d="M63 567q0 169 57 327t161 282q105 127 264 200.5t344 73.5q212 0 337.5 -120.5t143.5 -323.5l-223 -54q-23 149 -94 217t-205 68q-165 0 -293 -98q-126 -96 -192 -241.5t-66 -309.5q0 -194 89.5 -292.5t258.5 -98.5q131 0 223 66.5t179 215.5l202 -61 q-99 -222 -257.5 -328t-387.5 -106q-233 0 -387 157t-154 426zM295 -399l295 276h166l-236 -391z" />
<glyph unicode="&#xc8;" horiz-adv-x="1161" d="M61 0l281 1434h838l-43 -213h-611l-67 -353h489l-41 -213h-489l-86 -442h631l-43 -213h-859zM563 1851h293l84 -303h-168z" />
<glyph unicode="&#xc9;" horiz-adv-x="1161" d="M61 0l281 1434h838l-43 -213h-611l-67 -353h489l-41 -213h-489l-86 -442h631l-43 -213h-859zM586 1548l200 303h293l-323 -303h-170z" />
<glyph unicode="&#xca;" horiz-adv-x="1161" d="M61 0l281 1434h838l-43 -213h-611l-67 -353h489l-41 -213h-489l-86 -442h631l-43 -213h-859zM401 1561l396 360h61l256 -360h-205l-112 155l-168 -155h-228z" />
<glyph unicode="&#xcb;" horiz-adv-x="1161" d="M61 0l281 1434h838l-43 -213h-611l-67 -353h489l-41 -213h-489l-86 -442h631l-43 -213h-859zM471 1734.5q0 55.5 37 92.5t92 37t92 -37t37 -92.5t-37 -92.5t-92 -37t-92 37t-37 92.5zM850 1734.5q0 55.5 37 92.5t92 37t92 -37t37 -92.5t-37 -92.5t-92 -37t-92 37 t-37 92.5z" />
<glyph unicode="&#xcc;" horiz-adv-x="630" d="M61 0l281 1434h227l-280 -1434h-228zM221 1851h293l84 -303h-168z" />
<glyph unicode="&#xcd;" horiz-adv-x="630" d="M61 0l281 1434h227l-280 -1434h-228zM307 1548l201 303h293l-324 -303h-170z" />
<glyph unicode="&#xce;" horiz-adv-x="630" d="M61 0l281 1434h227l-280 -1434h-228zM106 1561l396 360h61l256 -360h-205l-112 155l-168 -155h-228z" />
<glyph unicode="&#xcf;" horiz-adv-x="630" d="M61 0l281 1434h227l-280 -1434h-228zM184 1734.5q0 55.5 37 92.5t92.5 37t92.5 -37t37 -92.5t-37 -92.5t-92.5 -37t-92.5 37t-37 92.5zM563 1734.5q0 55.5 37 92.5t92 37t92 -37t37 -92.5t-37 -92.5t-92 -37t-92 37t-37 92.5z" />
<glyph unicode="&#xd0;" horiz-adv-x="1368" d="M49 623l35 188h127l123 623h383q257 0 413 -156q158 -155 158 -453q0 -356 -227 -592q-227 -233 -582 -233h-426l121 623h-125zM322 213h141q265 0 428 166q164 170 164 426q0 416 -402 416h-137l-80 -410h242l-35 -188h-244z" />
<glyph unicode="&#xd1;" horiz-adv-x="1449" d="M61 0l281 1434h244l375 -1033l200 1033h228l-281 -1434h-244l-375 1028l-200 -1028h-228zM487 1679q48 74 121 120t146 46q79 0 143 -43q68 -41 117 -41q59 0 141 82l115 -96q-48 -74 -120.5 -120t-145.5 -46q-78 0 -146 41q-64 43 -115 43q-59 0 -141 -82z" />
<glyph unicode="&#xd2;" horiz-adv-x="1488" d="M63 567q0 443 291 697q210 186 525 186q222 0 376 -154q154 -151 154 -430q0 -442 -291 -696q-210 -186 -524 -186q-223 0 -377 151q-154 154 -154 432zM299 588q0 -187 89.5 -289t246.5 -102q231 0 381 182q158 196 158 467q0 187 -89.5 289t-246.5 102 q-231 0 -381 -182q-158 -196 -158 -467zM653 1851h293l84 -303h-168z" />
<glyph unicode="&#xd3;" horiz-adv-x="1488" d="M63 567q0 443 291 697q210 186 525 186q222 0 376 -154q154 -151 154 -430q0 -442 -291 -696q-210 -186 -524 -186q-223 0 -377 151q-154 154 -154 432zM299 588q0 -187 89.5 -289t246.5 -102q231 0 381 182q158 196 158 467q0 187 -89.5 289t-246.5 102 q-231 0 -381 -182q-158 -196 -158 -467zM752 1548l200 303h293l-323 -303h-170z" />
<glyph unicode="&#xd4;" horiz-adv-x="1488" d="M63 567q0 443 291 697q210 186 525 186q222 0 376 -154q154 -151 154 -430q0 -442 -291 -696q-210 -186 -524 -186q-223 0 -377 151q-154 154 -154 432zM299 588q0 -187 89.5 -289t246.5 -102q231 0 381 182q158 196 158 467q0 187 -89.5 289t-246.5 102 q-231 0 -381 -182q-158 -196 -158 -467zM532 1561l396 360h61l256 -360h-205l-112 155l-168 -155h-228z" />
<glyph unicode="&#xd5;" horiz-adv-x="1488" d="M63 567q0 443 291 697q210 186 525 186q222 0 376 -154q154 -151 154 -430q0 -442 -291 -696q-210 -186 -524 -186q-223 0 -377 151q-154 154 -154 432zM299 588q0 -187 89.5 -289t246.5 -102q231 0 381 182q158 196 158 467q0 187 -89.5 289t-246.5 102 q-231 0 -381 -182q-158 -196 -158 -467zM516 1679q48 74 120.5 120t145.5 46q80 0 144 -43q68 -41 116 -41q60 0 142 82l114 -96q-48 -74 -120.5 -120t-145.5 -46q-77 0 -145 41q-64 43 -115 43q-59 0 -141 -82z" />
<glyph unicode="&#xd6;" horiz-adv-x="1488" d="M63 567q0 443 291 697q210 186 525 186q222 0 376 -154q154 -151 154 -430q0 -442 -291 -696q-210 -186 -524 -186q-223 0 -377 151q-154 154 -154 432zM299 588q0 -187 89.5 -289t246.5 -102q231 0 381 182q158 196 158 467q0 187 -89.5 289t-246.5 102 q-231 0 -381 -182q-158 -196 -158 -467zM604 1734.5q0 55.5 37 92.5t92 37t92 -37t37 -92.5t-37 -92.5t-92 -37t-92 37t-37 92.5zM983 1734.5q0 55.5 37 92.5t92 37t92 -37t37 -92.5t-37 -92.5t-92 -37t-92 37t-37 92.5z" />
<glyph unicode="&#xd7;" horiz-adv-x="1101" d="M104 332l314 315l-314 316l134 133l313 -314l313 314l133 -133l-313 -316l313 -315l-133 -133l-313 313l-313 -313z" />
<glyph unicode="&#xd8;" horiz-adv-x="1488" d="M-35 49l178 184q-80 139 -80 334q0 443 291 697q210 186 525 186q190 0 335 -115l166 170l127 -121l-178 -184q80 -139 80 -334q0 -442 -291 -696q-210 -186 -524 -186q-201 0 -336 114l-166 -170zM299 588q0 -93 25 -170l727 749q-85 70 -213 70q-231 0 -381 -182 q-158 -196 -158 -467zM420 266q81 -69 215 -69q231 0 381 182q158 196 158 467q0 93 -25 170z" />
<glyph unicode="&#xd9;" horiz-adv-x="1382" d="M131 391q0 38 19 146l174 897h227l-180 -928q-11 -71 -11 -96q0 -213 232 -213q134 0 221.5 79t116.5 230l180 928h227l-178 -918q-56 -286 -203 -409t-405 -123q-198 0 -309 104.5t-111 302.5zM596 1851h293l84 -303h-168z" />
<glyph unicode="&#xda;" horiz-adv-x="1382" d="M131 391q0 38 19 146l174 897h227l-180 -928q-11 -71 -11 -96q0 -213 232 -213q134 0 221.5 79t116.5 230l180 928h227l-178 -918q-56 -286 -203 -409t-405 -123q-198 0 -309 104.5t-111 302.5zM664 1548l200 303h293l-323 -303h-170z" />
<glyph unicode="&#xdb;" horiz-adv-x="1382" d="M131 391q0 38 19 146l174 897h227l-180 -928q-11 -71 -11 -96q0 -213 232 -213q134 0 221.5 79t116.5 230l180 928h227l-178 -918q-56 -286 -203 -409t-405 -123q-198 0 -309 104.5t-111 302.5zM483 1561l396 360h61l256 -360h-205l-112 155l-168 -155h-228z" />
<glyph unicode="&#xdc;" horiz-adv-x="1382" d="M131 391q0 38 19 146l174 897h227l-180 -928q-11 -71 -11 -96q0 -213 232 -213q134 0 221.5 79t116.5 230l180 928h227l-178 -918q-56 -286 -203 -409t-405 -123q-198 0 -309 104.5t-111 302.5zM553 1734.5q0 55.5 37 92.5t92 37t92 -37t37 -92.5t-37 -92.5t-92 -37 t-92 37t-37 92.5zM932 1734.5q0 55.5 37 92.5t92 37t92 -37t37 -92.5t-37 -92.5t-92 -37t-92 37t-37 92.5z" />
<glyph unicode="&#xdd;" horiz-adv-x="1024" d="M106 1434h242l166 -596l399 596h252l-575 -820l-121 -614h-227l120 614zM473 1548l201 303h293l-324 -303h-170z" />
<glyph unicode="&#xde;" horiz-adv-x="1202" d="M61 0l279 1434h227l-55 -293h250q187 0 292 -93.5t105 -263.5q0 -236 -148 -363.5t-405 -127.5h-260l-57 -293h-228zM387 506h277q113 0 187.5 69.5t74.5 178.5q0 174 -185 174h-272z" />
<glyph unicode="&#xdf;" horiz-adv-x="1189" d="M74 0l133 690h-98l36 189h99l24 131q41 217 168 328.5t320 111.5q153 0 237 -83.5t84 -225.5q0 -248 -227 -336q89 -18 149 -106t60 -220q0 -242 -135.5 -368.5t-374.5 -126.5q-108 0 -174 16l37 188q88 -16 139 -16q297 0 297 295q0 104 -63.5 163.5t-172.5 59.5h-61 l39 189h55q99 0 164 61t65 158q0 79 -41 121.5t-114 42.5q-91 0 -151.5 -58t-80.5 -166l-202 -1038h-211z" />
<glyph unicode="&#xe0;" horiz-adv-x="1220" d="M51 401q0 282 154 465q157 183 426 183q85 0 152 -35.5t98 -95.5l20 114h215l-198 -1032h-216l23 119q-114 -135 -299 -135q-174 0 -276 120q-99 120 -99 297zM283 453q0 -133 56 -207t153 -74q154 0 243 127q90 131 90 303q0 258 -215 258q-151 0 -239 -125 q-88 -122 -88 -282zM420 1450h293l84 -303h-168z" />
<glyph unicode="&#xe1;" horiz-adv-x="1220" d="M51 401q0 282 154 465q157 183 426 183q85 0 152 -35.5t98 -95.5l20 114h215l-198 -1032h-216l23 119q-114 -135 -299 -135q-174 0 -276 120q-99 120 -99 297zM283 453q0 -133 56 -207t153 -74q154 0 243 127q90 131 90 303q0 258 -215 258q-151 0 -239 -125 q-88 -122 -88 -282zM514 1147l201 303h293l-324 -303h-170z" />
<glyph unicode="&#xe2;" horiz-adv-x="1220" d="M51 401q0 282 154 465q157 183 426 183q85 0 152 -35.5t98 -95.5l20 114h215l-198 -1032h-216l23 119q-114 -135 -299 -135q-174 0 -276 120q-99 120 -99 297zM283 453q0 -133 56 -207t153 -74q154 0 243 127q90 131 90 303q0 258 -215 258q-151 0 -239 -125 q-88 -122 -88 -282zM344 1159l395 361h62l256 -361h-205l-113 156l-168 -156h-227z" />
<glyph unicode="&#xe3;" horiz-adv-x="1220" d="M51 401q0 282 154 465q157 183 426 183q85 0 152 -35.5t98 -95.5l20 114h215l-198 -1032h-216l23 119q-114 -135 -299 -135q-174 0 -276 120q-99 120 -99 297zM283 453q0 -133 56 -207t153 -74q154 0 243 127q90 131 90 303q0 258 -215 258q-151 0 -239 -125 q-88 -122 -88 -282zM309 1278q48 74 120.5 120t145.5 46q80 0 144 -43q68 -41 117 -41q59 0 141 82l115 -96q-48 -74 -121 -120t-146 -46q-77 0 -145 41q-64 43 -115 43q-59 0 -141 -82z" />
<glyph unicode="&#xe4;" horiz-adv-x="1220" d="M51 401q0 282 154 465q157 183 426 183q85 0 152 -35.5t98 -95.5l20 114h215l-198 -1032h-216l23 119q-114 -135 -299 -135q-174 0 -276 120q-99 120 -99 297zM283 453q0 -133 56 -207t153 -74q154 0 243 127q90 131 90 303q0 258 -215 258q-151 0 -239 -125 q-88 -122 -88 -282zM416 1333q0 55 37 92t92 37t92 -37t37 -92t-37 -92t-92 -37t-92 37t-37 92zM794 1333q0 55 37 92t92.5 37t92.5 -37t37 -92t-37 -92t-92.5 -37t-92.5 37t-37 92z" />
<glyph unicode="&#xe5;" horiz-adv-x="1220" d="M51 401q0 282 154 465q157 183 426 183q85 0 152 -35.5t98 -95.5l20 114h215l-198 -1032h-216l23 119q-114 -135 -299 -135q-174 0 -276 120q-99 120 -99 297zM283 453q0 -133 56 -207t153 -74q154 0 243 127q90 131 90 303q0 258 -215 258q-151 0 -239 -125 q-88 -122 -88 -282zM541 1337q0 88 59.5 148.5t147.5 60.5q90 0 148 -60t58 -149q0 -87 -58 -143.5t-148 -56.5q-88 0 -147.5 57.5t-59.5 142.5zM674 1339q0 -46 37 -65t73.5 0t36.5 65q4 49 -34.5 69.5t-77.5 0t-35 -69.5z" />
<glyph unicode="&#xe6;" horiz-adv-x="1826" d="M51 274q1 95 40 167t105.5 114.5t150.5 62t183 17.5h228l6 35q6 30 6 45q0 145 -176 145q-142 0 -209 -143l-190 45q109 287 419 287q236 0 332 -140q166 140 381 140q186 0 290.5 -108t104.5 -288q0 -39 -10 -104l-18 -92h-744q-6 -34 -6 -68q0 -100 57 -158.5 t164 -58.5q176 0 308 188l163 -86q-105 -156 -222.5 -223t-293.5 -67q-241 0 -342 198q-96 -112 -188 -155t-213 -43q-144 0 -235 78t-91 212zM281 291q0 -52 36.5 -85.5t98.5 -33.5q110 0 193.5 67.5t107.5 190.5l6 27h-217q-102 0 -163.5 -41.5t-61.5 -124.5zM989 635h514 q0 104 -54 164.5t-159 60.5q-101 0 -182.5 -62t-118.5 -163z" />
<glyph unicode="&#xe7;" horiz-adv-x="1120" d="M51 424q0 166 70 303q71 145 212 233.5t320 88.5q157 0 255.5 -75t129.5 -212l-200 -80q-55 178 -222 178q-148 0 -243 -127q-94 -125 -94 -297q0 -127 53 -195.5t151 -68.5q167 0 287 188l176 -79q-102 -161 -217.5 -229t-282.5 -68q-182 0 -288.5 119t-106.5 321z M152 -399l294 276h166l-235 -391z" />
<glyph unicode="&#xe8;" horiz-adv-x="1148" d="M51 424q0 248 168 434q170 191 434 191q186 0 291 -108t105 -288q0 -33 -11 -104l-18 -92h-744q-6 -34 -6 -68q0 -99 57 -158t165 -59q175 0 307 188l164 -86q-105 -156 -223 -223t-294 -67q-186 0 -290 122q-105 123 -105 318zM315 635h514q0 104 -54 164.5t-159 60.5 q-101 0 -182.5 -62t-118.5 -163zM420 1450h293l84 -303h-168z" />
<glyph unicode="&#xe9;" horiz-adv-x="1148" d="M51 424q0 248 168 434q170 191 434 191q186 0 291 -108t105 -288q0 -33 -11 -104l-18 -92h-744q-6 -34 -6 -68q0 -99 57 -158t165 -59q175 0 307 188l164 -86q-105 -156 -223 -223t-294 -67q-186 0 -290 122q-105 123 -105 318zM315 635h514q0 104 -54 164.5t-159 60.5 q-101 0 -182.5 -62t-118.5 -163zM539 1147l200 303h293l-323 -303h-170z" />
<glyph unicode="&#xea;" horiz-adv-x="1148" d="M51 424q0 248 168 434q170 191 434 191q186 0 291 -108t105 -288q0 -33 -11 -104l-18 -92h-744q-6 -34 -6 -68q0 -99 57 -158t165 -59q175 0 307 188l164 -86q-105 -156 -223 -223t-294 -67q-186 0 -290 122q-105 123 -105 318zM303 1159l395 361h62l256 -361h-205 l-113 156l-168 -156h-227zM315 635h514q0 104 -54 164.5t-159 60.5q-101 0 -182.5 -62t-118.5 -163z" />
<glyph unicode="&#xeb;" horiz-adv-x="1148" d="M51 424q0 248 168 434q170 191 434 191q186 0 291 -108t105 -288q0 -33 -11 -104l-18 -92h-744q-6 -34 -6 -68q0 -99 57 -158t165 -59q175 0 307 188l164 -86q-105 -156 -223 -223t-294 -67q-186 0 -290 122q-105 123 -105 318zM315 635h514q0 104 -54 164.5t-159 60.5 q-101 0 -182.5 -62t-118.5 -163zM389 1333q0 55 37 92t92 37t92 -37t37 -92t-37 -92t-92 -37t-92 37t-37 92zM768 1333q0 55 37 92t92 37t92 -37t37 -92t-37 -92t-92 -37t-92 37t-37 92z" />
<glyph unicode="&#xec;" horiz-adv-x="587" d="M49 0l201 1032h215l-201 -1032h-215zM127 1450h293l84 -303h-168z" />
<glyph unicode="&#xed;" horiz-adv-x="587" d="M49 0l201 1032h215l-201 -1032h-215zM225 1147l201 303h293l-324 -303h-170z" />
<glyph unicode="&#xee;" horiz-adv-x="587" d="M14 1159l396 361h61l256 -361h-205l-112 156l-168 -156h-228zM49 0l201 1032h215l-201 -1032h-215z" />
<glyph unicode="&#xef;" horiz-adv-x="587" d="M49 0l201 1032h215l-201 -1032h-215zM86 1333q0 55 37 92t92 37t92 -37t37 -92t-37 -92t-92 -37t-92 37t-37 92zM465 1333q0 55 37 92t92 37t92 -37t37 -92t-37 -92t-92 -37t-92 37t-37 92z" />
<glyph unicode="&#xf0;" horiz-adv-x="1198" d="M51 414q0 273 166 454q169 181 438 181q117 0 179 -56q-35 123 -146 215l-92 -106l-121 98l88 98q-50 31 -153 82l135 156q98 -48 151 -84l92 107l121 -99l-90 -100q256 -218 256 -623q0 -121 -20 -228.5t-66.5 -205t-116 -167.5t-175 -111t-236.5 -41q-186 0 -299 125 q-111 126 -111 305zM279 446q0 -126 53 -200t153 -74q157 0 252 123q94 125 94 295q0 270 -213 270q-152 0 -247 -127q-92 -127 -92 -287z" />
<glyph unicode="&#xf1;" horiz-adv-x="1185" d="M49 0l201 1032h215l-31 -164q138 181 352 181q118 0 186 -62.5t68 -167.5q0 -45 -12 -104l-139 -715h-215l129 672q8 36 8 65q0 123 -119 123q-104 0 -205 -110q-97 -106 -133 -281l-90 -469h-215zM324 1278q48 74 120.5 120t145.5 46q79 0 143 -43q68 -41 117 -41 q59 0 141 82l115 -96q-48 -74 -120.5 -120t-145.5 -46q-78 0 -146 41q-64 43 -114 43q-60 0 -142 -82z" />
<glyph unicode="&#xf2;" horiz-adv-x="1204" d="M51 428q0 284 162 446q172 175 442 175q192 0 310 -127q116 -125 116 -318q0 -285 -161 -446q-171 -174 -443 -174q-191 0 -309 127q-117 126 -117 317zM281 449q0 -128 61 -202.5t164 -74.5q150 0 252 129q94 119 94 283q0 128 -61 202t-164 74q-150 0 -252 -129 q-94 -119 -94 -282zM408 1450h292l84 -303h-168z" />
<glyph unicode="&#xf3;" horiz-adv-x="1204" d="M51 428q0 284 162 446q172 175 442 175q192 0 310 -127q116 -125 116 -318q0 -285 -161 -446q-171 -174 -443 -174q-191 0 -309 127q-117 126 -117 317zM281 449q0 -128 61 -202.5t164 -74.5q150 0 252 129q94 119 94 283q0 128 -61 202t-164 74q-150 0 -252 -129 q-94 -119 -94 -282zM483 1147l201 303h293l-324 -303h-170z" />
<glyph unicode="&#xf4;" horiz-adv-x="1204" d="M51 428q0 284 162 446q172 175 442 175q192 0 310 -127q116 -125 116 -318q0 -285 -161 -446q-171 -174 -443 -174q-191 0 -309 127q-117 126 -117 317zM281 449q0 -128 61 -202.5t164 -74.5q150 0 252 129q94 119 94 283q0 128 -61 202t-164 74q-150 0 -252 -129 q-94 -119 -94 -282zM309 1159l396 361h61l256 -361h-205l-112 156l-168 -156h-228z" />
<glyph unicode="&#xf5;" horiz-adv-x="1204" d="M51 428q0 284 162 446q172 175 442 175q192 0 310 -127q116 -125 116 -318q0 -285 -161 -446q-171 -174 -443 -174q-191 0 -309 127q-117 126 -117 317zM281 449q0 -128 61 -202.5t164 -74.5q150 0 252 129q94 119 94 283q0 128 -61 202t-164 74q-150 0 -252 -129 q-94 -119 -94 -282zM291 1278q48 74 120.5 120t145.5 46q79 0 143 -43q68 -41 117 -41q59 0 141 82l115 -96q-48 -74 -120.5 -120t-145.5 -46q-77 0 -145 41q-64 43 -115 43q-59 0 -141 -82z" />
<glyph unicode="&#xf6;" horiz-adv-x="1204" d="M51 428q0 284 162 446q172 175 442 175q192 0 310 -127q116 -125 116 -318q0 -285 -161 -446q-171 -174 -443 -174q-191 0 -309 127q-117 126 -117 317zM281 449q0 -128 61 -202.5t164 -74.5q150 0 252 129q94 119 94 283q0 128 -61 202t-164 74q-150 0 -252 -129 q-94 -119 -94 -282zM385 1333q0 55 37 92t92 37t92 -37t37 -92t-37 -92t-92 -37t-92 37t-37 92zM764 1333q0 55 37 92t92 37t92 -37t37 -92t-37 -92t-92 -37t-92 37t-37 92z" />
<glyph unicode="&#xf7;" horiz-adv-x="1179" d="M139 555v188h912v-188h-912zM442 262q0 64 43 107q44 44 108 44t107 -44q44 -43 44 -107t-44 -108q-43 -43 -107 -43t-108 43q-43 44 -43 108zM442 1023q0 64 43 107q44 44 108 44t107 -44q44 -43 44 -107t-44 -108q-43 -43 -107 -43t-108 43q-43 44 -43 108z" />
<glyph unicode="&#xf8;" horiz-adv-x="1204" d="M-49 18l162 164q-62 106 -62 246q0 284 162 446q172 175 442 175q139 0 248 -74l158 160l121 -121l-164 -164q63 -105 63 -246q0 -285 -161 -446q-171 -174 -443 -174q-142 0 -248 71l-157 -157zM281 449q0 -60 8 -91l463 465q-52 37 -125 37q-150 0 -252 -129 q-94 -119 -94 -282zM381 209q52 -37 125 -37q150 0 252 129q94 119 94 283q0 36 -10 88z" />
<glyph unicode="&#xf9;" horiz-adv-x="1191" d="M96 213q0 41 13 104l139 715h215l-129 -672q-8 -36 -8 -65q0 -123 118 -123q103 0 205 111q98 106 133 280l90 469h215l-200 -1032h-215l30 164q-137 -180 -352 -180q-118 0 -186 62t-68 167zM430 1450h293l84 -303h-168z" />
<glyph unicode="&#xfa;" horiz-adv-x="1191" d="M96 213q0 41 13 104l139 715h215l-129 -672q-8 -36 -8 -65q0 -123 118 -123q103 0 205 111q98 106 133 280l90 469h215l-200 -1032h-215l30 164q-137 -180 -352 -180q-118 0 -186 62t-68 167zM504 1147l201 303h292l-323 -303h-170z" />
<glyph unicode="&#xfb;" horiz-adv-x="1191" d="M96 213q0 41 13 104l139 715h215l-129 -672q-8 -36 -8 -65q0 -123 118 -123q103 0 205 111q98 106 133 280l90 469h215l-200 -1032h-215l30 164q-137 -180 -352 -180q-118 0 -186 62t-68 167zM319 1159l396 361h61l256 -361h-205l-112 156l-168 -156h-228z" />
<glyph unicode="&#xfc;" horiz-adv-x="1191" d="M96 213q0 41 13 104l139 715h215l-129 -672q-8 -36 -8 -65q0 -123 118 -123q103 0 205 111q98 106 133 280l90 469h215l-200 -1032h-215l30 164q-137 -180 -352 -180q-118 0 -186 62t-68 167zM389 1333q0 55 37 92t92 37t92 -37t37 -92t-37 -92t-92 -37t-92 37t-37 92z M768 1333q0 55 37 92t92 37t92 -37t37 -92t-37 -92t-92 -37t-92 37t-37 92z" />
<glyph unicode="&#xfd;" horiz-adv-x="980" d="M-14 -418l254 477l-170 973h227l109 -694l360 694h235l-800 -1450h-215zM371 1147l200 303h293l-323 -303h-170z" />
<glyph unicode="&#xfe;" horiz-adv-x="1239" d="M-31 -418l363 1868h215l-103 -532q116 131 295 131q170 0 273.5 -116.5t103.5 -322.5q0 -264 -147 -446q-146 -180 -414 -180q-85 0 -162 40t-104 95l-105 -537h-215zM342 426q0 -111 58.5 -182.5t144.5 -71.5q155 0 246 129q94 131 94 295q0 129 -54 196.5t-153 67.5 q-148 0 -242 -129q-94 -125 -94 -305z" />
<glyph unicode="&#xff;" horiz-adv-x="980" d="M-14 -418l254 477l-170 973h227l109 -694l360 694h235l-800 -1450h-215zM209 1333q0 55 37 92t92 37t92 -37t37 -92t-37 -92t-92 -37t-92 37t-37 92zM588 1333q0 55 37 92t92 37t92 -37t37 -92t-37 -92t-92 -37t-92 37t-37 92z" />
<glyph unicode="&#x152;" horiz-adv-x="2131" d="M63 567q0 443 291 697q210 186 525 186q255 0 401 -180l33 164h837l-43 -213h-610l-67 -353h489l-41 -213h-489l-86 -442h630l-43 -213h-858l23 119q-181 -135 -461 -135q-223 0 -377 151q-154 154 -154 432zM299 588q0 -187 89.5 -289t246.5 -102q231 0 381 182 q158 196 158 467q0 187 -89.5 289t-246.5 102q-231 0 -381 -182q-158 -196 -158 -467z" />
<glyph unicode="&#x153;" horiz-adv-x="1945" d="M51 428q0 284 162 446q172 175 442 175q237 0 357 -191q176 191 434 191q186 0 290.5 -108t104.5 -288q0 -39 -10 -104l-19 -92h-743q-6 -34 -6 -68q0 -100 57 -158.5t164 -58.5q175 0 307 188l164 -86q-105 -156 -222.5 -223t-293.5 -67q-222 0 -326 168 q-168 -168 -436 -168q-191 0 -309 127q-117 126 -117 317zM281 449q0 -128 61 -202.5t164 -74.5q150 0 252 129q94 119 94 283q0 128 -61 202t-164 74q-150 0 -252 -129q-94 -119 -94 -282zM1108 635h514q0 104 -54 164.5t-159 60.5q-101 0 -182.5 -62t-118.5 -163z" />
<glyph unicode="&#x178;" horiz-adv-x="1024" d="M106 1434h242l166 -596l399 596h252l-575 -820l-121 -614h-227l120 614zM354 1734.5q0 55.5 37 92.5t92 37t92 -37t37 -92.5t-37 -92.5t-92 -37t-92 37t-37 92.5zM733 1734.5q0 55.5 37 92.5t92 37t92 -37t37 -92.5t-37 -92.5t-92 -37t-92 37t-37 92.5z" />
<glyph unicode="&#x2c6;" horiz-adv-x="827" d="M133 1159l395 361h62l256 -361h-205l-113 156l-168 -156h-227z" />
<glyph unicode="&#x2dc;" horiz-adv-x="835" d="M131 1278q48 74 120.5 120t145.5 46q80 0 144 -43q68 -41 116 -41q60 0 142 82l114 -96q-48 -74 -120.5 -120t-145.5 -46q-77 0 -145 41q-64 43 -115 43q-59 0 -141 -82z" />
<glyph unicode="&#x2000;" horiz-adv-x="974" />
<glyph unicode="&#x2001;" horiz-adv-x="1948" />
<glyph unicode="&#x2002;" horiz-adv-x="974" />
<glyph unicode="&#x2003;" horiz-adv-x="1948" />
<glyph unicode="&#x2004;" horiz-adv-x="649" />
<glyph unicode="&#x2005;" horiz-adv-x="487" />
<glyph unicode="&#x2006;" horiz-adv-x="324" />
<glyph unicode="&#x2007;" horiz-adv-x="324" />
<glyph unicode="&#x2008;" horiz-adv-x="243" />
<glyph unicode="&#x2009;" horiz-adv-x="389" />
<glyph unicode="&#x200a;" horiz-adv-x="108" />
<glyph unicode="&#x2010;" horiz-adv-x="999" d="M104 555l35 188h723l-35 -188h-723z" />
<glyph unicode="&#x2011;" horiz-adv-x="999" d="M104 555l35 188h723l-35 -188h-723z" />
<glyph unicode="&#x2012;" horiz-adv-x="999" d="M104 555l35 188h723l-35 -188h-723z" />
<glyph unicode="&#x2013;" horiz-adv-x="1146" d="M102 555l35 188h887l-35 -188h-887z" />
<glyph unicode="&#x2014;" horiz-adv-x="1529" d="M102 555l35 188h1270l-35 -188h-1270z" />
<glyph unicode="&#x2018;" horiz-adv-x="583" d="M162 1450h291l63 -455h-158z" />
<glyph unicode="&#x2019;" horiz-adv-x="516" d="M102 995l238 455h293l-373 -455h-158z" />
<glyph unicode="&#x201a;" horiz-adv-x="696" d="M-10 -29l237 455h293l-373 -455h-157z" />
<glyph unicode="&#x201c;" horiz-adv-x="993" d="M162 1450h291l63 -455h-158zM571 1450h291l64 -455h-158z" />
<glyph unicode="&#x201d;" horiz-adv-x="925" d="M102 995l238 455h293l-373 -455h-158zM512 995l238 455h292l-372 -455h-158z" />
<glyph unicode="&#x201e;" horiz-adv-x="1105" d="M-10 -29l237 455h293l-373 -455h-157zM399 -29l238 455h293l-373 -455h-158z" />
<glyph unicode="&#x2022;" horiz-adv-x="755" d="M143 676q0 89 62 151q64 64 153 64q91 0 152 -64q63 -60 63 -151t-63 -154q-61 -61 -152 -61q-89 0 -153 61q-62 65 -62 154z" />
<glyph unicode="&#x2026;" horiz-adv-x="1693" d="M47 141q0 64 43 107q44 44 108 44t107 -44q44 -43 44 -107t-44 -108q-43 -43 -107 -43t-108 43q-43 44 -43 108zM596 141q0 64 43 107q44 44 108 44t107 -44q44 -43 44 -107t-44 -108q-43 -43 -107 -43t-108 43q-43 44 -43 108zM1145 141q0 64 43 107q44 44 108 44 t107 -44q44 -43 44 -107t-44 -108q-43 -43 -107 -43t-108 43q-43 44 -43 108z" />
<glyph unicode="&#x202f;" horiz-adv-x="389" />
<glyph unicode="&#x2039;" horiz-adv-x="817" d="M66 565l30 152l680 413l-49 -247l-430 -254l328 -271l-43 -219z" />
<glyph unicode="&#x203a;" horiz-adv-x="817" d="M39 139l49 248l430 254l-328 270l43 219l517 -425l-31 -152z" />
<glyph unicode="&#x205f;" horiz-adv-x="487" />
<glyph unicode="&#x20ac;" horiz-adv-x="1259" d="M12 467l131 188h88l23 123h-182l129 189h106q90 235 255.5 359t377.5 124q143 0 241.5 -66.5t137.5 -181.5l-201 -102q-59 157 -217 157q-262 0 -375 -290h484l-131 -189h-410l-23 -123h504l-131 -188h-389q0 -140 69.5 -215.5t194.5 -75.5q79 0 138 35.5t129 120.5 l159 -103q-166 -245 -465 -245q-204 0 -323 131q-121 133 -121 352h-199z" />
<glyph unicode="&#x2122;" horiz-adv-x="1701" d="M158 1278l28 156h605l-29 -156h-215l-129 -664h-174l129 664h-215zM760 614l158 820h176l100 -500l303 500h186l-157 -820h-174l90 463l-230 -387h-110l-78 387l-90 -463h-174z" />
<glyph unicode="&#x25fc;" horiz-adv-x="1034" d="M0 0v1034h1034v-1034h-1034z" />
</font>
</defs>
</svg>
