<?xml version="1.0" standalone="no"?>
<!DOCTYPE svg PUBLIC "-//W3C//DTD SVG 1.1//EN" "http://www.w3.org/Graphics/SVG/1.1/DTD/svg11.dtd" >
<svg xmlns="http://www.w3.org/2000/svg">
<metadata></metadata>
<defs>
<font id="tiempos_textregular" horiz-adv-x="1172" >
<font-face units-per-em="2048" ascent="1638" descent="-410" />
<missing-glyph horiz-adv-x="460" />
<glyph horiz-adv-x="0" />
<glyph horiz-adv-x="0" />
<glyph unicode="&#xd;" horiz-adv-x="0" />
<glyph unicode=" "  horiz-adv-x="460" />
<glyph unicode="&#x09;" horiz-adv-x="460" />
<glyph unicode="&#xa0;" horiz-adv-x="460" />
<glyph unicode="!" horiz-adv-x="598" d="M150 130q0 -34 10 -60q12 -26 32 -48q22 -20 48 -32q26 -10 60 -10q30 0 56 10q28 12 50 32q22 22 32 48t10 60q0 30 -10 56q-10 28 -32 50t-50 32q-26 10 -56 10q-34 0 -60 -10t-48 -32q-20 -22 -32 -50q-10 -26 -10 -56zM164 1438q22 -256 88 -1022h92q22 256 88 1022 h-268z" />
<glyph unicode="&#x22;" horiz-adv-x="798" d="M112 1420q2 -8 2 -18l4 -20l4 -24q4 -12 6 -26t6 -26q2 -14 10 -44l56 -296h46q14 74 58 296q2 10 8 44q2 12 4 26t6 26l4 24l4 20t2 18q2 10 2 16q0 28 -8 52q-8 22 -20 40q-16 16 -36 24t-46 8q-28 0 -48 -8t-34 -24q-16 -18 -22 -40q-8 -24 -8 -52v-16zM464 1436 q0 -6 2 -16v-18l4 -20q2 -12 6 -24q2 -12 4 -26t6 -26q2 -14 10 -44l56 -296h46q14 74 58 296q2 10 8 44q2 12 4 26t6 26l4 24l4 20t2 18q2 10 2 16q0 28 -8 52q-6 22 -20 40q-16 16 -36 24t-46 8q-28 0 -48 -8t-34 -24q-16 -18 -22 -40q-8 -24 -8 -52z" />
<glyph unicode="#" horiz-adv-x="1196" d="M62 430h196q-32 -104 -132 -414q28 -8 106 -36q36 112 142 450h260q-32 -104 -130 -414q26 -8 104 -36q36 112 144 450h238v108h-204q30 92 116 364h232v108h-198q34 104 134 414q-28 8 -106 36q-36 -112 -142 -450h-262q32 104 132 414q-26 8 -104 36 q-36 -112 -144 -450h-238v-108h204q-30 -92 -118 -364h-230v-108zM410 538q28 92 114 364h262q-28 -92 -116 -364h-260z" />
<glyph unicode="$" horiz-adv-x="1046" d="M82 414q4 -80 14 -318q30 -28 70 -48q42 -22 94 -38q28 -8 56 -14t56 -8q-10 -74 -32 -220h92q8 54 32 212h26q48 0 94 6t90 18q42 12 80 30q38 20 70 44t58 54t44 64q18 36 28 78q10 40 10 86q0 40 -6 76q-6 34 -18 64q-12 28 -28 52t-38 46t-46 40t-52 34t-60 30 t-66 30q-22 8 -66 26q18 114 72 458q20 -10 40 -24t38 -28q40 -40 68 -96q28 -54 44 -124h64v288q-34 28 -78 48t-96 34q-22 6 -62 18q8 52 32 212h-92l-32 -200h-34q-16 2 -32 2q-50 0 -94 -8t-82 -22q-40 -12 -72 -32q-34 -18 -62 -42q-26 -26 -48 -54q-20 -28 -34 -60 q-14 -34 -22 -68q-6 -36 -6 -72q0 -40 6 -74q4 -34 16 -62q14 -28 28 -52q16 -24 36 -44q20 -22 44 -38q22 -18 48 -32q26 -16 54 -28t60 -26q26 -10 78 -34q-18 -124 -74 -500l-12 4l-8 4q-28 12 -54 30q-26 20 -48 42t-40 48t-34 56l-28 64t-22 68h-64zM262 1042 q0 46 16 84q14 36 46 64q30 28 76 42q44 14 106 14q16 0 30 -2q16 -2 32 -2q-24 -150 -70 -450q-12 6 -44 20q-48 18 -84 40q-36 24 -60 50q-26 26 -36 60q-12 36 -12 80zM480 80q18 120 76 482q2 -2 12 -4q24 -12 46 -22q24 -12 46 -22l40 -24q18 -14 34 -28q14 -14 26 -32 q12 -16 20 -34q8 -20 12 -42t4 -48q0 -54 -20 -94q-18 -42 -58 -72q-40 -32 -92 -46t-120 -14h-26z" />
<glyph unicode="%" horiz-adv-x="1642" d="M62 998q0 -42 6 -78q6 -38 22 -70q14 -32 32 -60q20 -28 44 -48q22 -24 50 -40q26 -18 56 -30q32 -12 62 -18q32 -4 66 -4q32 0 62 4q32 6 62 18q32 12 58 30q26 16 50 40q24 20 42 48q20 28 34 60t22 70q8 36 8 78q0 40 -8 76t-22 68q-14 34 -34 60q-18 28 -42 52 q-24 20 -50 38q-26 16 -58 28q-30 14 -62 20q-30 6 -62 6q-34 0 -66 -6q-30 -6 -62 -20q-30 -12 -56 -28q-28 -18 -50 -38q-24 -24 -44 -52q-18 -26 -32 -60q-16 -32 -22 -68t-6 -76zM226 998q0 26 2 52q0 26 6 50q4 24 12 46q6 22 16 40t22 32q14 14 32 28q16 10 38 16 q20 6 46 6q24 0 44 -6t38 -16q16 -14 30 -28t22 -32q10 -18 18 -40q6 -22 12 -46q4 -24 6 -50q4 -26 4 -52q0 -28 -4 -54q-2 -24 -6 -50q-6 -24 -12 -46q-8 -20 -18 -40q-8 -18 -22 -32q-14 -16 -30 -26q-18 -12 -38 -18q-20 -4 -44 -4q-26 0 -46 4q-22 6 -38 18 q-18 10 -32 26q-12 14 -22 32q-10 20 -16 40q-8 22 -12 46q-6 26 -6 50q-2 26 -2 54zM342 -38h120q210 350 838 1404h-120q-210 -352 -838 -1404zM906 330q0 -42 6 -78q6 -38 22 -70q14 -32 32 -60q20 -26 44 -48q22 -24 50 -40q26 -18 56 -30t62 -18q32 -4 66 -4q32 0 62 4 q32 6 62 18t58 30q26 16 50 40q24 22 42 48q20 28 34 60t22 70q8 36 8 78q0 40 -8 76t-22 70q-14 32 -34 60q-18 26 -42 50q-24 22 -50 38q-28 18 -58 30t-62 18q-30 6 -62 6q-34 0 -66 -6t-62 -18t-56 -30q-28 -16 -50 -38q-24 -24 -44 -50q-18 -28 -32 -60 q-16 -34 -22 -70t-6 -76zM1070 276v54v52q2 26 8 50q4 24 12 46q6 22 16 40t22 32q14 16 32 28q16 10 38 16q20 6 46 6q24 0 44 -6t38 -16q16 -12 30 -28q14 -14 22 -32q10 -18 16 -40q8 -22 12 -46q6 -24 8 -50q4 -26 4 -52q0 -28 -4 -54q-2 -24 -8 -48q-4 -26 -12 -46 q-6 -22 -16 -40q-8 -20 -22 -34q-14 -16 -30 -26q-18 -12 -38 -18q-20 -4 -44 -4q-26 0 -46 4q-22 6 -38 18q-18 10 -32 26q-12 14 -22 34q-10 18 -16 40q-8 20 -12 46q-6 24 -8 48z" />
<glyph unicode="&#x26;" horiz-adv-x="1416" d="M58 376q0 -52 10 -96q8 -44 30 -82q22 -36 50 -66q28 -32 60 -56q34 -24 74 -44q38 -18 80 -30q44 -12 88 -18q42 -4 88 -4q66 0 126 10q60 12 112 34q50 20 92 48q44 28 80 66q18 -20 34 -36l30 -30q22 -24 48 -42q24 -18 52 -30h248v78q-34 0 -64 6q-28 8 -52 22 q-26 14 -52 36q-24 20 -50 48q-20 24 -84 94q6 12 14 26t14 30q24 56 42 116q16 62 30 130q2 22 6 40t10 34q4 14 12 24q8 12 18 20t26 14q14 6 32 10q18 2 42 4q26 2 56 2v80h-410v-80q30 0 50 -8t32 -24q10 -14 16 -42t6 -66q0 -52 -8 -100t-24 -94q-6 -18 -20 -50 q-96 110 -386 440q18 8 38 16q18 8 36 18q44 20 82 44q36 22 68 48q30 24 54 52q24 30 42 60q16 30 26 64q8 32 8 70q0 64 -22 116q-22 54 -68 96t-112 62q-66 22 -154 22q-42 0 -78 -6q-38 -8 -72 -20q-32 -14 -62 -32q-28 -20 -52 -42q-24 -24 -42 -50q-20 -28 -32 -58 q-14 -32 -20 -68q-6 -34 -6 -70q0 -28 2 -54q4 -26 10 -50t16 -48q8 -22 18 -42q12 -22 24 -40q12 -20 24 -36q10 -16 22 -30l20 -24q-26 -12 -50 -24q-24 -10 -46 -22q-34 -20 -66 -44q-30 -22 -56 -46q-26 -26 -46 -56t-36 -64t-22 -72q-6 -40 -6 -84zM258 406 q0 64 16 120q14 56 46 102q20 32 50 58q30 24 66 44q152 -178 456 -530q-26 -24 -54 -42q-30 -20 -60 -36q-44 -20 -94 -30t-104 -10q-34 0 -66 6q-32 4 -62 16q-28 12 -54 28q-24 16 -46 38t-40 46q-18 26 -30 56t-18 64q-6 32 -6 70zM406 1168q0 48 12 86q14 38 40 64 q28 28 64 40q36 14 82 14q48 0 84 -14q38 -16 64 -44t40 -66q12 -40 12 -86q0 -74 -22 -130q-24 -56 -70 -94q-28 -24 -66 -46q-36 -22 -82 -42q-4 4 -8 10q-30 32 -56 68q-26 34 -50 72q-22 36 -34 78q-10 42 -10 90z" />
<glyph unicode="'" horiz-adv-x="446" d="M112 1420q2 -8 2 -18l4 -20l4 -24q4 -12 6 -26t6 -26q2 -14 10 -44l56 -296h46q14 74 58 296q2 10 8 44q2 12 4 26t6 26l4 24l4 20t2 18q2 10 2 16q0 28 -8 52q-8 22 -20 40q-16 16 -36 24t-46 8q-28 0 -48 -8t-34 -24q-16 -18 -22 -40q-8 -24 -8 -52v-16z" />
<glyph unicode="(" horiz-adv-x="692" d="M122 644q0 -66 8 -128q6 -64 18 -128q12 -66 32 -128t46 -122q24 -62 56 -120q32 -56 70 -110q38 -56 82 -104q44 -50 94 -92h102q-48 52 -90 106q-40 54 -74 110q-32 56 -58 114q-28 58 -46 116t-32 116q-14 60 -20 122q-10 60 -14 122t-4 126q0 60 4 122t14 122 q6 62 20 122t32 118t46 116q26 60 58 116q34 56 74 110q42 54 90 106h-102q-50 -44 -94 -92q-44 -50 -82 -104t-70 -112t-56 -120q-26 -60 -46 -122t-32 -126q-12 -66 -18 -130q-8 -64 -8 -126z" />
<glyph unicode=")" horiz-adv-x="692" d="M62 -288h102q48 42 94 92q44 48 82 104q36 54 68 110q32 58 58 120q26 60 44 122q20 62 32 128q14 64 20 128q8 62 8 128q0 62 -8 126q-6 64 -20 130q-12 64 -32 126q-18 62 -44 122q-26 62 -58 120t-68 112q-38 54 -82 104q-46 48 -94 92h-102q48 -52 88 -106t74 -110 q32 -56 58 -116q26 -58 46 -116q18 -58 32 -118t20 -122q8 -60 12 -122q6 -62 6 -122q0 -64 -6 -126q-4 -62 -12 -122q-6 -62 -20 -122q-14 -58 -32 -116q-20 -58 -46 -116t-58 -114q-34 -56 -74 -110t-88 -106z" />
<glyph unicode="*" horiz-adv-x="892" d="M82 1046q14 -24 58 -100q68 48 276 190q-6 -82 -26 -334h114q-6 84 -26 332q68 -46 276 -188q14 26 58 100l-304 144l304 144q-16 24 -58 100q-70 -48 -276 -190q6 82 26 332h-114q6 -82 26 -332q-70 46 -276 190q-16 -26 -58 -100q76 -36 300 -144q-74 -36 -300 -144z " />
<glyph unicode="+" horiz-adv-x="1156" d="M130 574h384v-386h124v386h388v126h-388v386h-124v-386h-384v-126z" />
<glyph unicode="," horiz-adv-x="582" d="M102 -170v-82q44 4 82 12t70 20q30 14 56 32q26 20 46 40q20 22 36 46q14 26 24 52q8 28 14 58q4 32 4 64q0 40 -10 72q-10 34 -28 60q-20 28 -48 42q-30 14 -68 14q-28 0 -52 -8q-26 -10 -44 -26q-20 -20 -30 -42q-8 -24 -8 -52t6 -48q6 -18 18 -32q12 -16 30 -26 q16 -10 38 -14h78q0 -36 -14 -68q-14 -30 -38 -52q-24 -24 -66 -38q-40 -16 -96 -24z" />
<glyph unicode="-" horiz-adv-x="738" d="M102 546h532v156h-532v-156z" />
<glyph unicode="." horiz-adv-x="582" d="M142 130q0 -34 10 -60t32 -48q22 -20 48 -32q26 -10 58 -10t58 10q28 12 50 32q20 22 32 48q10 26 10 60q0 30 -10 56q-12 28 -32 50q-22 22 -50 32q-26 10 -58 10t-58 -10t-48 -32t-32 -50q-10 -26 -10 -56z" />
<glyph unicode="/" horiz-adv-x="814" d="M40 -288h128l568 1864h-128z" />
<glyph unicode="0" horiz-adv-x="1286" d="M94 610q0 -68 10 -132t32 -122q20 -58 48 -108q28 -48 66 -90q36 -44 80 -76t94 -56t104 -36q56 -10 116 -10q58 0 112 10q56 12 106 36t94 56t80 76q38 42 66 90q28 50 48 108t32 122q10 64 10 132t-10 130q-12 64 -32 122t-48 108t-66 92q-36 42 -80 74q-44 34 -94 58 t-106 36q-54 12 -112 12q-60 0 -116 -12q-54 -12 -104 -36t-94 -58q-44 -32 -80 -74q-38 -42 -66 -92t-48 -108q-22 -58 -32 -122q-10 -62 -10 -130zM304 610q0 56 4 108t16 100q10 46 26 88q18 42 40 78q20 32 46 60q28 28 60 48q30 20 68 30q36 10 80 10q40 0 76 -10 t68 -30t58 -48q28 -28 48 -60q22 -36 38 -78t28 -88q12 -48 18 -100t6 -108t-6 -108t-18 -100t-28 -90q-16 -40 -38 -74q-20 -36 -48 -64q-26 -28 -58 -48q-32 -18 -68 -28t-76 -10q-44 0 -80 10q-38 10 -68 28q-32 20 -60 48q-26 28 -46 64q-22 34 -40 74q-16 42 -26 90 q-12 48 -16 100t-4 108z" />
<glyph unicode="1" horiz-adv-x="874" d="M102 936h284v-724q0 -20 -4 -38q-2 -16 -8 -28t-14 -22q-10 -10 -24 -16t-34 -10t-46 -8q-26 -2 -60 -6q-34 -2 -74 -4v-80h696v80q-44 2 -76 4q-34 4 -58 6q-24 4 -42 8t-30 10t-20 16q-10 10 -12 22q-4 12 -6 28v38v1010h-46q-18 -26 -36 -48t-36 -40t-36 -32 q-20 -14 -40 -24q-20 -14 -42 -22q-22 -10 -48 -16q-26 -8 -56 -14q-32 -6 -68 -8q-22 -2 -64 -8v-74z" />
<glyph unicode="2" horiz-adv-x="1034" d="M48 0h866q16 82 70 326h-56q-18 -32 -34 -54q-16 -24 -30 -38q-16 -16 -30 -28t-30 -20q-14 -8 -30 -14q-16 -4 -32 -6q-18 -2 -36 -2h-40h-378q62 52 120 100t112 90q54 44 100 86q46 44 86 86t72 84q30 44 54 88q20 44 32 92q12 50 12 104q0 38 -6 72t-18 66 q-12 30 -30 58t-42 50q-24 24 -54 42q-28 18 -62 32q-36 12 -76 20t-82 8q-40 0 -76 -8q-38 -8 -72 -20t-66 -30q-30 -18 -58 -40q-28 -20 -54 -46t-46 -58q-22 -30 -40 -64q-20 -34 -34 -68q16 -16 50 -44q12 22 28 42l32 40t36 38q18 18 40 34q20 16 42 28q24 14 48 24 q24 8 50 12q28 6 56 6q58 0 100 -16q44 -18 74 -48q32 -32 46 -74q16 -42 16 -94q0 -40 -8 -76q-6 -38 -18 -72q-14 -34 -30 -66t-38 -60q-22 -32 -46 -60q-22 -28 -50 -56q-28 -26 -56 -54q-30 -28 -58 -56q-108 -104 -326 -310v-46z" />
<glyph unicode="3" horiz-adv-x="972" d="M38 -10q0 -28 8 -52q8 -26 24 -46q14 -22 36 -40q20 -16 48 -30q28 -16 58 -26q32 -12 66 -18q36 -6 74 -10t78 -4q50 0 96 8t88 24q44 14 80 36q38 22 70 50q32 26 58 60t44 74q18 38 28 82q12 42 12 90q0 40 -8 78q-8 36 -22 70t-36 64q-20 30 -46 56t-56 48 q-32 22 -68 38q-38 16 -78 26q-42 12 -88 18q26 6 54 16t58 24q32 14 58 32q28 18 54 40q24 22 44 46q22 26 40 54q16 28 24 60q10 32 10 70q0 34 -6 64q-6 32 -16 60q-12 28 -30 52q-16 26 -38 46q-22 22 -48 38q-28 16 -58 28q-32 12 -66 18q-36 8 -76 8q-42 0 -78 -8 q-38 -8 -70 -20q-34 -12 -62 -28q-30 -18 -56 -40q-26 -20 -50 -46q-22 -24 -40 -52q-20 -28 -36 -56q-16 -30 -28 -60l48 -42q22 42 52 76q32 34 70 62q36 28 82 42q44 14 94 14q48 0 86 -14q40 -14 70 -40q30 -28 46 -64q16 -38 16 -88q0 -38 -10 -70q-8 -32 -24 -58 q-16 -28 -38 -52q-22 -22 -50 -40q-28 -20 -60 -38q-34 -16 -70 -30q-38 -14 -78 -26t-82 -24q4 -22 14 -68q50 0 96 -6t88 -16q44 -10 80 -26q38 -14 68 -34t54 -46q24 -24 40 -56q16 -30 26 -66q8 -34 8 -74q0 -68 -18 -122t-54 -92q-38 -40 -86 -58q-48 -20 -106 -20 q-32 0 -60 6q-26 4 -50 14q-24 8 -42 22q-20 12 -36 28t-30 36q-12 18 -22 40l-16 44q-6 24 -10 48h-96q-24 -18 -36 -44q-14 -26 -14 -60z" />
<glyph unicode="4" horiz-adv-x="1174" d="M28 194h678v-412h192v412h246v100h-246v950h-96q-192 -246 -774 -978v-72zM178 294l528 664v-664h-528z" />
<glyph unicode="5" horiz-adv-x="958" d="M38 -10q0 -28 8 -52q8 -26 24 -46q14 -22 36 -40q20 -16 46 -30q24 -16 54 -26q30 -12 64 -18t70 -10q34 -4 72 -4q48 0 96 8t92 24q44 14 82 38q38 22 70 52q30 28 56 64t44 76q18 42 28 90q8 46 8 100q0 64 -12 118q-14 56 -40 102t-62 86q-34 40 -78 70t-94 54 q-52 24 -106 42q-58 18 -116 30t-120 18q16 100 48 302h534v182h-598q-26 -164 -106 -654q60 -6 118 -14q56 -10 110 -24q52 -14 100 -32t86 -44q40 -24 72 -54q30 -30 54 -66q22 -38 34 -78q10 -42 10 -90q0 -74 -18 -130q-18 -58 -54 -98q-38 -40 -90 -60t-120 -20 q-30 0 -56 6q-26 4 -48 14q-24 8 -42 22q-20 12 -36 28t-28 36q-12 18 -22 40l-16 44q-6 24 -10 48h-94q-24 -18 -36 -44q-14 -26 -14 -60z" />
<glyph unicode="6" horiz-adv-x="1182" d="M94 568q0 -64 8 -122t28 -112q18 -54 42 -100q26 -46 60 -86q32 -40 72 -72q40 -30 88 -52q46 -22 98 -34q54 -10 112 -10q52 0 102 8q48 8 92 26q46 18 84 44q38 24 72 58q32 32 58 72t44 86q20 46 28 98q10 52 10 112q0 46 -8 90t-24 84q-14 40 -36 74q-22 32 -50 60 q-26 28 -60 48q-34 22 -72 36q-38 16 -80 24t-88 8q-54 0 -104 -12q-52 -12 -102 -34q-48 -22 -88 -54q-40 -30 -72 -66q6 52 20 102q16 50 40 100t56 96t74 88q40 44 88 82q50 38 108 72t126 62q66 28 142 48l-40 64q-98 -16 -186 -44q-86 -28 -162 -66q-78 -38 -142 -86 q-66 -48 -118 -104q-54 -58 -96 -124q-40 -66 -68 -140t-42 -156t-14 -168zM296 572v22v32q0 20 2 34q2 16 6 32q20 16 50 30q28 16 66 30q36 12 72 20q38 6 78 6q78 0 138 -24t104 -70q42 -48 64 -114t22 -148q0 -80 -20 -144q-18 -64 -52 -110q-36 -46 -88 -70 q-52 -22 -120 -22q-36 0 -68 8q-34 8 -62 26q-30 18 -54 42q-26 24 -46 56q-22 34 -40 72q-16 40 -28 86t-18 98q-6 50 -6 108z" />
<glyph unicode="7" horiz-adv-x="984" d="M28 910h74q10 18 20 34q10 18 20 30q8 14 20 24q10 10 20 18l24 12t26 8q14 4 30 4q18 2 38 2h504q-156 -314 -626 -1260h182q148 346 594 1382v56h-840q-20 -78 -86 -310z" />
<glyph unicode="8" horiz-adv-x="1126" d="M90 364q0 -42 8 -82t26 -76t42 -66q24 -32 56 -56q30 -24 68 -44t80 -34q44 -14 92 -20t102 -6q60 0 114 8q52 8 98 24q44 16 82 38q36 22 66 50q28 28 48 60q22 30 36 68q14 36 20 74q8 38 8 78q0 68 -18 122q-18 56 -56 98q-36 44 -82 78q-46 36 -104 68q-24 12 -72 34 q26 8 50 20q26 12 50 28q26 14 48 34q24 18 42 40q20 20 36 44t28 52t18 56q8 30 8 60q0 36 -8 72t-24 68q-16 30 -36 58q-20 26 -48 50q-28 22 -60 42q-34 18 -72 30q-40 12 -84 18q-42 6 -88 6q-54 0 -98 -8t-84 -22q-38 -16 -72 -36q-32 -20 -58 -44q-28 -26 -48 -56 q-20 -32 -34 -66t-20 -70t-6 -74q0 -34 2 -64q4 -30 14 -56q8 -26 20 -48q12 -24 26 -44q16 -20 34 -38t38 -34q22 -14 46 -30q22 -14 48 -26q8 -4 26 -12q-34 -14 -64 -28t-58 -30q-28 -18 -52 -38t-46 -42q-22 -24 -38 -50q-16 -24 -28 -52q-12 -30 -16 -60q-6 -32 -6 -66 zM270 364q0 50 10 98q10 46 32 90q20 46 54 82q34 38 82 68q54 -26 214 -102q40 -22 76 -46q36 -26 64 -56q30 -32 46 -70q14 -40 14 -90q0 -62 -20 -110q-22 -48 -62 -82q-42 -36 -96 -54q-54 -16 -120 -16q-68 0 -122 20q-52 20 -92 60t-60 92t-20 116zM318 1134 q0 50 16 90q14 42 46 74q34 32 80 48q44 16 104 16q54 0 100 -16q46 -18 82 -50q34 -34 52 -78q18 -46 18 -104q0 -50 -10 -94q-8 -44 -26 -80q-18 -38 -50 -70q-30 -34 -76 -62l-152 80q-46 24 -80 48q-34 26 -58 54q-24 26 -36 62q-10 36 -10 82z" />
<glyph unicode="9" horiz-adv-x="1182" d="M90 738q0 -50 8 -94q8 -42 22 -82q16 -40 38 -74q22 -32 48 -60q28 -28 62 -50q32 -20 70 -36t82 -22q42 -6 88 -6q52 0 102 10q52 12 100 34q50 22 90 52t74 70q-8 -52 -22 -104q-16 -52 -38 -102q-26 -48 -58 -94t-72 -90q-42 -42 -90 -80q-50 -38 -108 -72t-126 -60 q-66 -28 -140 -50l40 -64q96 16 184 44q88 26 164 66q78 38 142 86q64 46 118 104q52 56 94 122q40 66 68 142q28 74 42 154q16 82 16 172q0 60 -10 118q-8 58 -28 112q-18 54 -42 100q-26 48 -58 88q-34 40 -74 70t-86 54q-48 22 -100 34t-110 12q-54 0 -104 -10 q-48 -10 -94 -28q-44 -18 -82 -44q-38 -24 -70 -56q-34 -34 -60 -74q-24 -40 -44 -86q-18 -46 -26 -98q-10 -52 -10 -108zM284 798q0 80 18 144q16 62 52 108t88 70t122 24q34 0 66 -8q34 -10 62 -26q30 -18 56 -44q26 -24 46 -56q22 -32 38 -72q16 -38 28 -84t18 -98 t6 -106v-26q-2 -14 -2 -32v-34q-2 -16 -4 -30q-22 -16 -52 -32q-28 -14 -64 -28q-38 -12 -74 -20q-38 -6 -76 -6q-80 0 -140 24q-60 22 -104 70q-42 46 -62 112q-22 66 -22 150z" />
<glyph unicode=":" horiz-adv-x="582" d="M142 130q0 -34 10 -60t32 -48q22 -20 48 -32q26 -10 58 -10t58 10q28 12 50 32q20 22 32 48q10 26 10 60q0 30 -10 56q-12 28 -32 50q-22 22 -50 32q-26 10 -58 10t-58 -10t-48 -32t-32 -50q-10 -26 -10 -56zM142 784q0 -32 10 -58t32 -48t48 -32q26 -12 58 -12t58 12 q28 10 50 32q20 22 32 48q10 26 10 58t-10 58q-12 28 -32 48q-22 22 -50 34q-26 10 -58 10t-58 -10q-26 -12 -48 -34q-22 -20 -32 -48q-10 -26 -10 -58z" />
<glyph unicode=";" horiz-adv-x="582" d="M102 -170v-82q44 4 82 12t70 20q30 14 56 32q26 20 46 40q20 22 36 46q14 26 24 52q8 28 14 58q4 32 4 64q0 40 -10 72q-10 34 -28 60q-20 28 -48 42q-30 14 -68 14q-28 0 -52 -8q-26 -10 -44 -26q-20 -20 -30 -42q-8 -24 -8 -52t6 -48q6 -18 18 -32q12 -16 30 -26 q16 -10 38 -14h78q0 -36 -14 -68q-14 -30 -38 -52q-24 -24 -66 -38q-40 -16 -96 -24zM142 784q0 -32 10 -58t32 -48t48 -32q26 -12 58 -12t58 12q28 10 50 32q20 22 32 48q10 26 10 58t-10 58q-12 28 -32 48q-22 22 -50 34q-26 10 -58 10t-58 -10q-26 -12 -48 -34 q-22 -20 -32 -48q-10 -26 -10 -58z" />
<glyph unicode="&#x3c;" horiz-adv-x="846" d="M82 622q158 -96 634 -386v156q-102 60 -406 242q102 60 406 240v156q-158 -96 -634 -386v-22z" />
<glyph unicode="=" horiz-adv-x="1176" d="M140 432h896v126h-896v-126zM140 714h896v128h-896v-128z" />
<glyph unicode="&#x3e;" horiz-adv-x="846" d="M130 236q158 96 634 386v22q-158 96 -634 386v-156l408 -240q-102 -60 -408 -242v-156z" />
<glyph unicode="?" horiz-adv-x="898" d="M56 1192q0 -30 10 -56q10 -24 32 -42h164v76q0 44 10 80q10 34 32 60q20 26 54 38q36 14 84 14q50 0 88 -14t66 -40t42 -62q14 -34 14 -80q0 -28 -4 -52t-12 -44q-6 -20 -14 -40q-10 -18 -22 -32q-12 -18 -26 -32q-12 -16 -28 -30q-14 -14 -32 -28q-16 -14 -34 -30 q-46 -36 -76 -72q-32 -36 -50 -70q-18 -36 -28 -74q-8 -40 -8 -82q0 -28 4 -56q6 -26 18 -52q10 -28 20 -46t16 -30h60v64q0 46 10 84q8 38 28 66q18 28 48 58q28 28 72 60q56 38 100 82q46 42 80 90q34 44 50 98q18 54 18 118q0 86 -28 150q-30 64 -84 106q-56 44 -130 64 q-72 22 -162 22q-40 0 -76 -6q-38 -6 -72 -14q-34 -12 -66 -26q-30 -14 -56 -32t-46 -38q-20 -22 -36 -46t-24 -50q-6 -26 -6 -54zM256 130q0 -34 10 -60q12 -26 34 -48q20 -20 46 -32q28 -10 60 -10q30 0 58 10q26 12 48 32q22 22 32 48q12 26 12 60q0 30 -12 56 q-10 28 -32 50t-48 32q-28 10 -58 10q-32 0 -60 -10q-26 -10 -46 -32q-22 -22 -34 -50q-10 -26 -10 -56z" />
<glyph unicode="@" horiz-adv-x="1826" d="M102 508q0 -90 16 -170q16 -82 46 -156t74 -136q42 -60 98 -112t120 -92q66 -40 142 -68q76 -26 162 -40q84 -14 176 -14q86 0 168 12q84 12 162 36q78 26 142 58q64 34 114 78q-10 20 -30 62q-66 -40 -132 -68q-64 -30 -128 -48t-132 -26q-70 -8 -144 -8q-80 0 -152 12 t-136 36q-66 26 -124 60q-56 36 -104 82t-84 100q-38 54 -64 120q-26 62 -38 132q-12 72 -12 148q0 84 14 164t40 158q28 74 68 140t88 124q50 54 110 100q58 44 126 78q68 32 140 48q74 18 152 18q76 0 142 -12t126 -34q56 -22 104 -54q48 -30 88 -70q38 -40 68 -88 q28 -48 48 -104q18 -54 30 -116q10 -60 10 -124q0 -60 -8 -110q-8 -52 -22 -98t-34 -84q-18 -40 -42 -72q-24 -34 -50 -58t-56 -42q-28 -18 -58 -26t-60 -8q-18 0 -32 4t-24 14q-8 10 -14 22t-8 28q-4 14 -4 30t4 34q2 18 4 34q4 14 6 30l102 426q14 46 56 182h-76 q-24 -20 -96 -78q-36 32 -82 50q-46 16 -102 16q-46 0 -92 -14t-90 -40q-46 -26 -86 -60t-74 -76q-36 -44 -64 -94t-50 -106q-20 -54 -32 -112q-10 -58 -10 -116q0 -62 12 -110q12 -46 38 -78q28 -34 62 -50q36 -16 78 -16q24 0 50 6q24 6 50 22q26 14 50 34t48 46 q26 24 48 56q24 30 46 66q20 34 40 72l36 80h14q-14 -34 -20 -70q-6 -34 -10 -68q-2 -34 0 -66q4 -30 12 -58q10 -28 26 -50q14 -22 36 -40q22 -16 52 -24q32 -8 72 -8q44 0 88 10q44 8 88 28q42 20 82 50q40 28 72 68q34 36 62 82q26 46 48 100q20 52 32 112q10 62 10 130 q0 72 -12 142q-14 68 -38 132q-26 62 -64 116t-86 100q-50 46 -108 80q-58 36 -126 62q-68 24 -146 38q-76 14 -164 14q-94 0 -180 -18q-88 -20 -168 -54q-80 -38 -150 -86q-70 -50 -128 -112q-60 -60 -106 -132t-80 -156q-34 -82 -50 -172q-16 -88 -16 -180zM674 414 q0 40 6 84t18 92q12 46 30 90q16 44 40 84q22 40 48 74q28 34 60 62q32 26 66 38q36 14 74 14q18 0 36 -4t34 -14q14 -10 28 -24t24 -34q-18 -68 -38 -128q-22 -62 -46 -118q-24 -54 -48 -102q-26 -48 -50 -88q-26 -40 -52 -70q-26 -32 -50 -52q-26 -22 -50 -32 q-22 -12 -44 -12q-44 0 -64 34q-22 36 -22 106z" />
<glyph unicode="A" horiz-adv-x="1480" d="M10 0h458v80q-52 2 -90 8t-58 14q-22 10 -32 26q-12 18 -12 42q0 8 2 16l4 20q4 12 8 22q2 12 10 24q30 74 90 224h604q24 -58 96 -226l8 -24l8 -20l4 -20q2 -8 2 -18q0 -24 -10 -40q-12 -16 -32 -26q-22 -8 -60 -14q-36 -6 -88 -8v-80h548v80q-22 2 -42 8q-18 4 -34 12 q-14 6 -26 20t-20 36q-188 434 -564 1300h-226q14 -34 62 -136q-120 -290 -484 -1164q-10 -22 -22 -36q-14 -14 -30 -20q-16 -8 -36 -12q-18 -6 -38 -8v-14v-66zM426 566q66 160 260 640q68 -160 270 -640h-530z" />
<glyph unicode="B" horiz-adv-x="1356" d="M70 0h668q60 0 118 6q56 6 104 20q50 14 92 34q40 20 74 46t60 56q24 30 42 66q20 34 28 74q10 40 10 84q0 76 -28 138t-82 108q-56 46 -138 74q-80 28 -184 38q34 6 66 14q34 10 66 22t62 28q28 16 54 36q24 20 44 44t36 54q14 28 22 62t8 74q0 88 -32 156t-98 114 q-64 44 -156 66q-92 24 -212 24h-624v-80q24 -2 46 -4q24 -2 44 -4q18 -4 34 -10q18 -6 32 -12q12 -8 22 -20q10 -10 16 -24q6 -16 10 -34t4 -42v-978q0 -26 -4 -44t-10 -32q-6 -16 -16 -26q-10 -12 -22 -20q-14 -8 -32 -12q-16 -4 -34 -8q-20 -4 -44 -6q-22 -2 -46 -2v-80z M476 230v458h204q50 0 92 -6t78 -18t64 -28q30 -16 50 -36q22 -22 38 -44q16 -24 26 -52t14 -58q6 -30 6 -60q0 -76 -20 -132q-22 -54 -62 -90q-40 -38 -104 -54q-64 -18 -154 -18h-26q-56 0 -96 6t-64 20t-36 40q-10 28 -10 72zM476 780v564h158q46 0 84 -6t70 -18 q32 -10 60 -24q26 -14 46 -32q22 -18 38 -40t24 -46q10 -24 16 -50q4 -24 4 -50q0 -78 -20 -134q-22 -56 -64 -92q-40 -36 -106 -54q-64 -18 -152 -18h-158z" />
<glyph unicode="C" horiz-adv-x="1378" d="M88 688q0 -76 12 -148q10 -72 36 -136q24 -66 58 -122t78 -102q44 -48 96 -84q54 -38 118 -64q60 -26 130 -40q70 -12 146 -12q40 0 76 2q38 2 72 6q32 2 62 8q32 6 60 14q28 6 54 16q28 8 52 20q26 10 50 22l52 24q14 116 46 348h-76q-30 -88 -70 -156q-38 -68 -86 -112 q-46 -44 -108 -66t-140 -22q-62 0 -118 12q-54 14 -100 40q-46 24 -86 58q-40 36 -70 80t-54 98q-24 52 -40 114q-16 60 -24 124q-6 64 -6 136q0 60 6 120t20 114q14 56 36 104q20 48 50 90q30 40 66 74q38 32 84 56q44 26 98 38q52 12 114 12q70 0 130 -20t110 -60t84 -104 q36 -66 58 -154h72v314q-36 26 -80 50q-42 22 -96 42q-52 18 -118 26q-68 10 -148 10q-74 0 -142 -14q-70 -12 -134 -40q-64 -26 -120 -66q-58 -38 -106 -86q-46 -50 -84 -110q-36 -62 -64 -132t-42 -152q-14 -80 -14 -170z" />
<glyph unicode="D" horiz-adv-x="1546" d="M70 0h660q72 0 144 12q70 12 138 38q66 24 124 60t108 84q48 48 88 108t68 130t44 154q14 82 14 174q0 66 -12 130t-32 126q-22 62 -56 116q-34 52 -80 98t-106 84t-132 66t-158 42q-86 16 -184 16h-628v-80q24 -2 46 -4q24 -2 44 -4q18 -4 34 -10q18 -6 32 -12 q12 -8 22 -20q10 -10 16 -24q6 -16 10 -34t4 -42v-978q0 -26 -4 -44t-10 -32q-6 -16 -16 -26q-10 -12 -22 -20q-14 -8 -32 -12q-16 -4 -34 -8q-20 -4 -44 -6q-22 -2 -46 -2v-24v-56zM476 240v334v770h184q78 0 146 -14q66 -14 122 -40q56 -28 100 -62q44 -36 78 -80t60 -94 q24 -50 40 -108q16 -56 24 -114q10 -58 10 -118q0 -152 -36 -268q-34 -116 -102 -194q-68 -80 -162 -118q-92 -40 -210 -40h-46q-56 0 -96 6q-40 8 -64 20q-24 14 -36 44t-12 76z" />
<glyph unicode="E" horiz-adv-x="1372" d="M70 0h1158q16 92 62 368h-58q-24 -40 -44 -72q-22 -34 -40 -60q-18 -28 -34 -50q-18 -22 -36 -36q-20 -16 -40 -26q-20 -12 -40 -18q-22 -6 -50 -8q-28 -4 -62 -4h-204q-56 0 -96 6q-40 8 -64 20q-24 14 -36 42q-10 28 -10 72v454h348q34 0 58 -12t40 -34q14 -24 28 -58 q12 -34 20 -80h70v462h-70q-8 -46 -20 -80q-14 -36 -28 -58q-16 -24 -40 -34q-24 -12 -58 -12h-348v562h390q32 0 58 -4t46 -10q22 -6 42 -18q20 -10 36 -26q18 -16 32 -34q16 -18 28 -42l26 -52t30 -62h54v342h-1148v-80q24 -2 46 -4q24 -2 44 -4q18 -4 34 -10 q18 -6 32 -12q12 -8 22 -20q10 -10 16 -24q6 -16 10 -34t4 -42v-978q0 -26 -4 -44t-10 -32q-6 -16 -16 -26q-10 -12 -22 -20q-14 -8 -32 -12q-16 -4 -34 -8q-20 -4 -44 -6q-22 -2 -46 -2v-24v-56z" />
<glyph unicode="F" horiz-adv-x="1244" d="M70 0h670v80q-32 0 -60 2q-26 2 -52 6q-24 4 -46 10q-20 4 -38 12q-16 8 -28 20q-14 10 -22 24q-10 14 -14 32t-4 44v428h310q34 0 60 -12q24 -12 40 -36q16 -22 28 -56t22 -80h68v462h-68q-10 -46 -22 -82q-12 -34 -28 -58q-16 -22 -40 -34q-26 -10 -60 -10h-310v592 h356q30 0 56 -4q26 -6 48 -12q22 -8 40 -20t36 -28q16 -16 32 -38q16 -20 30 -44l26 -52t28 -62h54v354h-1112v-80q24 -2 46 -4q24 -2 44 -4q18 -4 34 -10q18 -6 32 -12q12 -8 22 -20q10 -10 16 -24q6 -16 10 -34t4 -42v-978q0 -26 -4 -44t-10 -32q-6 -16 -16 -26 q-10 -12 -22 -20q-14 -8 -32 -12q-16 -4 -34 -8q-20 -4 -44 -6q-22 -2 -46 -2v-24v-56z" />
<glyph unicode="G" horiz-adv-x="1506" d="M88 688q0 -78 12 -150t38 -136q24 -66 58 -122t80 -102q46 -48 100 -84q56 -38 120 -64t138 -38t154 -12q74 0 142 8q68 10 128 30q62 18 118 46q54 28 104 62v334q0 22 2 40q2 20 8 34q4 14 12 26q8 10 22 20q10 8 24 14t32 8q18 4 38 4q22 2 46 4v78h-576v-78 q50 -2 88 -10q36 -8 62 -20q24 -14 38 -44t14 -76v-286q-28 -26 -58 -44q-32 -18 -64 -28q-32 -8 -72 -14q-40 -4 -90 -4q-62 0 -118 12q-54 14 -100 40q-46 24 -86 58q-40 36 -70 80t-54 98q-24 52 -40 114q-16 60 -24 124q-6 64 -6 136q0 60 6 120t22 114q16 56 38 104 t52 90q30 40 68 74q38 32 84 56q46 26 100 38t114 12q72 0 132 -20q62 -20 114 -60t88 -104q36 -66 58 -154h74v314q-38 26 -82 50q-46 22 -100 42q-56 18 -124 26q-68 10 -148 10q-72 0 -144 -14q-70 -12 -134 -40q-66 -26 -122 -66q-58 -38 -108 -86q-48 -50 -86 -110 q-38 -62 -66 -132t-42 -152q-14 -80 -14 -170z" />
<glyph unicode="H" horiz-adv-x="1710" d="M70 0h614v80q-24 0 -48 2q-22 2 -40 6q-20 4 -36 8q-18 4 -30 12q-14 8 -24 20q-10 10 -16 26q-8 14 -12 32q-2 18 -2 44v458h758v-458q0 -26 -4 -44t-10 -32q-8 -16 -18 -26q-10 -12 -22 -20q-14 -8 -30 -12l-36 -8q-20 -4 -42 -6t-46 -2v-80h614v80q-26 0 -48 2 q-24 2 -42 6q-20 4 -36 8t-30 12t-24 20q-10 10 -16 26q-6 14 -10 32q-2 18 -2 44v978q0 24 2 42q4 18 10 34q6 14 16 24q10 12 24 20q14 6 30 12t36 10q18 2 42 4q22 2 48 4v80h-614v-80q24 -2 46 -4t42 -4q18 -4 36 -10q16 -6 30 -12q12 -8 22 -20q10 -10 18 -24 q6 -16 10 -34t4 -42v-426h-758v426q0 24 2 42q4 18 12 34q6 14 16 24q10 12 24 20q12 6 30 12q16 6 36 10q18 2 40 4l48 4v80h-614v-80q24 -2 46 -4q24 -2 44 -4q18 -4 34 -10q18 -6 32 -12q12 -8 22 -20q10 -10 16 -24q6 -16 10 -34t4 -42v-978q0 -26 -4 -44t-10 -32 q-6 -16 -16 -26q-10 -12 -22 -20q-14 -8 -32 -12q-16 -4 -34 -8q-20 -4 -44 -6q-22 -2 -46 -2v-24v-56z" />
<glyph unicode="I" horiz-adv-x="754" d="M70 0h614v80q-26 0 -48 2q-24 2 -42 6q-20 4 -36 8q-18 4 -30 12q-14 8 -24 20q-10 10 -16 26q-6 14 -10 32q-2 18 -2 44v978q0 24 2 42q4 18 10 34q6 14 16 24q10 12 24 20q12 6 30 12q16 6 36 10q18 2 42 4q22 2 48 4v80h-614v-80q24 -2 46 -4q24 -2 44 -4 q18 -4 34 -10q18 -6 32 -12q12 -8 22 -20q10 -10 16 -24q6 -16 10 -34t4 -42v-978q0 -26 -4 -44t-10 -32q-6 -16 -16 -26q-10 -12 -22 -20q-14 -8 -32 -12q-16 -4 -34 -8q-20 -4 -44 -6q-22 -2 -46 -2v-24v-56z" />
<glyph unicode="J" horiz-adv-x="1064" d="M20 236q0 -58 26 -106t78 -80q54 -34 124 -52q72 -16 162 -16q98 0 176 26t132 78q56 52 84 132q28 82 28 192v798q0 24 2 42q4 18 10 34q6 14 16 24q10 12 24 20q12 6 30 12q16 6 36 10q18 2 42 4q22 2 48 4v80h-614v-80l48 -4q22 -2 40 -4q18 -4 36 -10q16 -6 30 -12 q12 -8 22 -20q10 -10 16 -24q6 -16 10 -34t4 -42v-832q0 -86 -14 -146q-16 -58 -44 -92q-30 -34 -66 -52q-38 -16 -84 -16q-44 0 -82 12q-36 12 -64 36q-28 26 -40 64q-14 40 -14 92v92h-146q-12 -10 -22 -24t-18 -30q-8 -20 -12 -38t-4 -38z" />
<glyph unicode="K" horiz-adv-x="1462" d="M70 0h614v80q-24 0 -48 2q-22 2 -40 6q-20 4 -36 8q-18 4 -30 12q-14 8 -24 20q-10 10 -16 26q-6 14 -10 32q-2 18 -2 44v978q0 24 2 42q4 18 10 34q6 14 16 24q10 12 24 20q12 6 30 12q16 6 36 10q18 2 40 4l48 4v80h-614v-80q24 -2 46 -4q24 -2 44 -4q18 -4 34 -10 q18 -6 32 -12q12 -8 22 -20q10 -10 16 -24q6 -16 10 -34t4 -42v-978q0 -26 -4 -44t-10 -32q-6 -16 -16 -26q-10 -12 -22 -20q-14 -8 -32 -12q-16 -4 -34 -8q-20 -4 -44 -6q-22 -2 -46 -2v-24v-56zM498 732q118 -140 476 -554q30 -34 56 -60t50 -48q22 -22 46 -40 q26 -16 52 -30h276v80q-18 0 -34 2q-16 4 -30 8t-30 10q-14 6 -28 14q-16 10 -32 22q-18 10 -34 26q-18 16 -36 36t-40 44l-488 544q122 118 488 468q24 24 50 42t52 32q24 12 56 20q30 6 68 10v80h-524v-80q28 -4 48 -6q22 0 36 -2q16 -4 28 -6t22 -4q10 -4 16 -8t8 -8 q4 -6 6 -12v-12q0 -12 -4 -22t-10 -18q-8 -10 -14 -18q-8 -10 -16 -18q-172 -164 -514 -492z" />
<glyph unicode="L" horiz-adv-x="1258" d="M70 0h1072q18 100 66 400h-66q-20 -40 -40 -76q-20 -34 -34 -62q-18 -30 -36 -54q-16 -24 -34 -42q-20 -18 -40 -32q-22 -14 -42 -24q-24 -8 -52 -12t-62 -4h-118q-56 0 -96 6q-40 8 -64 20q-24 14 -36 42q-10 28 -10 72v974q0 24 2 42q4 18 10 34q6 14 16 24 q10 12 24 20q12 6 30 12q16 6 36 10q18 2 40 4l48 4v80h-614v-80q24 -2 46 -4q24 -2 44 -4q18 -4 34 -10q18 -6 32 -12q12 -8 22 -20q10 -10 16 -24q6 -16 10 -34t4 -42v-978q0 -26 -4 -44t-10 -32q-6 -16 -16 -26q-10 -12 -22 -20q-14 -8 -32 -12q-16 -4 -34 -8 q-20 -4 -44 -6q-22 -2 -46 -2v-24v-56z" />
<glyph unicode="M" horiz-adv-x="1906" d="M30 0h484v80q-56 2 -92 8q-38 8 -60 20t-32 38t-10 64v8v14v16l4 12q36 292 108 878q114 -284 458 -1138h70q108 284 432 1132l112 -872v-12q2 -8 2 -16v-14q2 -6 2 -8q0 -38 -12 -64q-10 -26 -32 -38t-60 -20q-38 -6 -92 -8v-80h564v80q-44 2 -74 8t-48 18 q-20 12 -32 36t-16 60q-44 336 -130 1006q0 20 2 38q2 16 8 30q2 14 10 24q6 12 16 20q8 10 22 16t32 12q14 2 36 6q20 2 46 4v80h-362q-2 -18 -6 -34q-2 -14 -6 -26t-10 -26q-4 -14 -10 -28q-128 -344 -386 -1030q-100 258 -404 1030q-8 14 -14 28q-4 14 -8 26q-2 12 -6 26 q-2 16 -4 34h-374v-80q50 -4 84 -12q34 -10 52 -26q20 -14 28 -44q10 -28 10 -68q-44 -334 -130 -1006q-6 -36 -16 -60q-12 -24 -30 -36t-50 -18q-32 -8 -76 -8v-80z" />
<glyph unicode="N" horiz-adv-x="1650" d="M70 0h536v80q-26 0 -48 2q-24 2 -42 6q-20 4 -36 8q-18 4 -30 12q-14 8 -24 20q-10 10 -16 26q-6 14 -10 32q-2 18 -2 44v906q226 -284 908 -1136h84v1208q0 24 4 42q2 18 8 34q8 14 18 24q10 12 24 20q12 6 28 12q18 6 38 10q18 2 40 4q24 2 50 4v80h-538v-80 q26 -2 48 -4q24 -2 44 -4q18 -4 34 -10t30 -12q12 -8 24 -20q10 -10 16 -24q6 -16 10 -34t4 -42v-850q-214 270 -852 1080h-350v-80q18 0 34 -2q16 -4 30 -6q12 -4 24 -10t22 -12q10 -8 22 -18q10 -10 24 -22q10 -12 24 -26t28 -34v-998q0 -26 -4 -44t-10 -32 q-6 -16 -16 -26q-10 -12 -22 -20q-14 -8 -32 -12q-16 -4 -34 -8q-20 -4 -44 -6q-22 -2 -46 -2v-24v-56z" />
<glyph unicode="O" horiz-adv-x="1532" d="M88 690q0 -72 12 -140q10 -68 34 -132q20 -64 54 -122q34 -56 76 -106q44 -48 96 -88q52 -38 116 -66q60 -28 132 -42t152 -14q68 0 134 12q68 14 130 40q62 28 116 66q56 40 102 88q46 50 82 110q36 62 64 132t42 150t14 170q0 70 -12 138q-12 70 -34 134t-54 120 q-34 56 -76 106q-44 48 -96 86q-54 40 -116 68t-134 44q-70 14 -150 14q-70 0 -136 -14t-128 -42q-64 -26 -118 -66q-56 -38 -102 -86q-46 -50 -82 -110q-38 -62 -64 -132q-28 -72 -42 -150q-12 -80 -12 -168zM308 724q0 66 6 126q6 62 20 118q14 58 34 106q20 50 48 92 q28 40 62 74q34 32 74 56t88 38q48 12 104 12q62 0 116 -14t100 -42t84 -64q36 -36 66 -82q30 -44 50 -94q22 -52 36 -108t22 -114q6 -56 6 -116q0 -66 -6 -126q-8 -62 -22 -120q-14 -56 -34 -106q-20 -48 -48 -90t-62 -74t-74 -56q-40 -26 -88 -36q-48 -12 -102 -12 q-64 0 -118 14t-100 42t-84 62q-36 36 -66 80q-30 46 -50 96q-22 50 -36 108q-14 56 -20 114t-6 116z" />
<glyph unicode="P" horiz-adv-x="1256" d="M70 0h670v80q-32 0 -60 2q-26 2 -52 6q-24 4 -46 10q-20 4 -38 12q-16 8 -28 20q-14 10 -22 24q-10 14 -14 32q-2 18 -2 44v358h236q66 0 122 8t104 24q46 18 86 40q38 24 70 52q30 30 52 64t38 74q16 38 22 80q8 42 8 88q0 40 -6 78q-8 40 -22 78q-16 36 -38 70 q-24 34 -54 62q-32 30 -74 54q-42 22 -92 40q-52 20 -114 28q-62 10 -136 10h-610v-80q24 -2 46 -4q24 -2 44 -4q18 -4 34 -10q18 -6 32 -12q12 -8 22 -20q10 -10 16 -24q6 -16 10 -34t4 -42v-978q0 -26 -4 -44t-10 -32q-6 -16 -16 -26q-10 -12 -22 -20q-14 -8 -32 -12 q-16 -4 -34 -8q-20 -4 -44 -6q-22 -2 -46 -2v-24v-56zM478 682v662h160q48 0 88 -6t74 -20q34 -12 62 -30t50 -38q20 -24 38 -50q16 -26 26 -58q10 -30 16 -62q6 -34 6 -70q0 -86 -22 -148t-62 -102q-44 -40 -112 -60q-68 -18 -164 -18h-160z" />
<glyph unicode="Q" horiz-adv-x="1532" d="M88 690q0 -72 12 -140q10 -68 34 -132q20 -64 54 -122q34 -56 76 -106q44 -48 96 -88q52 -38 116 -66q52 -24 114 -38t130 -16q46 -64 136 -190q30 -44 66 -76t76 -52t88 -30q48 -8 104 -8h28q18 2 38 6q18 2 36 6t36 10v38q-44 6 -86 24q-40 20 -80 54t-86 78 q-44 46 -96 100q-16 20 -52 58q24 6 48 14t48 18q62 28 116 66q56 40 102 88q46 50 82 110q36 62 64 132t42 150t14 170q0 70 -12 138q-12 70 -34 134t-54 120q-34 56 -76 106q-44 48 -96 86q-54 40 -116 68t-134 44q-70 14 -150 14q-70 0 -136 -14t-128 -42 q-64 -26 -118 -66q-56 -38 -102 -86q-46 -50 -82 -110q-38 -62 -64 -132q-28 -72 -42 -150q-12 -80 -12 -168zM308 724q0 66 6 126q6 62 20 118q14 58 34 106q20 50 48 92q28 40 62 74q34 32 74 56t88 38q48 12 104 12q62 0 116 -14t100 -42t84 -64q36 -36 66 -82 q30 -44 50 -94q22 -52 36 -108t22 -114q6 -56 6 -116q0 -66 -6 -126q-8 -62 -22 -120q-14 -56 -34 -106q-20 -48 -48 -90t-62 -74t-74 -56q-40 -26 -88 -36q-48 -12 -102 -12q-64 0 -118 14t-100 42t-84 62q-36 36 -66 80q-30 46 -50 96q-22 50 -36 108q-14 56 -20 114 t-6 116z" />
<glyph unicode="R" horiz-adv-x="1442" d="M70 0h612v80q-24 0 -48 2q-22 2 -40 6q-20 4 -36 8q-18 4 -30 12q-14 8 -24 20q-10 10 -16 26q-6 14 -10 32q-2 18 -2 44v396h108q86 -110 346 -446q24 -34 48 -60q22 -26 42 -46q18 -20 42 -38q24 -20 54 -36h294v80q-44 2 -82 12q-36 10 -68 30q-34 20 -62 46t-54 58 q-114 142 -344 428q38 2 74 10q34 8 70 24q36 14 68 32q32 20 60 44q26 22 48 52q22 28 42 62q16 34 26 74q8 40 8 82q0 44 -8 84q-8 42 -22 78q-16 36 -40 70q-24 32 -56 60q-34 26 -74 46t-88 34q-50 16 -110 24q-58 8 -126 8h-602v-80q24 -2 46 -4q24 -2 44 -4 q18 -4 34 -10q18 -6 32 -12q12 -8 22 -20q10 -10 16 -24q6 -16 10 -34t4 -42v-978q0 -26 -4 -44t-10 -32q-6 -16 -16 -26q-10 -12 -22 -20q-14 -8 -32 -12q-16 -4 -34 -8q-20 -4 -44 -6q-22 -2 -46 -2v-24v-56zM476 716v628h134q50 0 92 -6q40 -6 76 -20q34 -12 62 -28 q30 -16 50 -36q22 -22 40 -46q16 -26 26 -52q12 -28 18 -60q4 -30 4 -62q0 -160 -90 -238q-90 -80 -270 -80h-142z" />
<glyph unicode="S" horiz-adv-x="1138" d="M82 456q4 -84 14 -336q34 -28 80 -54q46 -24 104 -46t124 -30q64 -10 138 -10q52 0 100 6t94 20q46 12 86 32t72 46q34 24 62 56t48 70t30 82t10 94q0 42 -6 80q-8 36 -20 68q-14 32 -34 62t-48 56q-28 24 -62 48q-36 24 -78 46q-42 20 -92 42q-48 20 -104 42 q-50 16 -90 32q-38 18 -70 32q-30 16 -54 32q-26 18 -44 34q-18 18 -32 36t-20 38q-6 18 -10 42q-4 22 -4 50q0 50 16 90t50 74q32 32 82 50q48 16 112 16q74 0 136 -24q60 -24 106 -72t78 -110q30 -60 50 -134h66v314q-42 26 -90 50q-48 22 -102 42q-56 18 -114 26 q-58 10 -120 10q-54 0 -102 -8t-90 -22q-42 -16 -76 -36q-36 -20 -62 -46q-30 -26 -52 -58q-22 -30 -38 -64q-14 -34 -22 -72q-6 -38 -6 -78q0 -44 6 -82q8 -38 20 -70q14 -32 34 -60q22 -28 48 -54q26 -24 60 -46q32 -24 72 -44q38 -20 84 -38q44 -18 96 -36q46 -20 86 -36 q38 -16 72 -30q32 -16 58 -32q26 -18 46 -34q20 -18 36 -38q14 -18 24 -38q8 -20 14 -42q4 -24 4 -50q0 -64 -20 -112q-22 -48 -62 -82q-42 -34 -98 -52q-56 -16 -130 -16q-40 0 -74 6q-36 8 -66 22q-32 14 -60 34t-54 44q-24 24 -44 56q-20 30 -40 64q-18 32 -32 70t-24 78 h-72z" />
<glyph unicode="T" horiz-adv-x="1358" d="M30 1010h64q22 52 42 94q18 42 34 76q16 32 32 58t34 44q16 18 36 30q20 14 42 20q20 6 48 10t64 4h152v-1116q0 -26 -4 -44t-10 -32q-8 -16 -20 -26q-10 -12 -24 -20t-30 -12q-18 -4 -38 -8t-42 -6t-48 -2v-80h632v80q-26 0 -50 2q-22 2 -42 6q-22 4 -40 8q-16 4 -30 12 t-24 20q-12 10 -18 26q-8 14 -10 32q-4 18 -4 44v1116h156q34 0 62 -4t50 -10t40 -20q20 -12 36 -30q18 -18 34 -44t32 -58q16 -34 34 -76t42 -94h66q-10 106 -34 428h-1232q-8 -108 -32 -428z" />
<glyph unicode="U" horiz-adv-x="1568" d="M16 1358l48 -4q22 -2 42 -4q18 -4 36 -10q16 -6 30 -12q12 -8 22 -20q10 -10 16 -24q8 -16 12 -34t4 -42v-722q0 -66 10 -122q8 -56 30 -104q20 -48 50 -88q28 -38 64 -70q38 -30 82 -54q44 -22 98 -38q52 -16 110 -22q60 -6 124 -6q56 0 108 8q52 6 102 22q48 16 92 38 q46 24 84 54q36 32 66 70q32 38 54 86q22 46 34 102q12 54 12 120v726q0 24 2 42q4 18 10 34q6 14 16 24q10 12 22 20q14 6 30 12t36 10q18 2 42 4q22 2 48 4v80h-534v-80l48 -4q22 -2 42 -4q18 -4 36 -10q16 -6 30 -12q12 -8 22 -20q10 -10 16 -24q6 -16 10 -34t4 -42v-688 q0 -110 -26 -190q-28 -80 -84 -128q-56 -46 -134 -70q-80 -24 -184 -24q-88 0 -158 26q-68 24 -118 74q-48 52 -74 126q-24 74 -24 170v704q0 24 4 42q2 18 8 34q6 14 16 24q10 12 24 20q12 6 28 12t36 10q20 2 42 4t48 4v80h-614v-10v-70z" />
<glyph unicode="V" horiz-adv-x="1462" d="M10 1358q22 -4 40 -8q18 -6 34 -12q16 -8 28 -22q14 -14 24 -34q196 -434 586 -1300h62q136 324 544 1300q8 20 20 34t28 22q16 6 34 12q18 4 42 8v80h-464v-80q52 -4 90 -10t58 -14q22 -10 32 -26q12 -18 12 -40q0 -10 -2 -20l-4 -20l-8 -20q-4 -12 -8 -22 q-92 -228 -364 -914q-100 230 -404 916q-8 12 -10 22q-4 12 -8 20l-4 20t-2 20q0 22 10 40q10 16 32 26q22 8 58 14q38 4 92 8v80h-548v-6v-74z" />
<glyph unicode="W" horiz-adv-x="1968" d="M10 1358q20 -4 38 -8q20 -6 36 -12q16 -8 30 -22q12 -14 22 -34q160 -434 484 -1300h60q78 220 312 882q78 -220 312 -882h60q118 324 472 1300q6 22 18 36q14 16 30 22t34 10t40 8v80h-446v-80q54 -4 90 -10q38 -6 58 -14q22 -10 34 -26q10 -18 10 -40q0 -10 -2 -20 q-4 -10 -6 -20l-8 -20q-4 -12 -6 -22q-78 -220 -312 -882q-74 220 -294 884q-6 10 -8 22l-8 20l-4 20t-2 20q0 22 10 40q10 16 32 26q22 8 58 14q38 4 94 8v80h-526v-80l40 -8q18 -4 34 -10q18 -6 30 -20t22 -38q30 -90 92 -270q-60 -178 -242 -708q-78 220 -312 884 q-6 10 -8 22l-8 20l-4 20t-2 20q0 22 10 40q10 16 32 26q22 8 58 14q38 4 92 8v80h-546v-6v-74z" />
<glyph unicode="X" horiz-adv-x="1456" d="M10 0h512v80h-56q-26 0 -44 4q-18 2 -32 4q-14 4 -24 8q-8 4 -14 8q-6 6 -10 12t-4 14v16q0 12 4 26q2 12 10 26q8 12 18 28q10 14 24 30l300 378q70 -96 278 -384q12 -16 22 -30q8 -14 18 -28q8 -14 12 -26t4 -22t-2 -16q0 -8 -4 -14l-8 -12q-6 -4 -14 -8q-10 -4 -24 -8 q-14 -2 -32 -4t-42 -2h-54v-80h598v80q-32 0 -58 4q-28 6 -48 18q-22 12 -44 32q-20 20 -40 48q-142 192 -422 574q98 124 392 500q24 30 46 50q20 20 40 32q20 8 46 14t58 6v80h-512v-80q28 0 52 -2q22 0 42 -2q18 -2 32 -4q14 -4 24 -6q10 -4 18 -8q6 -4 10 -10 q2 -8 4 -14q2 -8 2 -16q0 -14 -4 -28q-6 -14 -12 -26q-10 -16 -20 -30t-20 -30q-88 -112 -266 -336l-240 336q-12 16 -22 30t-18 30q-10 12 -14 26t-4 28q0 8 2 16q2 6 6 14q2 6 8 10q8 4 18 8q8 2 22 6q14 2 34 4q18 2 42 2q22 2 54 2v80h-604v-80q30 0 56 -6t48 -16 q22 -12 42 -32t42 -48q130 -178 390 -532q-106 -134 -430 -542q-24 -30 -46 -52q-22 -20 -42 -30t-44 -16q-26 -4 -56 -4v-14v-66z" />
<glyph unicode="Y" horiz-adv-x="1358" d="M10 1358q22 -4 40 -8l32 -12q14 -8 28 -22q12 -14 26 -34q146 -234 440 -704v-348q0 -26 -4 -44t-10 -32q-6 -16 -18 -26q-10 -12 -22 -20q-14 -8 -30 -12t-36 -8t-42 -6t-48 -2v-80h610v80q-24 0 -46 2t-42 6t-36 8t-28 12q-14 8 -26 20q-10 10 -16 26q-6 14 -8 32 q-4 18 -4 44v350q114 176 452 702q12 20 26 34q12 14 26 22q14 6 32 12q18 4 42 8v80h-462v-80q54 -4 90 -8t56 -12t30 -22q12 -14 12 -34q0 -12 -4 -24q-2 -12 -8 -24q-4 -10 -10 -22t-14 -24q-80 -126 -322 -504l-312 504q-10 12 -16 24t-12 22q-6 12 -8 24t-2 24 q0 20 10 34t30 22t56 12q38 4 90 8v80h-542v-6v-74z" />
<glyph unicode="Z" horiz-adv-x="1270" d="M52 0h1102q16 102 66 406h-66q-22 -40 -42 -76q-20 -34 -34 -64q-18 -28 -34 -54q-18 -24 -36 -42t-40 -32q-20 -14 -42 -24q-24 -8 -52 -14q-28 -4 -60 -4h-496q216 322 868 1288v54h-1068v-380h60q18 40 34 74t30 62q12 28 26 50q14 20 28 36q16 16 34 28q16 10 36 18 q20 6 46 10t56 4h458q-218 -322 -874 -1288v-52z" />
<glyph unicode="[" horiz-adv-x="638" d="M174 -288h372v64q-30 2 -58 4q-26 2 -48 4t-40 6q-18 6 -32 12t-24 14t-16 20q-6 10 -10 26q-2 16 -2 38v1488q0 18 2 34q4 16 10 28t16 22q10 8 24 14t32 10t40 8q22 0 48 2q28 2 58 6v64h-372v-232v-1632z" />
<glyph unicode="\" horiz-adv-x="814" d="M78 1576q142 -466 570 -1864h126q-142 466 -570 1864h-126z" />
<glyph unicode="]" horiz-adv-x="638" d="M92 -224v-64h372v1864h-372v-64q30 -4 56 -6q28 -2 48 -2q22 -4 40 -8t32 -10t24 -14q12 -10 18 -22t10 -28t4 -34v-1488q0 -22 -4 -38t-10 -26q-6 -12 -18 -20q-10 -8 -24 -14t-32 -12q-18 -4 -40 -6q-20 -2 -48 -4q-26 -2 -56 -4z" />
<glyph unicode="^" horiz-adv-x="946" d="M82 984h138q62 120 254 480q62 -120 254 -480h136q-80 148 -318 592h-146q-80 -148 -318 -592z" />
<glyph unicode="_" horiz-adv-x="902" d="M40 -136v-110h820v110h-820z" />
<glyph unicode="`" horiz-adv-x="1024" d="M318 1558q76 -86 308 -346h80q-38 86 -150 346h-238z" />
<glyph unicode="a" horiz-adv-x="1096" d="M92 256q0 -28 4 -54q4 -28 12 -52q8 -26 20 -48t30 -40q16 -18 38 -34t48 -26q24 -12 54 -18q32 -4 66 -4q28 0 56 4q26 2 52 12l48 20q24 12 46 24l40 28q18 16 38 32q16 18 32 34t30 32q6 -44 20 -76q14 -34 36 -60q20 -26 50 -38q28 -12 68 -12q26 0 52 4q26 6 52 18 q24 10 48 30q26 18 54 46q-4 16 -10 48q-14 -2 -26 -4q-12 -4 -28 -6q-16 0 -26 -2h-18q-46 0 -70 34q-24 36 -24 106v42v64q0 38 2 76v78t2 78v74q0 34 2 60v36q0 82 -22 148q-22 64 -66 108q-44 42 -110 66q-66 22 -156 22q-42 0 -82 -4q-38 -6 -74 -14q-34 -10 -66 -24 q-30 -12 -56 -30q-26 -16 -46 -36q-20 -22 -36 -46t-22 -52q-6 -30 -6 -60q0 -18 2 -36q2 -16 8 -28q4 -12 12 -24t20 -22q52 6 154 20q-8 28 -10 54q-4 28 -4 52q0 76 42 114t126 38q28 0 54 -4q24 -6 44 -14q18 -10 34 -24q16 -12 28 -28t20 -36q8 -18 12 -40t8 -42 q2 -22 2 -44v-100q-80 -30 -324 -116q-24 -10 -50 -20q-24 -12 -50 -22q-26 -12 -48 -26q-24 -14 -44 -32q-22 -18 -38 -38t-30 -46q-12 -24 -18 -54t-6 -66zM284 306q0 28 8 54q8 24 26 46q16 22 40 36q22 16 52 30q96 36 290 110v-366q-34 -26 -64 -42q-30 -18 -58 -28 q-30 -12 -62 -18t-68 -6q-40 0 -70 12q-28 12 -50 36t-32 56q-12 34 -12 80z" />
<glyph unicode="b" horiz-adv-x="1214" d="M20 1414q38 -18 150 -72v-1226q30 -26 74 -50t100 -46t122 -30q66 -10 142 -10q54 0 104 10q52 12 100 32q46 22 88 52q42 32 78 72t64 88t50 104q20 56 30 122q10 64 10 134q0 52 -6 102q-8 50 -20 96q-14 46 -34 88t-48 76t-60 62q-34 26 -74 46t-86 32q-46 10 -98 10 q-56 0 -106 -12t-92 -38q-44 -24 -80 -56q-38 -32 -70 -72v630h-50q-72 -26 -288 -102v-42zM358 358v510q24 24 52 44q30 18 66 30q34 12 72 20q36 6 76 6q44 0 80 -10t66 -30t56 -46q24 -26 44 -58q18 -32 32 -70q14 -36 24 -78q8 -42 14 -84q4 -42 4 -84q0 -50 -6 -94 q-6 -46 -18 -86t-28 -76q-16 -34 -38 -62t-46 -48q-26 -22 -54 -38q-32 -14 -64 -22t-68 -8q-30 0 -56 4q-28 2 -52 10t-46 20t-38 30q-18 16 -32 38q-12 22 -22 50q-8 26 -12 60q-6 32 -6 72z" />
<glyph unicode="c" horiz-adv-x="1036" d="M82 508q0 -58 8 -112q8 -52 24 -102q18 -48 42 -90t54 -78q32 -34 68 -62q38 -28 80 -46q44 -20 92 -30q46 -8 98 -8q78 0 144 18t120 58q52 38 92 96q38 58 60 136q-12 8 -36 22q-30 -44 -64 -76q-32 -32 -70 -54q-36 -22 -80 -34q-46 -10 -98 -10q-42 0 -80 8 q-40 8 -74 24q-32 16 -62 38q-28 24 -52 54q-22 30 -40 64q-18 36 -30 78q-12 40 -18 86q-6 48 -6 98q0 42 6 84q4 42 16 80t30 72q16 34 38 60q22 28 46 50q26 24 56 38q30 16 64 24q32 10 70 10q48 0 84 -16q36 -14 56 -44q22 -30 34 -64q12 -36 12 -80v-68h104 q18 6 32 18q14 10 26 24q12 12 18 32t6 48q0 58 -22 104q-24 46 -70 80t-110 52q-62 16 -144 16q-60 0 -114 -12t-100 -38q-50 -24 -92 -56q-40 -32 -74 -72q-34 -42 -62 -90q-26 -46 -46 -100q-18 -56 -26 -114q-10 -56 -10 -116z" />
<glyph unicode="d" horiz-adv-x="1268" d="M82 492q0 -54 6 -104q8 -52 22 -98t36 -86q20 -42 48 -74q28 -36 64 -64q34 -28 74 -48t86 -30q48 -8 100 -8q56 0 106 12q48 12 88 36q40 26 76 58q36 34 68 76v-182h30l328 72v68q-12 2 -52 6q-38 4 -60 10q-24 6 -34 16q-14 8 -18 24q-6 18 -6 46v1336h-48 q-72 -26 -290 -102v-42q38 -18 150 -72v-348q-18 26 -46 46q-26 20 -60 36q-34 14 -72 22t-80 8q-56 0 -106 -10q-50 -12 -96 -34q-48 -20 -90 -52q-40 -30 -74 -70q-36 -40 -64 -88q-28 -50 -48 -106q-20 -58 -28 -120q-10 -64 -10 -134zM270 568q0 48 6 94q4 44 16 86 q14 40 30 74q14 36 36 64q22 30 46 54q26 22 56 38t62 26q34 8 70 8q60 0 108 -18t84 -52t54 -88t18 -126v-502q-24 -26 -54 -46q-30 -18 -64 -32q-36 -14 -72 -20q-38 -8 -76 -8q-42 0 -78 10q-34 10 -66 28q-30 18 -54 42q-26 26 -44 56q-20 30 -34 68q-16 36 -26 76 q-8 40 -14 82q-4 42 -4 86z" />
<glyph unicode="e" horiz-adv-x="1070" d="M82 508q0 -56 8 -108t22 -98q16 -50 40 -92t54 -76q32 -38 68 -66q38 -28 82 -48q44 -22 94 -30q50 -10 108 -10q86 0 156 22t126 66q54 42 92 100q36 56 56 124q-12 8 -36 20q-28 -40 -62 -72t-70 -56q-40 -24 -88 -36q-46 -12 -106 -12q-42 0 -82 8t-72 24 q-36 16 -66 38q-30 24 -54 54t-44 64q-20 36 -32 78q-12 40 -18 86q-6 48 -6 98h734v64t-8 94t-20 90q-14 42 -34 76q-18 36 -44 66q-26 32 -58 54q-32 24 -70 42q-40 16 -84 24q-46 10 -94 10q-54 0 -104 -10q-48 -12 -94 -34q-46 -20 -84 -52q-38 -30 -70 -70 q-34 -40 -60 -86q-24 -48 -44 -102q-18 -56 -26 -116q-10 -60 -10 -128zM260 684q4 30 10 62q6 30 18 58q12 30 26 56t32 48q18 20 40 38q22 20 46 32q24 14 52 20q28 8 58 8q64 0 112 -22q46 -24 80 -66q30 -44 46 -102t16 -132h-536z" />
<glyph unicode="f" horiz-adv-x="740" d="M82 0h544v72q-26 2 -52 6q-24 2 -42 6t-34 8q-14 4 -26 10q-14 6 -22 14t-12 20q-6 10 -8 26q-2 14 -2 34v780h270v110h-270v102q0 72 10 128q8 54 26 94q20 38 48 58q30 18 70 18q32 0 54 -8q22 -10 34 -28t18 -42t6 -52v-54h102q14 8 26 18q12 12 22 26q8 14 14 28 q4 16 4 36q0 38 -16 66q-18 30 -50 52q-32 20 -74 30t-94 10q-46 0 -88 -8t-80 -24q-36 -16 -66 -40q-30 -22 -54 -50q-24 -30 -44 -64t-32 -74t-18 -84t-6 -90v-36q-38 -14 -152 -54v-68h152v-788q0 -18 -4 -32q-2 -14 -8 -24q-6 -12 -16 -20q-8 -8 -18 -14t-22 -10 q-14 -4 -28 -6q-16 -4 -32 -6q-14 -2 -30 -4v-72z" />
<glyph unicode="g" horiz-adv-x="1114" d="M30 -170q0 -64 30 -114q30 -48 90 -78q58 -32 142 -46q84 -16 194 -16q64 0 124 6t114 20q56 14 104 34t88 46t70 56t52 66q22 34 34 74t12 84q0 66 -20 112t-58 74q-40 26 -94 40q-54 12 -124 12h-462q-38 0 -58 16q-18 16 -18 50q0 18 4 38q6 20 18 38q10 16 26 34 q14 18 38 42q10 -2 28 -8q38 -12 76 -18q40 -4 82 -4q46 0 88 6t80 18t72 30q32 18 60 44q26 22 46 50t36 62q14 32 22 70q8 36 8 78q0 40 -10 76q-12 36 -32 68t-46 58q-24 26 -54 46v10q54 -12 212 -48h76v140q-94 -6 -372 -26q-18 6 -40 14q-20 6 -44 12q-22 4 -46 8 q-26 2 -52 2q-46 0 -88 -8q-40 -6 -78 -18t-70 -32q-32 -18 -60 -42q-28 -26 -50 -54q-22 -30 -36 -64q-16 -32 -24 -72q-8 -38 -8 -80q0 -44 8 -82t26 -70q14 -32 38 -60q22 -28 50 -48q14 -12 28 -20q16 -10 30 -18q-34 -22 -66 -48q-30 -24 -56 -48q-34 -32 -50 -70 q-16 -36 -16 -80q0 -54 30 -92q28 -38 88 -56q-20 -10 -38 -20q-18 -8 -34 -18q-18 -10 -32 -20q-16 -10 -28 -22q-14 -14 -24 -28q-12 -14 -18 -30q-10 -18 -14 -36t-4 -40zM198 -106q0 16 4 34q2 16 8 34q8 14 16 30q10 18 26 32h160h340q40 0 72 -6t54 -16q22 -12 34 -36 q12 -26 12 -62q0 -28 -8 -52q-8 -26 -24 -46q-14 -22 -34 -40t-46 -34q-28 -16 -58 -26q-32 -12 -68 -18t-78 -10q-40 -4 -84 -4q-36 0 -70 4q-32 2 -60 8q-32 6 -56 16q-26 10 -48 22q-20 12 -38 28q-16 18 -28 40q-14 20 -20 46q-6 24 -6 56zM302 758q0 58 12 104 q12 48 38 84q24 38 64 56t92 18q28 0 54 -6t48 -16q22 -12 42 -28q18 -16 34 -36t28 -44q12 -22 22 -48l12 -56q4 -28 4 -56q0 -60 -14 -106q-14 -48 -40 -86q-26 -36 -64 -54q-40 -18 -92 -18q-30 0 -56 6t-48 18t-42 28q-18 14 -34 34q-14 20 -26 44t-20 50t-12 54 q-2 28 -2 58z" />
<glyph unicode="h" horiz-adv-x="1302" d="M66 0h506v72q-20 2 -34 4q-16 2 -30 6q-16 2 -28 6t-22 10t-18 14t-14 20q-6 10 -10 24q-2 14 -2 32v658q28 22 64 42t74 36q40 16 80 22q40 8 80 8q50 0 86 -12t58 -32q24 -22 36 -60t12 -94v-568q0 -18 -4 -32q-2 -14 -10 -24q-6 -12 -14 -20t-18 -14t-24 -10 q-12 -4 -28 -6q-14 -4 -30 -6t-30 -4v-72h506v72q-20 2 -34 4q-16 2 -30 6q-16 2 -28 6t-24 10q-10 6 -18 14t-14 20q-6 10 -10 24q-2 14 -2 32v582q0 90 -20 154t-56 104q-38 38 -92 58q-52 20 -120 20q-32 0 -60 -4q-30 -6 -58 -14q-28 -10 -54 -20q-26 -12 -50 -26 t-46 -30t-44 -36q-22 -18 -40 -34q-20 -18 -38 -36v652h-52q-72 -26 -286 -102v-42q38 -18 150 -72v-1154q0 -18 -4 -32q-2 -14 -10 -24q-6 -12 -14 -20q-10 -8 -20 -14t-22 -10q-14 -4 -26 -6q-16 -4 -32 -6l-32 -4v-72z" />
<glyph unicode="i" horiz-adv-x="658" d="M82 0h504v72q-18 2 -34 4t-30 6q-16 2 -28 6t-22 10q-12 6 -20 14t-14 20q-6 10 -8 24t-2 32v918h-52q-70 -26 -284 -102v-44q38 -18 148 -72v-700q0 -18 -4 -32q-2 -14 -8 -24q-6 -12 -16 -20q-8 -8 -18 -14t-22 -10q-14 -4 -28 -6q-16 -4 -32 -6q-14 -2 -30 -4v-72z M192 1388q0 -28 10 -54q10 -24 30 -44q18 -20 42 -30q24 -8 52 -8t50 8q24 10 44 30q18 20 28 44q10 26 10 54t-10 52t-28 44q-20 20 -44 32q-22 10 -50 10t-52 -10q-24 -12 -42 -32q-20 -20 -30 -44t-10 -52z" />
<glyph unicode="j" horiz-adv-x="552" d="M20 -374q12 -14 48 -52q42 30 82 62t78 64q34 32 62 68t50 78q10 18 16 36l12 36q6 16 8 36q4 18 6 38q4 18 6 40q2 20 2 44v46q2 26 2 54v930h-50q-72 -26 -288 -102v-44q36 -18 148 -72v-744v-72q-2 -32 -4 -62q0 -28 -4 -56t-10 -52q-6 -26 -16 -50q-8 -26 -20 -48 q-12 -24 -28 -46q-16 -24 -34 -48zM156 1388q0 -28 10 -54q8 -24 28 -44q18 -20 44 -30q24 -8 50 -8q28 0 52 8q24 10 42 30q20 20 30 44q10 26 10 54t-10 52t-30 44q-18 20 -42 32q-24 10 -52 10q-26 0 -50 -10q-26 -12 -44 -32q-20 -20 -28 -44q-10 -24 -10 -52z" />
<glyph unicode="k" horiz-adv-x="1164" d="M66 0h506v72q-20 2 -34 4q-16 2 -30 6q-16 2 -28 6t-22 10t-18 14t-14 20q-6 10 -10 24q-2 14 -2 32v1370h-52q-72 -26 -286 -102v-42q38 -18 150 -72v-1154q0 -18 -4 -32q-2 -14 -10 -24q-6 -12 -14 -20q-10 -8 -20 -14t-22 -10q-14 -4 -26 -6q-16 -4 -32 -6l-32 -4v-72 zM434 580q128 -146 514 -580h208v56q-132 144 -528 578q82 76 324 302q18 16 34 28q18 12 34 20q16 6 42 14q24 8 54 16v72h-464v-72q46 -6 76 -12t46 -10q16 -6 24 -14t8 -20q0 -8 -2 -16q-2 -6 -6 -12t-10 -12q-6 -8 -14 -14q-84 -82 -340 -324z" />
<glyph unicode="l" horiz-adv-x="642" d="M66 0h506v72q-20 2 -34 4q-16 2 -30 6q-16 2 -28 6t-22 10t-18 14t-14 20q-6 10 -10 24q-2 14 -2 32v1370h-52q-72 -26 -286 -102v-42q38 -18 150 -72v-1154q0 -18 -4 -32q-2 -14 -10 -24q-6 -12 -14 -20q-10 -8 -20 -14t-22 -10q-14 -4 -26 -6q-16 -4 -32 -6l-32 -4v-72 z" />
<glyph unicode="m" horiz-adv-x="1942" d="M82 0h504v72q-18 2 -34 4t-30 6q-16 2 -28 6t-22 10q-12 6 -20 14t-14 20q-6 10 -8 24t-2 32v658q30 22 62 42q34 20 72 36q36 16 76 22q38 8 78 8q48 0 82 -12t54 -32q20 -22 30 -60t10 -94v-568q0 -18 -2 -32q-4 -14 -10 -24q-6 -12 -14 -20q-10 -8 -20 -14t-24 -10 q-12 -4 -26 -6q-14 -4 -30 -6l-32 -4v-72h506v72q-20 2 -36 4q-14 2 -28 6q-16 2 -28 6t-22 10t-18 14t-14 20q-6 10 -10 24q-2 14 -2 32v658q28 22 62 42t70 36q38 16 76 22q38 8 78 8q48 0 82 -12t54 -32q20 -22 30 -60t10 -94v-568q0 -18 -2 -32q-4 -14 -10 -24 q-6 -12 -16 -20q-8 -8 -18 -14q-12 -6 -24 -10t-26 -6q-16 -4 -32 -6q-14 -2 -32 -4v-72h506v72q-18 2 -34 4t-30 6q-14 2 -26 6q-14 4 -22 10q-12 6 -20 14q-6 8 -14 20q-6 10 -8 24q-4 14 -4 32v582q0 88 -18 152t-52 104q-32 40 -84 60q-50 20 -118 20q-30 0 -60 -4 q-28 -6 -56 -14q-28 -10 -54 -22q-24 -12 -48 -28q-26 -16 -48 -30q-24 -16 -46 -36l-40 -36t-38 -36q-14 52 -34 92q-22 40 -56 64q-32 26 -76 38q-42 12 -96 12q-30 0 -58 -4q-30 -6 -56 -14q-28 -10 -52 -20q-26 -12 -48 -26q-24 -14 -44 -30q-22 -16 -44 -36 q-22 -18 -40 -34q-20 -18 -38 -36v200h-52q-70 -26 -284 -102v-44q38 -18 148 -72v-700q0 -18 -4 -32q-2 -14 -8 -24q-6 -12 -16 -20q-8 -8 -18 -14t-22 -10q-14 -4 -28 -6q-16 -4 -32 -6q-14 -2 -30 -4v-72z" />
<glyph unicode="n" horiz-adv-x="1318" d="M82 0h504v72q-18 2 -34 4t-30 6q-16 2 -28 6t-22 10q-12 6 -20 14t-14 20q-6 10 -8 24t-2 32v658q30 22 64 42q36 20 76 36t80 22q42 8 82 8q48 0 84 -12t58 -32q24 -22 36 -60t12 -94v-568q0 -18 -4 -32q-2 -14 -8 -24q-6 -12 -16 -20q-8 -8 -18 -14t-22 -10 q-14 -4 -28 -6q-16 -4 -32 -6q-14 -2 -30 -4v-72h506v72q-18 2 -34 4t-30 6q-16 2 -28 6t-22 10q-12 6 -20 14t-14 20q-6 10 -8 24q-4 14 -4 32v582q0 90 -20 154q-18 64 -56 104q-38 38 -90 58q-54 20 -120 20q-34 0 -62 -4q-30 -6 -58 -14q-28 -10 -54 -20 q-26 -12 -50 -26t-46 -30t-44 -36q-22 -18 -42 -34q-20 -18 -38 -36v200h-52q-70 -26 -284 -102v-44q38 -18 148 -72v-700q0 -18 -4 -32q-2 -14 -8 -24q-6 -12 -16 -20q-8 -8 -18 -14t-22 -10q-14 -4 -28 -6q-16 -4 -32 -6q-14 -2 -30 -4v-72z" />
<glyph unicode="o" d="M82 522q0 -60 8 -114q8 -56 26 -104q18 -50 42 -94q26 -42 60 -78q32 -38 70 -66t84 -48t98 -30q52 -8 110 -8q52 0 100 10q50 8 96 30t88 52q40 28 74 68q34 36 62 82t48 100t32 114q10 60 10 128q0 58 -10 112q-8 56 -26 104q-18 50 -42 92q-26 44 -58 80 q-34 36 -72 64q-40 28 -86 48t-98 32q-50 10 -106 10q-52 0 -102 -10q-50 -12 -96 -34q-46 -20 -88 -50q-40 -28 -74 -66t-62 -84t-48 -100q-20 -56 -30 -116t-10 -124zM278 560q0 48 6 94q4 44 12 86q10 40 22 74q14 36 32 64t40 50q22 24 50 38q28 16 60 24q30 10 68 10 t72 -10q34 -12 64 -30q32 -18 56 -44q26 -26 46 -58q22 -32 38 -70q16 -36 26 -80q12 -42 18 -88q4 -46 4 -94t-4 -94t-14 -86q-8 -42 -22 -76q-14 -36 -32 -64q-20 -28 -42 -52q-22 -22 -48 -38q-28 -14 -60 -22q-30 -8 -66 -8q-40 0 -74 10q-34 8 -66 26q-30 20 -54 46 q-26 26 -48 58t-36 70q-16 38 -26 80q-12 44 -16 88q-6 46 -6 96z" />
<glyph unicode="p" horiz-adv-x="1254" d="M50 -332v-72h508v72q-20 2 -34 4q-16 4 -30 6q-16 4 -28 8q-12 2 -24 8q-10 6 -18 14t-14 20q-6 10 -10 24q-2 14 -2 32v308q16 -24 42 -46q26 -20 60 -36t74 -22q42 -8 92 -8q48 0 98 10q48 12 94 32q46 22 86 52q40 32 76 72q34 40 62 88q26 48 48 104q20 56 30 122 q12 64 12 134q0 52 -8 102q-6 50 -20 96q-12 46 -34 88q-20 42 -48 76q-26 34 -60 62q-32 26 -72 46t-86 32q-44 10 -96 10q-58 0 -108 -12t-94 -38q-42 -24 -80 -56q-36 -32 -68 -72v178h-50q-72 -26 -288 -102v-44q36 -18 148 -72v-1104q0 -18 -2 -32q-4 -14 -10 -24 q-6 -12 -14 -20q-10 -8 -20 -14t-24 -8q-12 -4 -26 -8q-14 -2 -30 -6zM398 358v510q22 24 52 44q30 18 66 30t72 20q38 6 76 6q42 0 78 -10t66 -30q32 -20 56 -46q26 -26 46 -58q18 -32 32 -70q14 -36 22 -78q10 -42 14 -84q6 -42 6 -84q0 -50 -8 -94q-6 -46 -18 -86 t-28 -76q-16 -34 -38 -62q-20 -28 -46 -48q-24 -22 -54 -38q-30 -14 -62 -22q-34 -8 -68 -8q-62 0 -110 18q-48 16 -84 54q-36 34 -54 88q-16 54 -16 124z" />
<glyph unicode="q" horiz-adv-x="1210" d="M82 492q0 -54 6 -104q8 -52 22 -98t36 -86q20 -42 48 -74q28 -36 64 -64q34 -28 74 -48t86 -30q48 -8 100 -8q56 0 106 12q48 12 88 36q40 26 76 58q36 34 68 76v-378q0 -18 -4 -32q-2 -14 -8 -24q-6 -12 -16 -20q-8 -8 -16 -14q-12 -6 -24 -8q-12 -4 -28 -8 q-16 -2 -30 -6l-32 -4v-72h506v72q-18 2 -34 4q-16 4 -30 6l-28 8q-12 2 -22 8q-12 6 -20 14t-14 20q-6 10 -8 24q-4 14 -4 32v1108q4 58 16 230h-50q-26 -32 -106 -130q-26 26 -58 48t-72 38q-40 14 -82 20q-42 8 -86 8q-56 0 -108 -10q-52 -12 -98 -34q-50 -20 -92 -52 q-42 -30 -76 -70q-36 -40 -64 -88q-28 -50 -48 -106q-20 -58 -28 -120q-10 -64 -10 -134zM270 568q0 48 6 94q4 44 16 86q14 40 30 74q14 36 36 64q22 30 46 54q26 22 56 38t62 26q34 8 70 8q30 0 56 -4q28 -4 52 -12t46 -20q20 -12 38 -30q18 -16 30 -38q14 -22 24 -50 q8 -28 14 -60q4 -32 4 -70v-502q-24 -26 -54 -46q-30 -18 -64 -32q-36 -14 -72 -20q-38 -8 -76 -8q-42 0 -78 10q-34 10 -66 28q-30 18 -54 42q-26 26 -44 56q-20 30 -34 68q-16 36 -26 76q-8 40 -14 82q-4 42 -4 86z" />
<glyph unicode="r" horiz-adv-x="844" d="M82 0h544v72q-26 2 -52 6q-24 2 -42 6t-34 8q-14 4 -26 10q-14 6 -22 14t-12 20q-6 10 -8 26q-2 14 -2 34v520q24 30 46 54q22 22 44 42q22 18 42 32t40 22q20 10 40 14q20 6 42 8q20 4 42 6h46h44v184q-14 14 -32 20q-20 8 -44 8q-26 0 -46 -4q-20 -6 -38 -14 q-20 -10 -36 -24q-18 -14 -34 -32q-18 -18 -34 -44q-18 -26 -36 -56t-40 -68t-46 -82v324h-54q-70 -26 -282 -102v-44q38 -18 148 -72v-700q0 -18 -4 -32q-2 -14 -8 -24q-6 -12 -16 -20q-8 -8 -18 -14t-22 -10q-14 -4 -28 -6q-16 -4 -32 -6q-14 -2 -30 -4v-72z" />
<glyph unicode="s" horiz-adv-x="924" d="M82 352q2 -68 12 -272q38 -30 80 -50q44 -20 92 -30q50 -10 98 -16q50 -4 100 -4q44 0 84 6t74 18q36 12 66 28t56 38q24 22 42 46q20 24 34 54q12 30 18 62q8 32 8 64q0 40 -6 72t-18 58q-14 26 -30 48q-18 24 -40 42q-24 18 -50 34q-28 16 -58 28q-34 12 -68 26l-72 24 q-60 20 -104 40q-46 22 -76 46q-32 26 -46 60q-16 32 -16 76q0 34 12 62q10 30 36 52q22 24 54 36q34 12 76 12q110 0 178 -62t88 -184h78v254q-34 18 -72 34t-80 28q-40 12 -86 18q-48 6 -100 6q-40 0 -76 -6t-68 -16q-34 -12 -62 -28t-52 -38q-22 -22 -40 -46 q-16 -24 -30 -52q-12 -28 -18 -58q-6 -32 -6 -66t6 -66q4 -30 14 -54q12 -26 26 -48q16 -22 36 -40t44 -36q24 -16 52 -30t60 -26t66 -20q34 -14 64 -24t56 -20t48 -22t40 -24q18 -14 30 -28q12 -16 22 -34q8 -18 14 -40q4 -20 4 -44q0 -40 -14 -72t-42 -54q-28 -20 -66 -32 q-38 -10 -88 -10q-64 0 -114 18t-88 56q-38 36 -64 88t-42 118h-76z" />
<glyph unicode="t" horiz-adv-x="758" d="M30 976h152v-754q0 -66 18 -114q16 -46 50 -74q34 -26 78 -40t98 -14q50 0 96 8q44 8 84 26q38 18 72 42q32 24 60 52q-8 16 -22 46q-20 -12 -42 -20t-48 -14q-24 -6 -48 -8q-24 -4 -48 -4q-42 0 -74 8t-50 26q-18 14 -28 44q-10 32 -10 74v716h314v110h-314v232h-52 q-34 -48 -70 -90q-34 -42 -68 -74q-36 -34 -72 -62q-36 -30 -76 -54v-62z" />
<glyph unicode="u" horiz-adv-x="1288" d="M46 990q8 -2 32 -4q36 -8 62 -14q24 -8 36 -18t18 -30q6 -18 6 -46v-562q0 -92 20 -156q18 -64 56 -102q38 -40 92 -60q54 -18 122 -18q30 0 60 4q28 2 54 12t50 20q26 12 48 28q24 12 46 28t42 34t40 38l40 36v-200h30q80 18 326 72v68q-12 2 -52 6q-36 4 -58 10 q-24 6 -34 16q-12 8 -18 24q-6 18 -6 46v884h-32l-312 -48v-68q8 -2 34 -4q36 -8 60 -14q26 -8 38 -18t18 -30q6 -18 6 -46v-638q-30 -24 -64 -44q-34 -18 -70 -34q-38 -16 -78 -24q-38 -6 -78 -6q-50 0 -86 12t-60 36q-22 24 -34 66q-10 42 -10 98v762h-32l-312 -48v-68z " />
<glyph unicode="v" horiz-adv-x="1132" d="M10 1014q18 -6 30 -12q14 -6 26 -10q8 -6 18 -10q8 -4 14 -8q6 -2 12 -6q4 -4 6 -10l8 -12q2 -6 8 -14q140 -318 418 -952h46q102 238 406 952q2 8 6 14l8 12q2 6 8 10q4 4 10 8t14 8l20 10q8 2 22 8t32 12v72h-392v-72q38 -6 66 -12t46 -12q16 -6 26 -20q8 -12 8 -30 v-12l-4 -12t-4 -14t-6 -18q-86 -208 -256 -624q-62 156 -250 624q-8 18 -10 32q-4 14 -4 24q0 18 8 30q8 14 24 20q18 6 46 12q30 6 70 12v72h-480v-6v-66z" />
<glyph unicode="w" horiz-adv-x="1624" d="M10 1014q16 -6 30 -12q12 -6 24 -8q8 -4 18 -8q8 -4 14 -8l12 -8q4 -6 6 -12q4 -6 6 -12q4 -6 6 -14q124 -318 368 -952h48q70 180 276 722q66 -180 270 -722h50q90 238 358 952q2 8 6 14q2 6 6 12q2 6 8 10q4 4 10 8t14 8t18 10q10 2 24 8t32 12v72h-386v-72 q40 -6 66 -12q28 -6 46 -12q14 -6 24 -20q8 -12 8 -30q0 -6 -2 -12q0 -6 -2 -12t-4 -14t-4 -18q-54 -150 -218 -604q-52 150 -208 598q-8 20 -12 34q-2 16 -2 28q0 18 8 30q8 14 24 20t44 12q30 6 68 12v72h-456v-72q18 -6 30 -12q14 -6 26 -8q8 -4 18 -8q8 -4 14 -8l12 -8 q4 -6 6 -12l8 -12t8 -14q10 -32 34 -98q-50 -138 -202 -550q-56 150 -218 594q-8 20 -10 34q-4 16 -4 28q0 18 8 30q8 14 24 20t44 12t68 12v72h-464v-6v-66z" />
<glyph unicode="x" horiz-adv-x="1110" d="M10 0h392v72q-38 8 -62 14t-34 10q-12 4 -16 12q-6 10 -6 26q0 6 2 14t6 14t8 14l12 16q66 94 200 282q52 -72 204 -282l12 -16q6 -10 12 -18q6 -10 8 -18q4 -6 4 -14q0 -12 -6 -22t-16 -14q-12 -6 -38 -10q-26 -6 -66 -8v-72h474v72q-28 2 -48 10q-22 8 -34 16 q-14 10 -28 24t-28 32q-102 140 -308 424q66 88 268 354q14 16 28 30q16 12 34 22q16 8 36 16t44 14v72h-382v-72q36 -10 58 -16q24 -6 36 -8q10 -6 16 -14q6 -10 6 -24q0 -8 -2 -16t-6 -14q-2 -6 -8 -14l-12 -16q-56 -80 -170 -240l-176 240q-6 8 -12 18q-6 8 -12 18 q-6 8 -8 16t-2 14v12q0 4 4 8q0 6 6 10q4 4 10 8q6 2 16 4t22 6q12 2 28 2q16 2 38 6v72h-476v-72q28 -4 50 -12t34 -16q14 -10 26 -24q14 -14 28 -30q94 -128 282 -386l-304 -392q-24 -30 -62 -50q-36 -20 -82 -32v-22v-50z" />
<glyph unicode="y" horiz-adv-x="1148" d="M10 1014q18 -6 30 -12q14 -6 26 -10q8 -6 18 -10q8 -4 14 -8q6 -2 12 -6q4 -4 6 -10l8 -12q2 -6 8 -14q100 -234 404 -938q-10 -28 -40 -108q-16 -44 -36 -72t-42 -42q-24 -14 -60 -22q-36 -6 -84 -6h-106v-94q12 -18 28 -30q16 -14 38 -24q20 -10 42 -16q24 -4 50 -4 q46 0 82 14q38 14 66 44q26 28 48 68q24 40 44 90q150 380 452 1140q2 8 6 14t6 12q4 6 8 10l12 8t14 8l20 10q8 2 22 8t32 12v72h-392v-72q38 -6 66 -12t46 -12t26 -20q8 -12 8 -30v-12l-4 -12q0 -6 -4 -14q-2 -8 -6 -18l-252 -666q-66 166 -270 666q-6 10 -8 18 q-4 8 -4 14q-2 6 -2 12v12q0 18 8 30q8 14 24 20q18 6 46 12q30 6 70 12v72h-480v-6v-66z" />
<glyph unicode="z" horiz-adv-x="1024" d="M76 0h848q8 90 36 356h-84q-8 -38 -20 -70t-24 -56q-12 -26 -28 -46q-14 -20 -30 -34q-16 -16 -32 -28q-18 -12 -36 -18t-36 -8q-20 -4 -40 -4h-316q156 236 624 940v54h-832v-334h84q10 34 18 62q10 30 20 54q8 24 18 42t20 32t22 24q12 8 26 14q12 8 28 10q16 4 36 4 h332q-158 -238 -634 -948v-46z" />
<glyph unicode="{" horiz-adv-x="698" d="M102 628q38 -8 66 -24q30 -16 56 -36q24 -24 36 -60q12 -34 12 -84v-448q0 -32 6 -58q6 -28 18 -54q14 -24 30 -44q18 -20 40 -38q22 -16 48 -28q26 -14 58 -22q30 -10 64 -14t70 -4v54q-18 2 -36 6t-34 10l-32 16q-14 10 -26 22q-14 12 -26 26q-10 14 -18 34 q-8 18 -10 40q-4 22 -4 48v446q0 52 -10 90q-12 36 -34 62q-20 22 -56 42t-86 36q50 14 86 34q36 18 56 42q22 24 34 62q10 38 10 90v446q0 26 4 48q2 20 10 38q8 20 18 34q12 14 26 26q12 12 26 22q16 10 32 16t34 10l36 8v54q-36 0 -70 -4t-64 -14q-32 -8 -58 -22t-48 -30 q-22 -18 -40 -38q-16 -20 -30 -44q-12 -26 -18 -52t-6 -58v-448q0 -48 -12 -86q-12 -36 -36 -58q-26 -22 -56 -38q-28 -14 -66 -22v-34z" />
<glyph unicode="|" horiz-adv-x="526" d="M204 -288h118v1864h-118v-232v-1632z" />
<glyph unicode="}" horiz-adv-x="698" d="M92 -232v-54q38 0 70 4t64 14q30 8 56 22q26 12 50 28q22 18 40 38t30 44q12 26 18 54q6 26 6 58v448q0 50 12 84q10 36 36 60q24 20 54 36q32 16 68 24v34q-36 8 -68 22q-30 16 -54 38q-26 22 -36 58q-12 38 -12 86v448q0 32 -6 58t-18 52q-12 24 -30 44t-40 38 q-24 16 -50 30t-56 22q-32 10 -64 14t-70 4v-54l36 -8q16 -4 34 -10q16 -6 30 -16q16 -10 30 -22q12 -12 22 -26t18 -34q8 -18 12 -38q4 -22 4 -48v-446q0 -52 10 -90t32 -62q20 -24 56 -42q36 -20 88 -34q-52 -16 -88 -36t-56 -42q-22 -26 -32 -62q-10 -38 -10 -90v-446 q0 -26 -4 -48t-12 -40q-8 -20 -18 -34t-22 -26q-14 -12 -30 -22q-14 -8 -30 -16q-18 -6 -34 -10q-18 -4 -36 -6z" />
<glyph unicode="~" horiz-adv-x="1046" d="M102 588q28 -4 80 -12q18 32 32 54q16 20 30 32q14 10 34 16t46 6q22 0 42 -4q20 -6 42 -14q22 -10 42 -20l44 -24t44 -22t46 -18q22 -10 46 -14t48 -4q50 0 88 14q40 16 72 46q30 32 58 78q26 48 48 114q-20 2 -80 12q-18 -34 -34 -56t-30 -32q-14 -12 -32 -16 q-20 -6 -46 -6q-20 0 -42 6q-22 4 -44 14q-20 8 -42 18t-44 22q-20 12 -44 24l-44 20q-22 8 -46 14q-22 4 -48 4q-48 0 -90 -16q-40 -18 -72 -48q-30 -30 -56 -78t-48 -110z" />
<glyph unicode="&#xa1;" horiz-adv-x="598" d="M150 956q0 -32 10 -58q12 -26 32 -48q22 -22 48 -32q26 -12 60 -12q30 0 56 12q28 10 50 32t32 48t10 58t-10 58q-10 28 -32 48q-22 22 -50 34q-26 10 -56 10q-34 0 -60 -10q-26 -12 -48 -34q-20 -20 -32 -48q-10 -26 -10 -58zM164 -352h268q-22 256 -88 1022h-92 q-22 -256 -88 -1022z" />
<glyph unicode="&#xa2;" horiz-adv-x="1058" d="M72 510q0 -58 8 -112q8 -52 26 -102q18 -48 44 -90q24 -42 56 -76q34 -36 72 -64t84 -48q6 -2 14 -4q6 -2 14 -6q-18 -76 -50 -230h90q10 54 44 210q20 -4 44 -6q22 -2 48 -2q80 0 150 18q68 18 126 58q56 38 96 96t66 136q-14 8 -40 22q-30 -44 -66 -76q-34 -32 -72 -54 q-40 -22 -88 -34q-46 -10 -102 -10q-34 0 -66 2q-32 4 -62 14q60 278 178 836q20 -8 36 -20q16 -10 28 -22q24 -30 36 -68t12 -86v-70h100q18 8 32 20q16 12 28 28t20 36t8 48t-8 54t-20 50q-14 24 -32 44t-44 36q-24 16 -52 28t-62 22q-16 2 -30 6q-14 2 -28 6l60 276h-90 q-14 -68 -60 -270h-2q-64 0 -122 -12t-108 -36q-52 -22 -94 -54q-44 -32 -78 -72q-36 -40 -62 -88q-28 -46 -46 -100q-18 -56 -28 -114q-8 -58 -8 -120zM248 586q0 46 6 88q6 44 18 82t30 72q16 34 38 60q22 28 48 48q26 22 56 36q32 16 64 24t70 8h22q-44 -204 -174 -816 q-22 12 -42 30q-18 16 -36 38q-50 60 -76 142q-24 84 -24 188z" />
<glyph unicode="&#xa3;" horiz-adv-x="1250" d="M30 162q0 -40 12 -72q10 -34 34 -60q22 -26 60 -38q36 -12 86 -12q46 0 86 14t72 42t58 64q26 34 48 74q18 -18 40 -36q20 -16 46 -34q24 -18 50 -34t54 -30q28 -12 58 -24l60 -20q32 -10 62 -12q32 -4 66 -4q58 0 106 14q50 14 86 40q36 28 56 76q18 46 18 114 q0 26 -4 48q-4 20 -10 40l-14 28q-6 14 -12 22h-50q0 -54 -14 -94t-42 -64t-64 -36q-36 -10 -84 -10t-96 8t-94 26t-90 40q-44 20 -84 44q6 16 10 32t8 34q4 16 8 34q2 16 6 34q12 78 38 236h320v82h-308q8 40 30 162q6 44 12 82q8 38 18 72q8 34 18 64q10 28 22 52 q12 22 28 40q14 18 30 30q16 14 36 20t44 6q36 0 62 -12q24 -10 36 -32t18 -48q6 -28 6 -62v-64h114q14 6 26 18t20 30q10 14 16 34q6 18 6 40q0 46 -20 80q-18 34 -54 58q-38 26 -88 38t-112 12q-86 0 -156 -28q-72 -28 -130 -84q-58 -54 -98 -144q-40 -88 -58 -212 q-8 -50 -24 -152h-216v-82h204l-48 -304q-28 8 -56 12t-56 4q-48 0 -86 -14t-68 -40q-30 -28 -44 -64t-14 -78zM124 162q0 22 8 40q6 20 20 36q12 14 34 24q20 8 50 8q12 0 26 -2q12 -2 24 -6q14 -2 26 -8q12 -4 26 -8q-10 -48 -22 -82t-28 -54t-36 -28q-20 -10 -44 -10 q-18 0 -32 6q-16 6 -28 18t-18 28t-6 38z" />
<glyph unicode="&#xa5;" horiz-adv-x="1316" d="M36 1252q22 -4 40 -8q18 -6 32 -14q14 -6 26 -20q14 -12 26 -28q98 -164 296 -492h-274v-82h326q14 -22 54 -88v-46h-380v-86h380v-172q0 -46 -14 -74t-40 -40t-64 -20q-40 -6 -90 -6v-76h596v76q-50 0 -88 6q-38 8 -64 20t-38 40t-12 74v172h382v86h-382v48q12 22 52 86 h330v82h-278q76 124 306 492q10 18 22 30q12 14 28 20q14 8 32 12t40 8v76h-460v-76q52 -2 88 -6q36 -6 54 -14t28 -22t10 -32q0 -12 -4 -24q-2 -10 -6 -20q-6 -10 -10 -20q-6 -12 -12 -20q-90 -154 -272 -464q-66 116 -266 464q-8 10 -14 20q-6 12 -8 20q-6 10 -6 20 q-2 12 -2 24q0 18 8 32q10 14 28 22t54 14q36 4 88 6v76h-542v-16v-60z" />
<glyph unicode="&#xa7;" horiz-adv-x="1062" d="M114 968q0 -88 18 -170q16 -82 52 -160q34 -76 78 -152q46 -74 100 -148q26 -36 54 -74q28 -36 58 -70q28 -34 54 -68q28 -34 52 -66q24 -34 44 -66q20 -30 36 -62q14 -30 24 -60q8 -28 8 -56q0 -32 -10 -56q-12 -26 -32 -44q-22 -20 -54 -30q-30 -10 -70 -10 q-42 0 -74 12t-52 38q-24 24 -34 54q-12 30 -12 64v34h-122q-16 -8 -28 -16q-14 -10 -26 -22t-18 -28q-6 -18 -6 -40q0 -40 20 -72q20 -34 60 -60q40 -28 96 -40q56 -14 126 -14q52 0 102 8t96 28q46 16 84 40q38 26 70 58q34 30 60 68q24 38 44 86q18 44 28 94q8 50 8 108 q0 88 -18 168q-18 82 -52 160q-34 76 -80 152q-44 76 -98 150q-28 38 -56 74q-28 34 -56 70q-30 34 -56 68t-50 68q-26 32 -46 64t-34 62q-16 30 -24 60t-8 56q0 32 12 56q10 26 32 46q22 18 52 28t70 10t72 -12t56 -38q22 -24 32 -54q12 -30 12 -64v-32h124q14 6 26 14 q14 10 26 22q14 12 20 30q6 16 6 38q0 40 -22 72q-20 34 -60 60q-40 28 -96 40q-56 14 -126 14q-56 0 -104 -8q-50 -10 -94 -26q-46 -20 -86 -44q-38 -24 -70 -54q-32 -34 -58 -72q-24 -38 -42 -82q-18 -46 -28 -98q-10 -50 -10 -106zM212 968q0 46 6 86q4 42 14 76 q8 36 20 64q10 28 22 48q0 -34 8 -68t24 -70q14 -36 36 -74q20 -36 46 -74q24 -38 50 -76t56 -76l56 -72t56 -70q56 -76 100 -150q44 -76 78 -150q32 -74 50 -146q16 -72 16 -140q0 -46 -4 -88q-6 -40 -14 -76q-10 -36 -20 -62q-12 -28 -24 -46q0 30 -8 64t-24 70 q-18 38 -38 74q-20 38 -44 76q-24 36 -52 74l-56 76q-30 36 -58 74q-26 36 -52 70q-56 74 -100 150q-46 74 -78 150q-34 74 -50 146t-16 140z" />
<glyph unicode="&#xa8;" horiz-adv-x="1024" d="M192 1386q0 -28 8 -50t28 -40q18 -18 40 -28q22 -8 50 -8q26 0 48 8q22 10 40 28t28 40q8 22 8 50q0 26 -8 46q-10 22 -28 40t-40 28t-48 10q-28 0 -50 -10t-40 -28q-20 -18 -28 -40q-8 -20 -8 -46zM582 1386q0 -28 8 -50t26 -40t40 -28q22 -8 50 -8q26 0 48 8 q22 10 40 28q20 18 28 40q10 22 10 50q0 26 -10 46q-8 22 -28 40q-18 18 -40 28t-48 10q-28 0 -50 -10t-40 -28t-26 -40q-8 -20 -8 -46z" />
<glyph unicode="&#xa9;" horiz-adv-x="1630" d="M82 718q0 -76 12 -148q14 -72 42 -140q26 -68 64 -126t86 -108q50 -50 108 -90t126 -70q68 -28 142 -42t154 -14q78 0 152 14t142 42q68 30 124 70q58 40 108 90q48 50 86 108t64 126q28 68 42 140t14 148q0 78 -14 148q-14 72 -42 140q-26 68 -64 126t-86 110 q-50 48 -108 88q-56 40 -124 68q-68 30 -142 46q-74 14 -152 14q-80 0 -154 -14q-74 -16 -142 -46q-68 -28 -126 -68t-108 -88q-48 -52 -86 -110t-64 -126q-28 -68 -42 -140q-12 -70 -12 -148zM168 718q0 68 12 132q10 64 36 124q22 60 56 112q34 54 76 98q44 44 94 80 q52 34 110 62q60 26 126 38q64 14 138 14q70 0 136 -14q66 -12 126 -38q58 -28 110 -62q52 -36 94 -80q44 -44 76 -98q32 -52 58 -112q22 -60 34 -124t12 -132q0 -66 -12 -130q-12 -66 -34 -126q-26 -60 -58 -114q-32 -52 -76 -96q-42 -44 -94 -80t-110 -62 q-60 -26 -126 -38t-136 -12q-74 0 -138 12q-66 12 -126 38q-58 26 -110 62q-50 36 -94 80q-42 44 -76 96q-34 54 -56 114q-26 60 -36 126q-12 64 -12 130zM424 704q0 -46 6 -88q8 -40 22 -78q16 -38 36 -70t48 -60q26 -28 58 -50t70 -36q36 -16 78 -24t88 -8q48 0 86 6 q40 4 72 16q30 10 60 22l60 28l18 222h-64l-16 -48q-8 -22 -18 -42t-20 -38q-10 -16 -22 -30q-14 -14 -28 -24q-12 -12 -28 -20q-18 -6 -36 -10q-20 -4 -42 -4q-32 0 -60 8q-28 6 -52 22q-26 14 -46 32q-22 20 -36 46q-18 24 -30 54t-20 64t-12 70q-4 38 -4 78q0 34 4 66 q2 32 10 62q8 32 20 58t28 48q14 24 36 42q20 18 46 32q24 12 52 20t62 8q76 0 124 -50q48 -52 70 -150h62v196q-22 14 -46 30q-26 14 -56 26q-32 12 -70 18q-40 8 -86 8q-44 0 -84 -8q-42 -8 -80 -24q-40 -16 -74 -38t-62 -52q-28 -28 -52 -64q-22 -36 -40 -78 q-16 -42 -24 -88q-8 -48 -8 -100z" />
<glyph unicode="&#xaa;" horiz-adv-x="892" d="M92 848q0 -44 12 -78q12 -36 38 -66q24 -30 62 -44q36 -14 88 -14q22 0 42 2q20 4 38 10q20 6 36 14t32 18t30 20q16 10 30 24q12 12 24 22l24 24q6 -30 16 -56q10 -24 28 -42q16 -18 36 -28q22 -8 50 -8q20 0 42 2q22 4 46 14q22 8 44 22q22 12 42 32q-2 16 -6 44 q-10 -4 -20 -4q-10 -2 -22 -2q-12 -2 -20 -2h-12q-16 0 -28 6q-14 6 -24 18q-8 12 -12 32q-6 20 -6 44v30v46t2 54v56t2 56v52t2 46v32q0 62 -18 110q-18 46 -56 80q-36 32 -90 48q-52 16 -122 16q-64 0 -116 -12q-52 -14 -94 -40q-40 -26 -60 -62t-20 -82v-26q2 -12 8 -22 q4 -8 10 -18q6 -8 16 -16q46 6 140 16q-4 12 -6 20l-4 20v18q-2 10 -2 20q0 56 30 84q30 26 90 26q40 0 66 -12q26 -14 38 -38q12 -26 20 -56q6 -30 6 -64v-74q-60 -22 -240 -86q-20 -6 -38 -14q-20 -8 -38 -18q-20 -8 -36 -20q-16 -10 -32 -22t-28 -28t-22 -34 q-8 -18 -14 -42q-4 -22 -4 -48zM262 880q0 46 26 80q24 34 76 56q60 26 180 76v-270q-24 -20 -44 -32t-40 -20q-18 -8 -40 -10q-20 -4 -46 -4t-48 8q-20 8 -36 24q-14 18 -22 40q-6 24 -6 52z" />
<glyph unicode="&#xab;" horiz-adv-x="976" d="M92 550q82 -96 330 -388h96q-58 100 -236 400q60 98 236 398h-96q-82 -96 -330 -388v-22zM458 550q84 -96 330 -388h96q-58 100 -234 400q58 98 234 398h-96q-82 -96 -330 -388v-22z" />
<glyph unicode="&#xad;" horiz-adv-x="738" d="M102 546h532v156h-532v-156z" />
<glyph unicode="&#xae;" horiz-adv-x="1136" d="M102 992q0 -50 8 -94q8 -46 28 -90q16 -42 40 -78q24 -38 56 -68q30 -32 66 -56t78 -42q44 -20 90 -28q48 -10 100 -10q50 0 98 10q46 8 90 28q42 18 80 42q36 24 68 56q30 30 54 68q22 36 42 78q16 44 26 90q8 44 8 94q0 46 -8 92q-10 44 -26 88q-20 42 -42 80 q-24 36 -54 68q-32 32 -68 58q-38 24 -80 44q-44 18 -90 26q-48 10 -98 10q-52 0 -100 -10q-46 -8 -90 -26q-42 -20 -78 -44q-36 -26 -66 -58q-32 -32 -56 -68q-24 -38 -40 -80q-20 -44 -28 -88q-8 -46 -8 -92zM178 992q0 40 6 76q8 38 22 74t34 68t46 60t58 48q30 22 68 38 q34 16 74 24q38 8 82 8q42 0 82 -8q38 -8 74 -24t68 -38q30 -20 56 -48t46 -60t36 -68q14 -36 22 -74q6 -36 6 -76t-6 -78q-8 -38 -22 -74q-16 -38 -36 -68q-20 -32 -46 -60q-26 -26 -56 -48q-32 -22 -68 -38q-36 -14 -74 -22q-40 -8 -82 -8q-44 0 -82 8q-40 8 -74 22 q-38 16 -68 38q-32 22 -58 48q-26 28 -46 60q-20 30 -34 68q-14 36 -22 74q-6 38 -6 78zM356 760h212v38q-18 0 -30 2t-18 6q-6 6 -10 16q-2 10 -2 26v112h44q20 -28 76 -112q10 -16 20 -28q8 -14 20 -26q10 -12 20 -20q10 -10 18 -14h106v38q-14 0 -26 4q-10 2 -20 10 q-10 6 -20 18t-22 28q-26 38 -80 112q22 6 44 16q20 12 40 30q18 16 28 38t10 50q0 30 -12 54t-38 44q-24 18 -58 28q-34 12 -80 12h-222v-40q18 -2 30 -4t18 -6t10 -14t4 -28v-302q0 -16 -4 -26t-10 -16q-6 -4 -18 -6t-30 -2v-38zM508 1004v192h54q54 0 82 -24 q28 -22 28 -68q0 -24 -8 -44q-8 -18 -20 -30q-16 -14 -36 -20t-46 -6h-54z" />
<glyph unicode="&#xaf;" horiz-adv-x="1024" d="M244 1276h536v118h-536v-118z" />
<glyph unicode="&#xb0;" horiz-adv-x="752" d="M62 1148q0 -32 6 -64q6 -30 18 -58t28 -52t38 -44q22 -22 46 -38t54 -28q28 -12 58 -18q30 -4 64 -4t66 4q30 6 60 18q28 12 52 28t46 38q22 20 38 44q18 24 30 52t18 58q6 32 6 64q0 34 -6 64t-18 58t-30 52q-16 24 -38 46t-46 38t-52 28q-30 12 -60 18q-32 6 -66 6 t-64 -6t-58 -18q-30 -12 -54 -28t-46 -38t-38 -46t-28 -52t-18 -58t-6 -64zM174 1148q0 48 12 84q14 38 42 68q26 32 64 46q36 16 82 16t84 -16q36 -14 64 -46q28 -30 42 -68q14 -36 14 -84q0 -46 -14 -84t-42 -66q-28 -32 -64 -46q-38 -14 -84 -14t-82 14q-38 14 -64 46 q-28 28 -42 66q-12 38 -12 84z" />
<glyph unicode="&#xb1;" horiz-adv-x="1156" d="M130 172h896v124h-896v-124zM130 692h384v-290h124v290h388v126h-388v292h-124v-292h-384v-126z" />
<glyph unicode="&#xb2;" horiz-adv-x="834" d="M52 588h656q8 72 34 290h-50q-12 -24 -24 -42q-12 -20 -20 -34q-12 -14 -22 -24q-12 -10 -22 -16q-12 -6 -24 -10q-14 -4 -28 -6q-12 -4 -30 -4h-34h-232q44 38 86 74q42 34 82 68q40 32 74 64t64 64q28 30 52 62q22 30 42 60q16 32 26 66q8 32 8 70q0 62 -20 110 q-18 46 -56 82q-36 34 -88 52t-120 18q-32 0 -58 -4q-26 -6 -52 -14q-24 -10 -46 -22q-24 -10 -44 -26q-20 -14 -40 -32q-18 -16 -32 -36q-16 -20 -30 -40t-24 -42q10 -10 32 -34l20 20q12 10 24 22q12 8 24 18q14 8 26 18q14 8 30 14q14 6 30 12t34 8t38 2q40 0 72 -10 t56 -32q26 -22 38 -54t12 -72q0 -18 -2 -36q-4 -18 -10 -36q-6 -20 -16 -40q-8 -20 -22 -40q-12 -22 -30 -44t-38 -46q-22 -26 -48 -52l-58 -58l-240 -240v-48z" />
<glyph unicode="&#xb3;" horiz-adv-x="832" d="M72 768q0 -20 4 -38q6 -20 16 -38t24 -34q16 -16 36 -30q18 -14 42 -24t54 -18q28 -10 62 -14q34 -2 72 -2q34 0 68 2q32 4 62 14q30 8 58 22q28 12 52 28q26 18 44 40q20 20 34 44q14 26 22 56t8 64q0 54 -20 98t-56 78q-40 34 -90 54q-50 22 -112 30q20 6 38 14t40 16 q22 10 40 20q20 12 36 26q18 14 32 28q14 16 26 36q10 18 16 38t6 46q0 42 -16 78q-18 36 -52 64t-80 42q-46 16 -104 16q-30 0 -60 -4q-28 -6 -52 -14q-26 -10 -48 -22q-22 -10 -42 -26q-22 -16 -40 -34q-16 -18 -32 -38q-16 -22 -28 -42q-12 -22 -22 -44q18 -12 54 -34 q14 26 32 50q20 22 44 44q22 22 54 32t72 10q38 0 68 -8q30 -10 50 -28q18 -18 28 -42t10 -52q0 -38 -16 -68q-18 -30 -52 -54q-34 -22 -80 -44t-104 -42l6 -48h50q54 0 96 -12q44 -12 76 -36q30 -22 46 -58q18 -36 18 -84q0 -46 -12 -82q-12 -34 -34 -58t-52 -36t-66 -12 q-44 0 -76 12t-52 36t-30 56q-8 32 -8 76v46h-102q-14 -6 -22 -16q-10 -8 -20 -20t-12 -28q-4 -16 -4 -32z" />
<glyph unicode="&#xb4;" horiz-adv-x="1024" d="M318 1212h80q76 86 308 346h-238q-36 -86 -150 -346z" />
<glyph unicode="&#xb6;" horiz-adv-x="1270" d="M122 958q0 -52 8 -100q8 -50 26 -96q16 -46 40 -86q24 -38 58 -72t76 -60q42 -28 92 -46q50 -20 110 -30t130 -10v-862h106v1764h138v-1764h106v1612q0 24 4 42q2 18 10 34q6 14 16 24q12 12 26 20q12 6 28 12t36 10q18 2 42 4q22 2 46 4v80h-558q-70 0 -130 -10 q-60 -8 -110 -28q-50 -18 -92 -42t-76 -56t-58 -70t-40 -82q-18 -44 -26 -92t-8 -100zM346 958q0 38 4 74q4 38 12 74t22 68t32 58q18 28 42 52q24 22 54 42q30 16 68 24q36 10 82 10v-824q-46 0 -82 10q-38 10 -68 28t-54 42q-24 26 -42 56t-32 64t-22 70q-8 38 -12 76 t-4 76z" />
<glyph unicode="&#xb7;" horiz-adv-x="524" d="M112 616q0 -32 12 -58q10 -26 32 -48t48 -32q26 -12 58 -12q30 0 58 12q28 10 48 32q22 22 32 48q12 26 12 58t-12 58q-10 28 -32 48q-20 22 -48 34q-28 10 -58 10q-32 0 -58 -10q-26 -12 -48 -34q-22 -20 -32 -48q-12 -26 -12 -58z" />
<glyph unicode="&#xb9;" horiz-adv-x="770" d="M112 588h566v68h-50q-24 2 -42 6q-18 2 -34 4q-16 4 -28 10q-12 4 -20 10q-8 8 -14 16q-6 10 -8 22t-2 28v780h-44q-16 -18 -28 -34q-14 -16 -28 -30q-12 -14 -26 -26q-16 -12 -30 -20q-16 -10 -32 -18q-18 -10 -36 -16t-40 -12q-20 -4 -44 -8q-20 -4 -60 -10v-58h200 v-548q0 -32 -12 -50q-12 -20 -34 -26q-22 -8 -62 -12q-38 -6 -92 -8v-68z" />
<glyph unicode="&#xba;" horiz-adv-x="910" d="M72 1048q0 -44 6 -84t18 -78q12 -36 32 -68t44 -60t54 -48t64 -36q36 -16 76 -22t84 -6t82 6q38 8 74 24t66 36q30 22 58 50q24 28 44 62t34 74q14 38 22 84q8 44 8 94q0 42 -8 84q-6 40 -18 76q-14 38 -32 70q-18 30 -42 58q-26 28 -56 48t-66 36q-34 16 -74 22 q-40 8 -84 8q-42 0 -80 -8q-40 -6 -74 -22q-38 -16 -68 -38q-32 -22 -56 -50q-26 -28 -46 -62t-34 -74q-16 -40 -22 -82q-6 -44 -6 -94zM252 1074q0 70 10 128q12 56 34 102q24 46 60 70q34 22 82 22q26 0 50 -6q22 -8 44 -22q20 -16 38 -34q16 -18 30 -42t24 -52 q12 -28 20 -58q6 -32 10 -66q4 -32 4 -66q0 -70 -12 -128t-34 -104t-56 -68t-80 -22q-28 0 -52 6q-26 6 -46 22q-20 14 -38 32q-16 18 -30 44q-16 22 -26 50q-12 28 -18 60q-8 30 -10 64q-4 34 -4 68z" />
<glyph unicode="&#xbb;" horiz-adv-x="976" d="M92 162h96q82 98 330 388v22q-82 96 -330 388h-96q60 -100 236 -398q-60 -100 -236 -400zM458 162h98q82 98 328 388v22q-82 96 -328 388h-98q60 -100 236 -398q-58 -100 -236 -400z" />
<glyph unicode="&#xbc;" horiz-adv-x="1822" d="M112 588h566v68h-50q-24 2 -42 6q-18 2 -34 4q-16 4 -28 10q-12 4 -20 10q-8 8 -14 16q-6 10 -8 22t-2 28v780h-44q-16 -18 -28 -34q-14 -16 -28 -30q-12 -14 -26 -26q-16 -12 -30 -20q-16 -10 -32 -18q-18 -10 -36 -16t-40 -12q-20 -4 -44 -8q-20 -4 -60 -10v-58h200 v-548q0 -32 -12 -50q-12 -20 -34 -26q-22 -8 -62 -12q-38 -6 -92 -8v-68zM434 0h122q230 380 920 1518h-122q-230 -380 -920 -1518zM924 98h462v-244h172v244h162v90h-162v604h-112q-130 -156 -522 -624v-70zM1050 188q84 102 336 406v-406h-336z" />
<glyph unicode="&#xbd;" horiz-adv-x="1826" d="M112 588h566v68h-50q-24 2 -42 6q-18 2 -34 4q-16 4 -28 10q-12 4 -20 10q-8 8 -14 16q-6 10 -8 22t-2 28v780h-44q-16 -18 -28 -34q-14 -16 -28 -30q-12 -14 -26 -26q-16 -12 -30 -20q-16 -10 -32 -18q-18 -10 -36 -16t-40 -12q-20 -4 -44 -8q-20 -4 -60 -10v-58h200 v-548q0 -32 -12 -50q-12 -20 -34 -26q-22 -8 -62 -12q-38 -6 -92 -8v-68zM434 0h122q230 380 920 1518h-122q-230 -380 -920 -1518zM1046 -100v-48h656q8 74 32 292h-48q-12 -26 -24 -44t-22 -32t-22 -24q-10 -12 -20 -18q-12 -6 -24 -10t-26 -6t-30 -4h-38h-228 q42 38 84 74t82 70q40 32 74 64t62 62q30 32 52 62q24 30 42 62q18 30 26 64q10 34 10 70q0 62 -18 110q-20 48 -56 84q-38 32 -90 50q-54 18 -122 18q-28 0 -56 -4t-52 -14q-24 -8 -48 -22q-22 -12 -42 -26q-22 -16 -40 -34q-18 -16 -34 -34l-28 -40t-24 -40q10 -12 32 -36 l20 20q10 12 22 22q14 8 26 18t26 18t30 14q14 8 30 14q14 4 34 6q18 4 38 4q40 0 74 -12q32 -10 56 -32t38 -52q12 -32 12 -72q0 -18 -4 -38q-2 -18 -8 -36q-8 -18 -18 -38t-22 -40q-14 -22 -30 -44q-18 -22 -40 -46q-20 -24 -48 -52q-26 -28 -56 -58q-80 -82 -240 -242z " />
<glyph unicode="&#xbe;" horiz-adv-x="1848" d="M72 768q0 -20 4 -38q6 -20 16 -38t24 -34q16 -16 36 -30q18 -14 42 -24t54 -18q28 -10 62 -14q34 -2 72 -2q34 0 68 2q32 4 62 14q30 8 58 22q28 12 52 28q26 18 44 40q20 20 34 44q14 26 22 56t8 64q0 54 -20 98t-56 78q-40 34 -90 54q-50 22 -112 30q20 6 38 14t40 16 q22 10 40 20q20 12 36 26q18 14 32 28q14 16 26 36q10 18 16 38t6 46q0 42 -16 78q-18 36 -52 64t-80 42q-46 16 -104 16q-30 0 -60 -4q-28 -6 -52 -14q-26 -10 -48 -22q-22 -10 -42 -26q-22 -16 -40 -34q-16 -18 -32 -38q-16 -22 -28 -42q-12 -22 -22 -44q18 -12 54 -34 q14 26 32 50q20 22 44 44q22 22 54 32t72 10q38 0 68 -8q30 -10 50 -28q18 -18 28 -42t10 -52q0 -38 -16 -68q-18 -30 -52 -54q-34 -22 -80 -44t-104 -42l6 -48h50q54 0 96 -12q44 -12 76 -36q30 -22 46 -58q18 -36 18 -84q0 -46 -12 -82q-12 -34 -34 -58t-52 -36t-66 -12 q-44 0 -76 12t-52 36t-30 56q-8 32 -8 76v46h-102q-14 -6 -22 -16q-10 -8 -20 -20t-12 -28q-4 -16 -4 -32zM458 0h122q230 380 922 1518h-124q-230 -380 -920 -1518zM948 98h464v-244h172v244h160v90h-160v604h-114q-130 -156 -522 -624v-70zM1076 188q84 102 336 406v-406 h-336z" />
<glyph unicode="&#xbf;" horiz-adv-x="898" d="M84 -32q0 -86 28 -152q28 -64 82 -106q56 -44 130 -64q72 -20 164 -20q38 0 74 4q38 4 72 16q34 8 66 22q30 14 56 32q26 20 48 40q20 20 36 44q16 26 22 52q8 26 8 56q0 28 -10 54q-12 24 -32 44h-164v-76q0 -46 -12 -82q-10 -34 -32 -60q-20 -26 -56 -38 q-34 -12 -80 -12q-50 0 -88 12t-66 38t-42 64q-14 36 -14 82q0 28 4 52q2 22 8 42t16 38q10 20 22 36t26 30q14 16 28 30q16 14 34 28q16 16 34 30q44 36 76 72q30 34 50 70q18 36 28 76q8 38 8 82q0 28 -6 54t-16 52q-12 26 -22 46q-8 20 -16 32h-58v-66q0 -46 -10 -84 q-8 -38 -28 -64q-18 -30 -48 -60q-30 -28 -72 -58q-58 -42 -102 -84q-44 -44 -78 -88q-34 -46 -52 -100q-16 -54 -16 -116zM370 954q0 -32 12 -58q10 -26 32 -48t48 -32q26 -12 58 -12q30 0 58 12q28 10 48 32q22 22 32 48q12 26 12 58t-12 58q-10 28 -32 48q-20 22 -48 34 q-28 10 -58 10q-32 0 -58 -10q-26 -12 -48 -34q-22 -20 -32 -48q-12 -26 -12 -58z" />
<glyph unicode="&#xc0;" horiz-adv-x="1480" d="M10 0h458v80q-52 2 -90 8t-58 14q-22 10 -32 26q-12 18 -12 42q0 8 2 16l4 20q4 12 8 22q2 12 10 24q30 74 90 224h604q24 -58 96 -226l8 -24l8 -20l4 -20q2 -8 2 -18q0 -24 -10 -40q-12 -16 -32 -26q-22 -8 -60 -14q-36 -6 -88 -8v-80h548v80q-22 2 -42 8q-18 4 -34 12 q-14 6 -26 20t-20 36q-188 434 -564 1300h-226q14 -34 62 -136q-120 -290 -484 -1164q-10 -22 -22 -36q-14 -14 -30 -20q-16 -8 -36 -12q-18 -6 -38 -8v-14v-66zM368 1864q80 -76 318 -306h80q-38 76 -152 306h-246zM426 566q66 160 260 640q68 -160 270 -640h-530z" />
<glyph unicode="&#xc1;" horiz-adv-x="1480" d="M10 0h458v80q-52 2 -90 8t-58 14q-22 10 -32 26q-12 18 -12 42q0 8 2 16l4 20q4 12 8 22q2 12 10 24q30 74 90 224h604q24 -58 96 -226l8 -24l8 -20l4 -20q2 -8 2 -18q0 -24 -10 -40q-12 -16 -32 -26q-22 -8 -60 -14q-36 -6 -88 -8v-80h548v80q-22 2 -42 8q-18 4 -34 12 q-14 6 -26 20t-20 36q-188 434 -564 1300h-226q14 -34 62 -136q-120 -290 -484 -1164q-10 -22 -22 -36q-14 -14 -30 -20q-16 -8 -36 -12q-18 -6 -38 -8v-14v-66zM426 566q66 160 260 640q68 -160 270 -640h-530zM638 1558h80q80 76 318 306h-246q-38 -76 -152 -306z" />
<glyph unicode="&#xc2;" horiz-adv-x="1480" d="M10 0h458v80q-52 2 -90 8t-58 14q-22 10 -32 26q-12 18 -12 42q0 8 2 16l4 20q4 12 8 22q2 12 10 24q30 74 90 224h604q24 -58 96 -226l8 -24l8 -20l4 -20q2 -8 2 -18q0 -24 -10 -40q-12 -16 -32 -26q-22 -8 -60 -14q-36 -6 -88 -8v-80h548v80q-22 2 -42 8q-18 4 -34 12 q-14 6 -26 20t-20 36q-188 434 -564 1300h-226q14 -34 62 -136q-120 -290 -484 -1164q-10 -22 -22 -36q-14 -14 -30 -20q-16 -8 -36 -12q-18 -6 -38 -8v-14v-66zM330 1558h94q70 46 282 184q72 -46 284 -184h94q-78 82 -308 326h-140q-76 -82 -306 -326zM426 566 q66 160 260 640q68 -160 270 -640h-530z" />
<glyph unicode="&#xc3;" horiz-adv-x="1480" d="M10 0h458v80q-52 2 -90 8t-58 14q-22 10 -32 26q-12 18 -12 42q0 8 2 16l4 20q4 12 8 22q2 12 10 24q30 74 90 224h604q24 -58 96 -226l8 -24l8 -20l4 -20q2 -8 2 -18q0 -24 -10 -40q-12 -16 -32 -26q-22 -8 -60 -14q-36 -6 -88 -8v-80h548v80q-22 2 -42 8q-18 4 -34 12 q-14 6 -26 20t-20 36q-188 434 -564 1300h-226q14 -34 62 -136q-120 -290 -484 -1164q-10 -22 -22 -36q-14 -14 -30 -20q-16 -8 -36 -12q-18 -6 -38 -8v-14v-66zM342 1598q26 -8 76 -22q16 32 32 56q14 24 28 40q12 14 30 24q18 8 42 8q16 0 32 -6q18 -6 34 -18 q18 -12 36 -26q18 -12 36 -26t38 -26q18 -12 38 -22q20 -14 42 -18q22 -6 46 -6q18 0 34 2t32 8q14 6 28 14q12 10 26 24q14 12 28 30t30 44q14 24 30 54q16 32 34 70q-20 6 -76 20q-18 -32 -34 -56t-28 -40q-12 -14 -30 -22t-42 -8q-16 0 -34 4q-16 6 -32 18q-18 12 -34 24 q-18 12 -36 26t-38 26l-40 24q-22 12 -44 20q-20 6 -42 6q-18 0 -36 -4q-16 -2 -30 -8q-16 -6 -30 -14q-14 -10 -28 -22q-14 -14 -26 -32q-14 -20 -28 -44q-16 -24 -32 -54q-16 -32 -32 -68zM426 566q66 160 260 640q68 -160 270 -640h-530z" />
<glyph unicode="&#xc4;" horiz-adv-x="1480" d="M10 0h458v80q-52 2 -90 8t-58 14q-22 10 -32 26q-12 18 -12 42q0 8 2 16l4 20q4 12 8 22q2 12 10 24q30 74 90 224h604q24 -58 96 -226l8 -24l8 -20l4 -20q2 -8 2 -18q0 -24 -10 -40q-12 -16 -32 -26q-22 -8 -60 -14q-36 -6 -88 -8v-80h548v80q-22 2 -42 8q-18 4 -34 12 q-14 6 -26 20t-20 36q-188 434 -564 1300h-226q14 -34 62 -136q-120 -290 -484 -1164q-10 -22 -22 -36q-14 -14 -30 -20q-16 -8 -36 -12q-18 -6 -38 -8v-14v-66zM376 1704q0 -28 10 -50q8 -22 26 -40t40 -28t50 -10q26 0 48 10t40 28t28 40q8 22 8 50q0 24 -8 46 q-10 22 -28 40t-40 28q-22 8 -48 8q-28 0 -50 -8q-22 -10 -40 -28t-26 -40q-10 -22 -10 -46zM426 566q66 160 260 640q68 -160 270 -640h-530zM786 1704q0 -28 8 -50t28 -40q18 -18 40 -28t50 -10q26 0 48 10q20 10 40 28q18 18 28 40q8 22 8 50q0 24 -8 46q-10 22 -28 40 q-20 18 -40 28q-22 8 -48 8q-28 0 -50 -8q-22 -10 -40 -28q-20 -18 -28 -40t-8 -46z" />
<glyph unicode="&#xc5;" horiz-adv-x="1480" d="M10 0h458v80q-52 2 -90 8t-58 14q-22 10 -32 26q-12 18 -12 42q0 8 2 16l4 20q4 12 8 22q2 12 10 24q30 74 90 224h604q24 -58 96 -226l8 -24l8 -20l4 -20q2 -8 2 -18q0 -24 -10 -40q-12 -16 -32 -26q-22 -8 -60 -14q-36 -6 -88 -8v-80h548v80q-22 2 -42 8q-18 4 -34 12 q-14 6 -26 20t-20 36q-188 434 -564 1300h-226q14 -34 62 -136q-120 -290 -484 -1164q-10 -22 -22 -36q-14 -14 -30 -20q-16 -8 -36 -12q-18 -6 -38 -8v-14v-66zM426 566q66 160 260 640q68 -160 270 -640h-530zM516 1730q0 -40 12 -72q14 -34 40 -60q26 -28 60 -42 q36 -12 78 -12q44 0 78 12q34 14 60 42q26 26 40 60q14 32 14 72t-14 74q-14 32 -40 60q-26 26 -60 40q-34 12 -78 12q-42 0 -78 -12q-34 -14 -60 -40q-26 -28 -40 -60q-12 -34 -12 -74zM602 1730q0 24 6 44t18 34q12 16 32 24q20 10 48 10q26 0 46 -10q20 -8 32 -24 q12 -14 20 -34t8 -44t-8 -44t-20 -36q-12 -14 -32 -22t-46 -8q-28 0 -48 8t-32 22q-12 16 -18 36t-6 44z" />
<glyph unicode="&#xc6;" horiz-adv-x="2160" d="M10 0h494v80q-58 0 -96 2q-38 4 -60 10t-32 20t-10 40q0 24 8 48q8 26 26 50q46 66 186 266h542v-286q0 -26 -6 -44q-4 -18 -10 -32q-6 -16 -16 -26q-10 -12 -22 -20q-14 -8 -30 -12l-36 -8q-20 -4 -42 -6q-24 -2 -48 -2v-80h1160q14 92 60 368h-56q-26 -40 -46 -72 q-22 -34 -38 -60q-20 -28 -36 -50q-18 -22 -36 -36q-18 -16 -38 -26q-20 -12 -42 -18t-50 -8q-26 -4 -60 -4h-206q-54 0 -94 6q-40 8 -66 20q-24 14 -36 42q-10 28 -10 72v454h348q34 0 58 -12t40 -34q16 -24 28 -58t22 -80h68v462h-68q-10 -46 -22 -80q-12 -36 -28 -58 q-16 -24 -40 -34q-24 -12 -58 -12h-348v562h390q32 0 58 -4t48 -10q20 -6 40 -18q20 -10 38 -26q16 -16 32 -34q14 -18 26 -42l26 -52t30 -62h56v342h-1266v-80q46 -4 82 -8t58 -10q22 -8 38 -22q14 -14 22 -34l-798 -1128q-14 -18 -30 -32q-14 -12 -30 -22q-16 -8 -36 -14 q-18 -6 -38 -8v-14v-66zM588 606q120 172 480 684v-684h-480z" />
<glyph unicode="&#xc7;" horiz-adv-x="1378" d="M88 688q0 -76 12 -148q10 -72 36 -136q24 -66 58 -122t78 -102q44 -48 96 -84q54 -38 118 -64q50 -20 106 -34t116 -16q-24 -60 -74 -180q46 -4 80 -10q36 -6 60 -16t38 -26q14 -18 14 -40q0 -26 -18 -42q-16 -18 -48 -30t-76 -18q-42 -6 -98 -6q2 -16 12 -66q36 0 74 2 q36 4 70 10t62 16q30 8 54 20t44 28t36 34q14 18 22 42q6 22 6 50q0 42 -14 70q-16 30 -44 46q-32 16 -72 26q-40 8 -92 10l30 78q38 0 70 2q34 2 66 6q32 2 62 8q32 6 60 14q28 6 54 16q28 8 52 20q26 10 50 22l52 24q14 116 46 348h-76q-30 -88 -70 -156q-38 -68 -86 -112 q-46 -44 -108 -66t-140 -22q-62 0 -118 12q-54 14 -100 40q-46 24 -86 58q-40 36 -70 80t-54 98q-24 52 -40 114q-16 60 -24 124q-6 64 -6 136q0 60 6 120t20 114q14 56 36 104q20 48 50 90q30 40 66 74q38 32 84 56q44 26 98 38q52 12 114 12q70 0 130 -20t110 -60t84 -104 q36 -66 58 -154h72v314q-36 26 -80 50q-42 22 -96 42q-52 18 -118 26q-68 10 -148 10q-74 0 -142 -14q-70 -12 -134 -40q-64 -26 -120 -66q-58 -38 -106 -86q-46 -50 -84 -110q-36 -62 -64 -132t-42 -152q-14 -80 -14 -170z" />
<glyph unicode="&#xc8;" horiz-adv-x="1372" d="M70 0h1158q16 92 62 368h-58q-24 -40 -44 -72q-22 -34 -40 -60q-18 -28 -34 -50q-18 -22 -36 -36q-20 -16 -40 -26q-20 -12 -40 -18q-22 -6 -50 -8q-28 -4 -62 -4h-204q-56 0 -96 6q-40 8 -64 20q-24 14 -36 42q-10 28 -10 72v454h348q34 0 58 -12t40 -34q14 -24 28 -58 q12 -34 20 -80h70v462h-70q-8 -46 -20 -80q-14 -36 -28 -58q-16 -24 -40 -34q-24 -12 -58 -12h-348v562h390q32 0 58 -4t46 -10q22 -6 42 -18q20 -10 36 -26q18 -16 32 -34q16 -18 28 -42l26 -52t30 -62h54v342h-1148v-80q24 -2 46 -4q24 -2 44 -4q18 -4 34 -10 q18 -6 32 -12q12 -8 22 -20q10 -10 16 -24q6 -16 10 -34t4 -42v-978q0 -26 -4 -44t-10 -32q-6 -16 -16 -26q-10 -12 -22 -20q-14 -8 -32 -12q-16 -4 -34 -8q-20 -4 -44 -6q-22 -2 -46 -2v-24v-56zM370 1864q80 -76 318 -306h80q-38 76 -152 306h-246z" />
<glyph unicode="&#xc9;" horiz-adv-x="1372" d="M70 0h1158q16 92 62 368h-58q-24 -40 -44 -72q-22 -34 -40 -60q-18 -28 -34 -50q-18 -22 -36 -36q-20 -16 -40 -26q-20 -12 -40 -18q-22 -6 -50 -8q-28 -4 -62 -4h-204q-56 0 -96 6q-40 8 -64 20q-24 14 -36 42q-10 28 -10 72v454h348q34 0 58 -12t40 -34q14 -24 28 -58 q12 -34 20 -80h70v462h-70q-8 -46 -20 -80q-14 -36 -28 -58q-16 -24 -40 -34q-24 -12 -58 -12h-348v562h390q32 0 58 -4t46 -10q22 -6 42 -18q20 -10 36 -26q18 -16 32 -34q16 -18 28 -42l26 -52t30 -62h54v342h-1148v-80q24 -2 46 -4q24 -2 44 -4q18 -4 34 -10 q18 -6 32 -12q12 -8 22 -20q10 -10 16 -24q6 -16 10 -34t4 -42v-978q0 -26 -4 -44t-10 -32q-6 -16 -16 -26q-10 -12 -22 -20q-14 -8 -32 -12q-16 -4 -34 -8q-20 -4 -44 -6q-22 -2 -46 -2v-24v-56zM642 1558h78q80 76 318 306h-246q-38 -76 -150 -306z" />
<glyph unicode="&#xca;" horiz-adv-x="1372" d="M70 0h1158q16 92 62 368h-58q-24 -40 -44 -72q-22 -34 -40 -60q-18 -28 -34 -50q-18 -22 -36 -36q-20 -16 -40 -26q-20 -12 -40 -18q-22 -6 -50 -8q-28 -4 -62 -4h-204q-56 0 -96 6q-40 8 -64 20q-24 14 -36 42q-10 28 -10 72v454h348q34 0 58 -12t40 -34q14 -24 28 -58 q12 -34 20 -80h70v462h-70q-8 -46 -20 -80q-14 -36 -28 -58q-16 -24 -40 -34q-24 -12 -58 -12h-348v562h390q32 0 58 -4t46 -10q22 -6 42 -18q20 -10 36 -26q18 -16 32 -34q16 -18 28 -42l26 -52t30 -62h54v342h-1148v-80q24 -2 46 -4q24 -2 44 -4q18 -4 34 -10 q18 -6 32 -12q12 -8 22 -20q10 -10 16 -24q6 -16 10 -34t4 -42v-978q0 -26 -4 -44t-10 -32q-6 -16 -16 -26q-10 -12 -22 -20q-14 -8 -32 -12q-16 -4 -34 -8q-20 -4 -44 -6q-22 -2 -46 -2v-24v-56zM332 1558h94q70 46 282 184q72 -46 284 -184h94q-78 82 -308 326h-140 q-76 -82 -306 -326z" />
<glyph unicode="&#xcb;" horiz-adv-x="1372" d="M70 0h1158q16 92 62 368h-58q-24 -40 -44 -72q-22 -34 -40 -60q-18 -28 -34 -50q-18 -22 -36 -36q-20 -16 -40 -26q-20 -12 -40 -18q-22 -6 -50 -8q-28 -4 -62 -4h-204q-56 0 -96 6q-40 8 -64 20q-24 14 -36 42q-10 28 -10 72v454h348q34 0 58 -12t40 -34q14 -24 28 -58 q12 -34 20 -80h70v462h-70q-8 -46 -20 -80q-14 -36 -28 -58q-16 -24 -40 -34q-24 -12 -58 -12h-348v562h390q32 0 58 -4t46 -10q22 -6 42 -18q20 -10 36 -26q18 -16 32 -34q16 -18 28 -42l26 -52t30 -62h54v342h-1148v-80q24 -2 46 -4q24 -2 44 -4q18 -4 34 -10 q18 -6 32 -12q12 -8 22 -20q10 -10 16 -24q6 -16 10 -34t4 -42v-978q0 -26 -4 -44t-10 -32q-6 -16 -16 -26q-10 -12 -22 -20q-14 -8 -32 -12q-16 -4 -34 -8q-20 -4 -44 -6q-22 -2 -46 -2v-24v-56zM378 1704q0 -28 10 -50q8 -22 26 -40t40 -28t50 -10q26 0 48 10t40 28t28 40 q8 22 8 50q0 24 -8 46q-10 22 -28 40t-40 28q-22 8 -48 8q-28 0 -50 -8q-22 -10 -40 -28t-26 -40q-10 -22 -10 -46zM788 1704q0 -28 8 -50t28 -40q18 -18 40 -28t50 -10q26 0 48 10t40 28t28 40q8 22 8 50q0 24 -8 46q-10 22 -28 40t-40 28q-22 8 -48 8q-28 0 -50 -8 q-22 -10 -40 -28q-20 -18 -28 -40t-8 -46z" />
<glyph unicode="&#xcc;" horiz-adv-x="754" d="M38 1864q80 -76 318 -306h80q-38 76 -152 306h-246zM70 0h614v80q-26 0 -48 2q-24 2 -42 6q-20 4 -36 8q-18 4 -30 12q-14 8 -24 20q-10 10 -16 26q-6 14 -10 32q-2 18 -2 44v978q0 24 2 42q4 18 10 34q6 14 16 24q10 12 24 20q12 6 30 12q16 6 36 10q18 2 42 4 q22 2 48 4v80h-614v-80q24 -2 46 -4q24 -2 44 -4q18 -4 34 -10q18 -6 32 -12q12 -8 22 -20q10 -10 16 -24q6 -16 10 -34t4 -42v-978q0 -26 -4 -44t-10 -32q-6 -16 -16 -26q-10 -12 -22 -20q-14 -8 -32 -12q-16 -4 -34 -8q-20 -4 -44 -6q-22 -2 -46 -2v-24v-56z" />
<glyph unicode="&#xcd;" horiz-adv-x="754" d="M70 0h614v80q-26 0 -48 2q-24 2 -42 6q-20 4 -36 8q-18 4 -30 12q-14 8 -24 20q-10 10 -16 26q-6 14 -10 32q-2 18 -2 44v978q0 24 2 42q4 18 10 34q6 14 16 24q10 12 24 20q12 6 30 12q16 6 36 10q18 2 42 4q22 2 48 4v80h-614v-80q24 -2 46 -4q24 -2 44 -4 q18 -4 34 -10q18 -6 32 -12q12 -8 22 -20q10 -10 16 -24q6 -16 10 -34t4 -42v-978q0 -26 -4 -44t-10 -32q-6 -16 -16 -26q-10 -12 -22 -20q-14 -8 -32 -12q-16 -4 -34 -8q-20 -4 -44 -6q-22 -2 -46 -2v-24v-56zM310 1558h80q78 76 316 306h-246q-38 -76 -150 -306z" />
<glyph unicode="&#xce;" horiz-adv-x="754" d="M0 1558h94q70 46 282 184q72 -46 284 -184h94q-78 82 -308 326h-138q-78 -82 -308 -326zM70 0h614v80q-26 0 -48 2q-24 2 -42 6q-20 4 -36 8q-18 4 -30 12q-14 8 -24 20q-10 10 -16 26q-6 14 -10 32q-2 18 -2 44v978q0 24 2 42q4 18 10 34q6 14 16 24q10 12 24 20 q12 6 30 12q16 6 36 10q18 2 42 4q22 2 48 4v80h-614v-80q24 -2 46 -4q24 -2 44 -4q18 -4 34 -10q18 -6 32 -12q12 -8 22 -20q10 -10 16 -24q6 -16 10 -34t4 -42v-978q0 -26 -4 -44t-10 -32q-6 -16 -16 -26q-10 -12 -22 -20q-14 -8 -32 -12q-16 -4 -34 -8q-20 -4 -44 -6 q-22 -2 -46 -2v-24v-56z" />
<glyph unicode="&#xcf;" horiz-adv-x="754" d="M48 1704q0 -28 8 -50t26 -40t40 -28t50 -10q26 0 48 10t40 28t28 40q8 22 8 50q0 24 -8 46q-10 22 -28 40t-40 28q-22 8 -48 8q-28 0 -50 -8q-22 -10 -40 -28t-26 -40t-8 -46zM70 0h614v80q-26 0 -48 2q-24 2 -42 6q-20 4 -36 8q-18 4 -30 12q-14 8 -24 20q-10 10 -16 26 q-6 14 -10 32q-2 18 -2 44v978q0 24 2 42q4 18 10 34q6 14 16 24q10 12 24 20q12 6 30 12q16 6 36 10q18 2 42 4q22 2 48 4v80h-614v-80q24 -2 46 -4q24 -2 44 -4q18 -4 34 -10q18 -6 32 -12q12 -8 22 -20q10 -10 16 -24q6 -16 10 -34t4 -42v-978q0 -26 -4 -44t-10 -32 q-6 -16 -16 -26q-10 -12 -22 -20q-14 -8 -32 -12q-16 -4 -34 -8q-20 -4 -44 -6q-22 -2 -46 -2v-24v-56zM456 1704q0 -28 8 -50q10 -22 28 -40t40 -28t50 -10q26 0 48 10t40 28t28 40q8 22 8 50q0 24 -8 46q-10 22 -28 40t-40 28q-22 8 -48 8q-28 0 -50 -8q-22 -10 -40 -28 t-28 -40q-8 -22 -8 -46z" />
<glyph unicode="&#xd0;" horiz-adv-x="1568" d="M92 0h660q74 0 144 12t138 38q66 24 124 60t108 84q48 48 88 108t70 130q28 70 42 154q14 82 14 174q0 66 -12 130q-10 64 -32 126t-56 116q-34 52 -80 98t-106 84q-58 38 -132 66q-72 28 -158 42q-84 16 -184 16h-628v-80l48 -4q22 -2 42 -4q18 -4 36 -10q16 -6 30 -12 q12 -8 22 -20q10 -10 16 -24q6 -16 10 -34q6 -18 6 -42v-428h-210v-88h210v-462q0 -26 -6 -44q-4 -18 -10 -32q-6 -16 -16 -26q-10 -12 -22 -20q-14 -8 -30 -12l-36 -8q-20 -4 -42 -6q-24 -2 -48 -2v-80zM498 240v452h356v88h-356v564h184q78 0 146 -14q66 -14 122 -40 q56 -28 100 -62q44 -36 78 -80t60 -94t40 -108q16 -56 24 -114q10 -58 10 -118q0 -152 -36 -268q-34 -116 -102 -194q-68 -80 -160 -118q-94 -40 -212 -40h-46q-54 0 -94 6q-40 8 -66 20q-24 14 -36 44t-12 76z" />
<glyph unicode="&#xd1;" horiz-adv-x="1650" d="M70 0h536v80q-26 0 -48 2q-24 2 -42 6q-20 4 -36 8q-18 4 -30 12q-14 8 -24 20q-10 10 -16 26q-6 14 -10 32q-2 18 -2 44v906q226 -284 908 -1136h84v1208q0 24 4 42q2 18 8 34q8 14 18 24q10 12 24 20q12 6 28 12q18 6 38 10q18 2 40 4q24 2 50 4v80h-538v-80 q26 -2 48 -4q24 -2 44 -4q18 -4 34 -10t30 -12q12 -8 24 -20q10 -10 16 -24q6 -16 10 -34t4 -42v-850q-214 270 -852 1080h-350v-80q18 0 34 -2q16 -4 30 -6q12 -4 24 -10t22 -12q10 -8 22 -18q10 -10 24 -22q10 -12 24 -26t28 -34v-998q0 -26 -4 -44t-10 -32 q-6 -16 -16 -26q-10 -12 -22 -20q-14 -8 -32 -12q-16 -4 -34 -8q-20 -4 -44 -6q-22 -2 -46 -2v-24v-56zM448 1598q26 -8 76 -22q18 32 32 56q16 24 28 40q12 14 30 24q18 8 44 8q14 0 32 -6q16 -6 32 -18q18 -12 36 -26q18 -12 36 -26q20 -14 38 -26t38 -22q20 -14 42 -18 q22 -6 46 -6q18 0 34 2t32 8q14 6 28 14q14 10 28 24q14 12 28 30t28 44q14 24 30 54q16 32 34 70q-18 6 -76 20q-18 -32 -34 -56q-14 -24 -28 -40q-12 -14 -30 -22t-40 -8q-18 0 -34 4q-18 6 -34 18q-18 12 -34 24q-18 12 -36 26t-38 26l-40 24q-22 12 -42 20q-22 6 -44 6 q-18 0 -34 -4q-18 -2 -32 -8t-28 -14q-14 -10 -28 -22q-14 -14 -28 -32q-14 -20 -28 -44q-16 -24 -30 -54z" />
<glyph unicode="&#xd2;" horiz-adv-x="1532" d="M88 690q0 -72 12 -140q10 -68 34 -132q20 -64 54 -122q34 -56 76 -106q44 -48 96 -88q52 -38 116 -66q60 -28 132 -42t152 -14q68 0 134 12q68 14 130 40q62 28 116 66q56 40 102 88q46 50 82 110q36 62 64 132t42 150t14 170q0 70 -12 138q-12 70 -34 134t-54 120 q-34 56 -76 106q-44 48 -96 86q-54 40 -116 68t-134 44q-70 14 -150 14q-70 0 -136 -14t-128 -42q-64 -26 -118 -66q-56 -38 -102 -86q-46 -50 -82 -110q-38 -62 -64 -132q-28 -72 -42 -150q-12 -80 -12 -168zM308 724q0 66 6 126q6 62 20 118q14 58 34 106q20 50 48 92 q28 40 62 74q34 32 74 56t88 38q48 12 104 12q62 0 116 -14t100 -42t84 -64q36 -36 66 -82q30 -44 50 -94q22 -52 36 -108t22 -114q6 -56 6 -116q0 -66 -6 -126q-8 -62 -22 -120q-14 -56 -34 -106q-20 -48 -48 -90t-62 -74t-74 -56q-40 -26 -88 -36q-48 -12 -102 -12 q-64 0 -118 14t-100 42t-84 62q-36 36 -66 80q-30 46 -50 96q-22 50 -36 108q-14 56 -20 114t-6 116zM428 1864q80 -76 318 -306h80q-38 76 -152 306h-246z" />
<glyph unicode="&#xd3;" horiz-adv-x="1532" d="M88 690q0 -72 12 -140q10 -68 34 -132q20 -64 54 -122q34 -56 76 -106q44 -48 96 -88q52 -38 116 -66q60 -28 132 -42t152 -14q68 0 134 12q68 14 130 40q62 28 116 66q56 40 102 88q46 50 82 110q36 62 64 132t42 150t14 170q0 70 -12 138q-12 70 -34 134t-54 120 q-34 56 -76 106q-44 48 -96 86q-54 40 -116 68t-134 44q-70 14 -150 14q-70 0 -136 -14t-128 -42q-64 -26 -118 -66q-56 -38 -102 -86q-46 -50 -82 -110q-38 -62 -64 -132q-28 -72 -42 -150q-12 -80 -12 -168zM308 724q0 66 6 126q6 62 20 118q14 58 34 106q20 50 48 92 q28 40 62 74q34 32 74 56t88 38q48 12 104 12q62 0 116 -14t100 -42t84 -64q36 -36 66 -82q30 -44 50 -94q22 -52 36 -108t22 -114q6 -56 6 -116q0 -66 -6 -126q-8 -62 -22 -120q-14 -56 -34 -106q-20 -48 -48 -90t-62 -74t-74 -56q-40 -26 -88 -36q-48 -12 -102 -12 q-64 0 -118 14t-100 42t-84 62q-36 36 -66 80q-30 46 -50 96q-22 50 -36 108q-14 56 -20 114t-6 116zM698 1558h80q80 76 318 306h-246q-38 -76 -152 -306z" />
<glyph unicode="&#xd4;" horiz-adv-x="1532" d="M88 690q0 -72 12 -140q10 -68 34 -132q20 -64 54 -122q34 -56 76 -106q44 -48 96 -88q52 -38 116 -66q60 -28 132 -42t152 -14q68 0 134 12q68 14 130 40q62 28 116 66q56 40 102 88q46 50 82 110q36 62 64 132t42 150t14 170q0 70 -12 138q-12 70 -34 134t-54 120 q-34 56 -76 106q-44 48 -96 86q-54 40 -116 68t-134 44q-70 14 -150 14q-70 0 -136 -14t-128 -42q-64 -26 -118 -66q-56 -38 -102 -86q-46 -50 -82 -110q-38 -62 -64 -132q-28 -72 -42 -150q-12 -80 -12 -168zM308 724q0 66 6 126q6 62 20 118q14 58 34 106q20 50 48 92 q28 40 62 74q34 32 74 56t88 38q48 12 104 12q62 0 116 -14t100 -42t84 -64q36 -36 66 -82q30 -44 50 -94q22 -52 36 -108t22 -114q6 -56 6 -116q0 -66 -6 -126q-8 -62 -22 -120q-14 -56 -34 -106q-20 -48 -48 -90t-62 -74t-74 -56q-40 -26 -88 -36q-48 -12 -102 -12 q-64 0 -118 14t-100 42t-84 62q-36 36 -66 80q-30 46 -50 96q-22 50 -36 108q-14 56 -20 114t-6 116zM390 1558h94q70 46 282 184q70 -46 282 -184h94q-76 82 -306 326h-140q-76 -82 -306 -326z" />
<glyph unicode="&#xd5;" horiz-adv-x="1532" d="M88 690q0 -72 12 -140q10 -68 34 -132q20 -64 54 -122q34 -56 76 -106q44 -48 96 -88q52 -38 116 -66q60 -28 132 -42t152 -14q68 0 134 12q68 14 130 40q62 28 116 66q56 40 102 88q46 50 82 110q36 62 64 132t42 150t14 170q0 70 -12 138q-12 70 -34 134t-54 120 q-34 56 -76 106q-44 48 -96 86q-54 40 -116 68t-134 44q-70 14 -150 14q-70 0 -136 -14t-128 -42q-64 -26 -118 -66q-56 -38 -102 -86q-46 -50 -82 -110q-38 -62 -64 -132q-28 -72 -42 -150q-12 -80 -12 -168zM308 724q0 66 6 126q6 62 20 118q14 58 34 106q20 50 48 92 q28 40 62 74q34 32 74 56t88 38q48 12 104 12q62 0 116 -14t100 -42t84 -64q36 -36 66 -82q30 -44 50 -94q22 -52 36 -108t22 -114q6 -56 6 -116q0 -66 -6 -126q-8 -62 -22 -120q-14 -56 -34 -106q-20 -48 -48 -90t-62 -74t-74 -56q-40 -26 -88 -36q-48 -12 -102 -12 q-64 0 -118 14t-100 42t-84 62q-36 36 -66 80q-30 46 -50 96q-22 50 -36 108q-14 56 -20 114t-6 116zM392 1598q24 -8 74 -22q18 32 32 56q16 24 28 40q12 14 32 24q18 8 42 8q16 0 32 -6t34 -18q16 -12 34 -26q18 -12 38 -26q18 -14 36 -26q20 -12 40 -22q20 -14 40 -18 q22 -6 48 -6q18 0 34 2t30 8t28 14q14 10 28 24q14 12 28 30t30 44q14 24 28 54q16 32 34 70q-18 6 -74 20q-20 -32 -34 -56q-16 -24 -28 -40q-12 -14 -30 -22q-20 -8 -42 -8q-18 0 -34 4q-16 6 -34 18q-16 12 -34 24q-16 12 -36 26q-18 14 -38 26l-40 24t-42 20 q-22 6 -44 6q-18 0 -34 -4q-16 -2 -30 -8q-16 -6 -30 -14q-14 -10 -28 -22q-14 -14 -28 -32q-14 -20 -28 -44t-30 -54q-16 -32 -32 -68z" />
<glyph unicode="&#xd6;" horiz-adv-x="1532" d="M88 690q0 -72 12 -140q10 -68 34 -132q20 -64 54 -122q34 -56 76 -106q44 -48 96 -88q52 -38 116 -66q60 -28 132 -42t152 -14q68 0 134 12q68 14 130 40q62 28 116 66q56 40 102 88q46 50 82 110q36 62 64 132t42 150t14 170q0 70 -12 138q-12 70 -34 134t-54 120 q-34 56 -76 106q-44 48 -96 86q-54 40 -116 68t-134 44q-70 14 -150 14q-70 0 -136 -14t-128 -42q-64 -26 -118 -66q-56 -38 -102 -86q-46 -50 -82 -110q-38 -62 -64 -132q-28 -72 -42 -150q-12 -80 -12 -168zM308 724q0 66 6 126q6 62 20 118q14 58 34 106q20 50 48 92 q28 40 62 74q34 32 74 56t88 38q48 12 104 12q62 0 116 -14t100 -42t84 -64q36 -36 66 -82q30 -44 50 -94q22 -52 36 -108t22 -114q6 -56 6 -116q0 -66 -6 -126q-8 -62 -22 -120q-14 -56 -34 -106q-20 -48 -48 -90t-62 -74t-74 -56q-40 -26 -88 -36q-48 -12 -102 -12 q-64 0 -118 14t-100 42t-84 62q-36 36 -66 80q-30 46 -50 96q-22 50 -36 108q-14 56 -20 114t-6 116zM436 1704q0 -28 8 -50t28 -40q18 -18 40 -28t50 -10q26 0 48 10q20 10 40 28q18 18 26 40q10 22 10 50q0 24 -10 46q-8 22 -26 40q-20 18 -40 28q-22 8 -48 8 q-28 0 -50 -8q-22 -10 -40 -28q-20 -18 -28 -40t-8 -46zM846 1704q0 -28 8 -50t26 -40q20 -18 42 -28t48 -10t48 10t40 28q20 18 28 40q10 22 10 50q0 24 -10 46q-8 22 -28 40q-18 18 -40 28q-22 8 -48 8t-48 -8q-22 -10 -42 -28q-18 -18 -26 -40t-8 -46z" />
<glyph unicode="&#xd7;" horiz-adv-x="1000" d="M130 346q22 -22 90 -86q68 70 278 278q70 -70 282 -278q22 22 90 86q-70 70 -282 280q70 72 282 284l-90 90q-70 -72 -282 -286q-70 72 -278 286l-90 -90q70 -72 280 -284z" />
<glyph unicode="&#xd8;" horiz-adv-x="1544" d="M94 690q0 -72 12 -140q10 -68 34 -132q20 -64 54 -122q34 -56 76 -106q14 -16 30 -32t34 -28q-44 -66 -130 -198q20 -12 80 -46q32 46 126 188q16 -12 34 -20q18 -10 38 -18q60 -28 132 -42t152 -14q70 0 136 12q66 14 128 40q62 28 116 66q56 40 102 88q46 50 82 110 q38 62 64 132q28 70 42 150t14 170q0 70 -12 138q-12 70 -34 134t-54 120q-34 56 -76 106l-28 28t-30 26q42 64 126 188l-80 48q-30 -46 -120 -180q-18 12 -38 24q-20 10 -42 20q-62 28 -132 44q-72 14 -152 14q-70 0 -136 -14t-128 -42q-62 -26 -118 -66q-56 -38 -102 -86 q-46 -50 -82 -110q-36 -62 -64 -132q-28 -72 -40 -150q-14 -80 -14 -168zM314 724q0 66 6 126q6 62 20 118q14 58 34 106q20 50 48 92q28 40 62 74q34 32 76 56q40 24 86 38q48 12 104 12q62 0 116 -14t100 -42q26 -16 46 -32q22 -16 42 -36q-206 -314 -620 -942q-2 4 -4 6 l-4 4q-30 46 -50 96q-22 50 -36 108q-14 56 -20 114t-6 116zM498 206q206 314 618 940v-2q30 -44 50 -94q22 -52 36 -108t22 -114q6 -56 6 -116q0 -66 -6 -126q-8 -62 -22 -120q-14 -56 -34 -106q-20 -48 -48 -90t-62 -74q-32 -32 -72 -56q-42 -26 -90 -36q-48 -12 -102 -12 q-64 0 -118 14t-100 42q-22 12 -42 26t-36 32z" />
<glyph unicode="&#xd9;" horiz-adv-x="1568" d="M16 1358l48 -4q22 -2 42 -4q18 -4 36 -10q16 -6 30 -12q12 -8 22 -20q10 -10 16 -24q8 -16 12 -34t4 -42v-722q0 -66 10 -122q8 -56 30 -104q20 -48 50 -88q28 -38 64 -70q38 -30 82 -54q44 -22 98 -38q52 -16 110 -22q60 -6 124 -6q56 0 108 8q52 6 102 22q48 16 92 38 q46 24 84 54q36 32 66 70q32 38 54 86q22 46 34 102q12 54 12 120v726q0 24 2 42q4 18 10 34q6 14 16 24q10 12 22 20q14 6 30 12t36 10q18 2 42 4q22 2 48 4v80h-534v-80l48 -4q22 -2 42 -4q18 -4 36 -10q16 -6 30 -12q12 -8 22 -20q10 -10 16 -24q6 -16 10 -34t4 -42v-688 q0 -110 -26 -190q-28 -80 -84 -128q-56 -46 -134 -70q-80 -24 -184 -24q-88 0 -158 26q-68 24 -118 74q-48 52 -74 126q-24 74 -24 170v704q0 24 4 42q2 18 8 34q6 14 16 24q10 12 24 20q12 6 28 12t36 10q20 2 42 4t48 4v80h-614v-10v-70zM488 1864q78 -76 316 -306h80 q-38 76 -150 306h-246z" />
<glyph unicode="&#xda;" horiz-adv-x="1568" d="M16 1358l48 -4q22 -2 42 -4q18 -4 36 -10q16 -6 30 -12q12 -8 22 -20q10 -10 16 -24q8 -16 12 -34t4 -42v-722q0 -66 10 -122q8 -56 30 -104q20 -48 50 -88q28 -38 64 -70q38 -30 82 -54q44 -22 98 -38q52 -16 110 -22q60 -6 124 -6q56 0 108 8q52 6 102 22q48 16 92 38 q46 24 84 54q36 32 66 70q32 38 54 86q22 46 34 102q12 54 12 120v726q0 24 2 42q4 18 10 34q6 14 16 24q10 12 22 20q14 6 30 12t36 10q18 2 42 4q22 2 48 4v80h-534v-80l48 -4q22 -2 42 -4q18 -4 36 -10q16 -6 30 -12q12 -8 22 -20q10 -10 16 -24q6 -16 10 -34t4 -42v-688 q0 -110 -26 -190q-28 -80 -84 -128q-56 -46 -134 -70q-80 -24 -184 -24q-88 0 -158 26q-68 24 -118 74q-48 52 -74 126q-24 74 -24 170v704q0 24 4 42q2 18 8 34q6 14 16 24q10 12 24 20q12 6 28 12t36 10q20 2 42 4t48 4v80h-614v-10v-70zM758 1558h80q78 76 318 306h-246 q-38 -76 -152 -306z" />
<glyph unicode="&#xdb;" horiz-adv-x="1568" d="M16 1358l48 -4q22 -2 42 -4q18 -4 36 -10q16 -6 30 -12q12 -8 22 -20q10 -10 16 -24q8 -16 12 -34t4 -42v-722q0 -66 10 -122q8 -56 30 -104q20 -48 50 -88q28 -38 64 -70q38 -30 82 -54q44 -22 98 -38q52 -16 110 -22q60 -6 124 -6q56 0 108 8q52 6 102 22q48 16 92 38 q46 24 84 54q36 32 66 70q32 38 54 86q22 46 34 102q12 54 12 120v726q0 24 2 42q4 18 10 34q6 14 16 24q10 12 22 20q14 6 30 12t36 10q18 2 42 4q22 2 48 4v80h-534v-80l48 -4q22 -2 42 -4q18 -4 36 -10q16 -6 30 -12q12 -8 22 -20q10 -10 16 -24q6 -16 10 -34t4 -42v-688 q0 -110 -26 -190q-28 -80 -84 -128q-56 -46 -134 -70q-80 -24 -184 -24q-88 0 -158 26q-68 24 -118 74q-48 52 -74 126q-24 74 -24 170v704q0 24 4 42q2 18 8 34q6 14 16 24q10 12 24 20q12 6 28 12t36 10q20 2 42 4t48 4v80h-614v-10v-70zM448 1558h94q72 46 284 184 q70 -46 282 -184h94q-76 82 -308 326h-138q-78 -82 -308 -326z" />
<glyph unicode="&#xdc;" horiz-adv-x="1568" d="M16 1358l48 -4q22 -2 42 -4q18 -4 36 -10q16 -6 30 -12q12 -8 22 -20q10 -10 16 -24q8 -16 12 -34t4 -42v-722q0 -66 10 -122q8 -56 30 -104q20 -48 50 -88q28 -38 64 -70q38 -30 82 -54q44 -22 98 -38q52 -16 110 -22q60 -6 124 -6q56 0 108 8q52 6 102 22q48 16 92 38 q46 24 84 54q36 32 66 70q32 38 54 86q22 46 34 102q12 54 12 120v726q0 24 2 42q4 18 10 34q6 14 16 24q10 12 22 20q14 6 30 12t36 10q18 2 42 4q22 2 48 4v80h-534v-80l48 -4q22 -2 42 -4q18 -4 36 -10q16 -6 30 -12q12 -8 22 -20q10 -10 16 -24q6 -16 10 -34t4 -42v-688 q0 -110 -26 -190q-28 -80 -84 -128q-56 -46 -134 -70q-80 -24 -184 -24q-88 0 -158 26q-68 24 -118 74q-48 52 -74 126q-24 74 -24 170v704q0 24 4 42q2 18 8 34q6 14 16 24q10 12 24 20q12 6 28 12t36 10q20 2 42 4t48 4v80h-614v-10v-70zM496 1704q0 -28 8 -50t26 -40 t40 -28t50 -10q26 0 48 10t40 28q20 18 28 40q10 22 10 50q0 24 -10 46q-8 22 -28 40q-18 18 -40 28q-22 8 -48 8q-28 0 -50 -8q-22 -10 -40 -28t-26 -40t-8 -46zM906 1704q0 -28 8 -50t26 -40t40 -28t50 -10q26 0 48 10t40 28t28 40t10 50q0 24 -10 46t-28 40t-40 28 q-22 8 -48 8q-28 0 -50 -8q-22 -10 -40 -28t-26 -40t-8 -46z" />
<glyph unicode="&#xdd;" horiz-adv-x="1358" d="M10 1358q22 -4 40 -8l32 -12q14 -8 28 -22q12 -14 26 -34q146 -234 440 -704v-348q0 -26 -4 -44t-10 -32q-6 -16 -18 -26q-10 -12 -22 -20q-14 -8 -30 -12t-36 -8t-42 -6t-48 -2v-80h610v80q-24 0 -46 2t-42 6t-36 8t-28 12q-14 8 -26 20q-10 10 -16 26q-6 14 -8 32 q-4 18 -4 44v350q114 176 452 702q12 20 26 34q12 14 26 22q14 6 32 12q18 4 42 8v80h-462v-80q54 -4 90 -8t56 -12t30 -22q12 -14 12 -34q0 -12 -4 -24q-2 -12 -8 -24q-4 -10 -10 -22t-14 -24q-80 -126 -322 -504l-312 504q-10 12 -16 24t-12 22q-6 12 -8 24t-2 24 q0 20 10 34t30 22t56 12q38 4 90 8v80h-542v-6v-74zM644 1558h78q80 76 318 306h-246q-38 -76 -150 -306z" />
<glyph unicode="&#xde;" horiz-adv-x="1268" d="M70 0h670v80q-32 0 -60 2q-26 2 -52 6q-24 4 -46 10q-20 4 -38 12q-16 8 -28 20q-14 10 -22 24q-10 14 -14 32t-4 44v92h224q64 0 122 8q56 6 106 22q48 16 88 36t72 48t56 60t40 70q16 36 24 78t8 88q0 40 -8 76q-6 38 -22 74q-16 38 -40 68q-24 32 -58 60t-76 50 q-42 20 -94 38q-52 16 -116 24q-62 8 -136 8h-190v78q0 24 2 42q4 18 10 34q6 14 16 24q10 12 24 20q12 6 30 12q16 6 36 10q18 2 42 4q22 2 48 4v80h-614v-80q24 -2 46 -4q24 -2 44 -4q18 -4 34 -10q18 -6 32 -12q12 -8 22 -20q10 -10 16 -24q6 -16 10 -34t4 -42v-978 q0 -26 -4 -44t-10 -32q-6 -16 -16 -26q-10 -12 -22 -20q-14 -8 -32 -12q-16 -4 -34 -8q-20 -4 -44 -6q-22 -2 -46 -2v-24v-56zM476 416v620h148q96 0 166 -20q70 -22 116 -64t68 -98q24 -58 24 -132q0 -86 -24 -144q-22 -60 -68 -94t-116 -52q-70 -16 -166 -16h-148z" />
<glyph unicode="&#xdf;" horiz-adv-x="1350" d="M82 0h348v1118q0 90 18 158q16 66 54 114q36 48 86 72t112 24q56 0 96 -14t64 -42t36 -68q12 -38 12 -88q0 -46 -10 -86q-12 -40 -30 -72t-40 -62q-20 -28 -42 -54q-22 -28 -44 -54q-22 -24 -40 -48q-18 -26 -28 -54q-8 -26 -8 -58q0 -24 2 -44q4 -22 10 -40t16 -36 q12 -18 24 -34l30 -30q16 -14 36 -28t44 -28q22 -14 48 -28q28 -16 54 -32t46 -30q22 -14 40 -28q20 -16 34 -30q16 -16 26 -32q12 -16 20 -32q8 -18 12 -38q4 -22 4 -44q0 -44 -14 -78q-12 -34 -38 -56q-24 -22 -58 -34q-34 -10 -76 -10q-56 0 -96 18q-40 20 -68 60t-48 92 t-36 118h-76q4 -68 12 -272q26 -26 60 -46q32 -20 72 -34q40 -16 86 -22t98 -6q34 0 66 4q32 6 64 18t60 30q28 16 54 38q24 22 44 48q18 28 34 58q14 30 20 64q8 34 8 72q0 34 -4 62q-6 28 -14 52q-10 24 -22 46q-14 22 -30 42q-14 18 -34 36t-42 34t-48 32q-24 16 -50 32 q-28 14 -52 28t-46 26t-40 22t-34 22q-16 8 -26 20q-12 10 -18 20q-10 10 -14 22t-4 28q0 18 6 36q4 18 16 34q8 14 22 30t28 30l32 32q16 14 34 30l36 32q16 16 32 34q14 18 28 38q12 20 22 42t16 46t6 54q0 70 -24 126q-24 54 -70 90q-48 38 -116 58q-68 18 -154 18 q-54 0 -104 -8t-94 -24t-82 -40t-70 -54q-30 -30 -54 -68t-40 -82q-16 -42 -24 -92q-8 -48 -8 -102q-50 -18 -152 -54v-68h152v-788q0 -18 -4 -32q-2 -14 -8 -24q-6 -12 -16 -20q-8 -8 -18 -14t-22 -10q-14 -4 -28 -6q-16 -4 -32 -6q-14 -2 -30 -4v-72z" />
<glyph unicode="&#xe0;" horiz-adv-x="1096" d="M92 256q0 -28 4 -54q4 -28 12 -52q8 -26 20 -48t30 -40q16 -18 38 -34t48 -26q24 -12 54 -18q32 -4 66 -4q28 0 56 4q26 2 52 12l48 20q24 12 46 24l40 28q18 16 38 32q16 18 32 34t30 32q6 -44 20 -76q14 -34 36 -60q20 -26 50 -38q28 -12 68 -12q26 0 52 4q26 6 52 18 q24 10 48 30q26 18 54 46q-4 16 -10 48q-14 -2 -26 -4q-12 -4 -28 -6q-16 0 -26 -2h-18q-46 0 -70 34q-24 36 -24 106v42v64q0 38 2 76v78t2 78v74q0 34 2 60v36q0 82 -22 148q-22 64 -66 108q-44 42 -110 66q-66 22 -156 22q-42 0 -82 -4q-38 -6 -74 -14q-34 -10 -66 -24 q-30 -12 -56 -30q-26 -16 -46 -36q-20 -22 -36 -46t-22 -52q-6 -30 -6 -60q0 -18 2 -36q2 -16 8 -28q4 -12 12 -24t20 -22q52 6 154 20q-8 28 -10 54q-4 28 -4 52q0 76 42 114t126 38q28 0 54 -4q24 -6 44 -14q18 -10 34 -24q16 -12 28 -28t20 -36q8 -18 12 -40t8 -42 q2 -22 2 -44v-100q-80 -30 -324 -116q-24 -10 -50 -20q-24 -12 -50 -22q-26 -12 -48 -26q-24 -14 -44 -32q-22 -18 -38 -38t-30 -46q-12 -24 -18 -54t-6 -66zM218 1558q76 -86 308 -346h80q-38 86 -152 346h-236zM284 306q0 28 8 54q8 24 26 46q16 22 40 36q22 16 52 30 q96 36 290 110v-366q-34 -26 -64 -42q-30 -18 -58 -28q-30 -12 -62 -18t-68 -6q-40 0 -70 12q-28 12 -50 36t-32 56q-12 34 -12 80z" />
<glyph unicode="&#xe1;" horiz-adv-x="1096" d="M92 256q0 -28 4 -54q4 -28 12 -52q8 -26 20 -48t30 -40q16 -18 38 -34t48 -26q24 -12 54 -18q32 -4 66 -4q28 0 56 4q26 2 52 12l48 20q24 12 46 24l40 28q18 16 38 32q16 18 32 34t30 32q6 -44 20 -76q14 -34 36 -60q20 -26 50 -38q28 -12 68 -12q26 0 52 4q26 6 52 18 q24 10 48 30q26 18 54 46q-4 16 -10 48q-14 -2 -26 -4q-12 -4 -28 -6q-16 0 -26 -2h-18q-46 0 -70 34q-24 36 -24 106v42v64q0 38 2 76v78t2 78v74q0 34 2 60v36q0 82 -22 148q-22 64 -66 108q-44 42 -110 66q-66 22 -156 22q-42 0 -82 -4q-38 -6 -74 -14q-34 -10 -66 -24 q-30 -12 -56 -30q-26 -16 -46 -36q-20 -22 -36 -46t-22 -52q-6 -30 -6 -60q0 -18 2 -36q2 -16 8 -28q4 -12 12 -24t20 -22q52 6 154 20q-8 28 -10 54q-4 28 -4 52q0 76 42 114t126 38q28 0 54 -4q24 -6 44 -14q18 -10 34 -24q16 -12 28 -28t20 -36q8 -18 12 -40t8 -42 q2 -22 2 -44v-100q-80 -30 -324 -116q-24 -10 -50 -20q-24 -12 -50 -22q-26 -12 -48 -26q-24 -14 -44 -32q-22 -18 -38 -38t-30 -46q-12 -24 -18 -54t-6 -66zM284 306q0 28 8 54q8 24 26 46q16 22 40 36q22 16 52 30q96 36 290 110v-366q-34 -26 -64 -42q-30 -18 -58 -28 q-30 -12 -62 -18t-68 -6q-40 0 -70 12q-28 12 -50 36t-32 56q-12 34 -12 80zM472 1212h78q78 86 310 346h-238q-38 -86 -150 -346z" />
<glyph unicode="&#xe2;" horiz-adv-x="1096" d="M92 256q0 -28 4 -54q4 -28 12 -52q8 -26 20 -48t30 -40q16 -18 38 -34t48 -26q24 -12 54 -18q32 -4 66 -4q28 0 56 4q26 2 52 12l48 20q24 12 46 24l40 28q18 16 38 32q16 18 32 34t30 32q6 -44 20 -76q14 -34 36 -60q20 -26 50 -38q28 -12 68 -12q26 0 52 4q26 6 52 18 q24 10 48 30q26 18 54 46q-4 16 -10 48q-14 -2 -26 -4q-12 -4 -28 -6q-16 0 -26 -2h-18q-46 0 -70 34q-24 36 -24 106v42v64q0 38 2 76v78t2 78v74q0 34 2 60v36q0 82 -22 148q-22 64 -66 108q-44 42 -110 66q-66 22 -156 22q-42 0 -82 -4q-38 -6 -74 -14q-34 -10 -66 -24 q-30 -12 -56 -30q-26 -16 -46 -36q-20 -22 -36 -46t-22 -52q-6 -30 -6 -60q0 -18 2 -36q2 -16 8 -28q4 -12 12 -24t20 -22q52 6 154 20q-8 28 -10 54q-4 28 -4 52q0 76 42 114t126 38q28 0 54 -4q24 -6 44 -14q18 -10 34 -24q16 -12 28 -28t20 -36q8 -18 12 -40t8 -42 q2 -22 2 -44v-100q-80 -30 -324 -116q-24 -10 -50 -20q-24 -12 -50 -22q-26 -12 -48 -26q-24 -14 -44 -32q-22 -18 -38 -38t-30 -46q-12 -24 -18 -54t-6 -66zM178 1212h94q66 54 262 212q66 -54 262 -212h94q-70 88 -286 354h-140q-70 -88 -286 -354zM284 306q0 28 8 54 q8 24 26 46q16 22 40 36q22 16 52 30q96 36 290 110v-366q-34 -26 -64 -42q-30 -18 -58 -28q-30 -12 -62 -18t-68 -6q-40 0 -70 12q-28 12 -50 36t-32 56q-12 34 -12 80z" />
<glyph unicode="&#xe3;" horiz-adv-x="1096" d="M92 256q0 -28 4 -54q4 -28 12 -52q8 -26 20 -48t30 -40q16 -18 38 -34t48 -26q24 -12 54 -18q32 -4 66 -4q28 0 56 4q26 2 52 12l48 20q24 12 46 24l40 28q18 16 38 32q16 18 32 34t30 32q6 -44 20 -76q14 -34 36 -60q20 -26 50 -38q28 -12 68 -12q26 0 52 4q26 6 52 18 q24 10 48 30q26 18 54 46q-4 16 -10 48q-14 -2 -26 -4q-12 -4 -28 -6q-16 0 -26 -2h-18q-46 0 -70 34q-24 36 -24 106v42v64q0 38 2 76v78t2 78v74q0 34 2 60v36q0 82 -22 148q-22 64 -66 108q-44 42 -110 66q-66 22 -156 22q-42 0 -82 -4q-38 -6 -74 -14q-34 -10 -66 -24 q-30 -12 -56 -30q-26 -16 -46 -36q-20 -22 -36 -46t-22 -52q-6 -30 -6 -60q0 -18 2 -36q2 -16 8 -28q4 -12 12 -24t20 -22q52 6 154 20q-8 28 -10 54q-4 28 -4 52q0 76 42 114t126 38q28 0 54 -4q24 -6 44 -14q18 -10 34 -24q16 -12 28 -28t20 -36q8 -18 12 -40t8 -42 q2 -22 2 -44v-100q-80 -30 -324 -116q-24 -10 -50 -20q-24 -12 -50 -22q-26 -12 -48 -26q-24 -14 -44 -32q-22 -18 -38 -38t-30 -46q-12 -24 -18 -54t-6 -66zM168 1292q26 -6 76 -20q16 30 32 54q14 24 28 40q12 16 30 24t42 8q16 0 32 -6q18 -6 34 -18l36 -24 q18 -14 36 -26q18 -14 38 -28q18 -12 38 -22q20 -12 42 -18q22 -4 46 -4q18 0 34 2t32 8q14 4 28 14q12 8 26 22q14 12 28 32q14 18 30 42q14 24 30 56q16 30 34 70q-20 4 -76 20q-18 -32 -34 -58q-16 -24 -28 -38q-12 -16 -30 -24t-42 -8q-16 0 -34 6q-16 4 -32 18 q-18 10 -34 22q-18 12 -36 26t-38 26q-20 14 -40 26q-22 12 -44 18q-20 6 -42 6q-18 0 -36 -2q-16 -4 -30 -8q-16 -6 -30 -16q-14 -8 -28 -22q-14 -12 -26 -32q-14 -18 -28 -42q-16 -26 -32 -56t-32 -68zM284 306q0 28 8 54q8 24 26 46q16 22 40 36q22 16 52 30 q96 36 290 110v-366q-34 -26 -64 -42q-30 -18 -58 -28q-30 -12 -62 -18t-68 -6q-40 0 -70 12q-28 12 -50 36t-32 56q-12 34 -12 80z" />
<glyph unicode="&#xe4;" horiz-adv-x="1096" d="M92 256q0 -28 4 -54q4 -28 12 -52q8 -26 20 -48t30 -40q16 -18 38 -34t48 -26q24 -12 54 -18q32 -4 66 -4q28 0 56 4q26 2 52 12l48 20q24 12 46 24l40 28q18 16 38 32q16 18 32 34t30 32q6 -44 20 -76q14 -34 36 -60q20 -26 50 -38q28 -12 68 -12q26 0 52 4q26 6 52 18 q24 10 48 30q26 18 54 46q-4 16 -10 48q-14 -2 -26 -4q-12 -4 -28 -6q-16 0 -26 -2h-18q-46 0 -70 34q-24 36 -24 106v42v64q0 38 2 76v78t2 78v74q0 34 2 60v36q0 82 -22 148q-22 64 -66 108q-44 42 -110 66q-66 22 -156 22q-42 0 -82 -4q-38 -6 -74 -14q-34 -10 -66 -24 q-30 -12 -56 -30q-26 -16 -46 -36q-20 -22 -36 -46t-22 -52q-6 -30 -6 -60q0 -18 2 -36q2 -16 8 -28q4 -12 12 -24t20 -22q52 6 154 20q-8 28 -10 54q-4 28 -4 52q0 76 42 114t126 38q28 0 54 -4q24 -6 44 -14q18 -10 34 -24q16 -12 28 -28t20 -36q8 -18 12 -40t8 -42 q2 -22 2 -44v-100q-80 -30 -324 -116q-24 -10 -50 -20q-24 -12 -50 -22q-26 -12 -48 -26q-24 -14 -44 -32q-22 -18 -38 -38t-30 -46q-12 -24 -18 -54t-6 -66zM222 1386q0 -28 8 -50t26 -40t40 -28q22 -8 50 -8q26 0 48 8q22 10 40 28t28 40t10 50q0 26 -10 46q-10 22 -28 40 t-40 28t-48 10q-28 0 -50 -10t-40 -28t-26 -40q-8 -20 -8 -46zM284 306q0 28 8 54q8 24 26 46q16 22 40 36q22 16 52 30q96 36 290 110v-366q-34 -26 -64 -42q-30 -18 -58 -28q-30 -12 -62 -18t-68 -6q-40 0 -70 12q-28 12 -50 36t-32 56q-12 34 -12 80zM610 1386 q0 -28 8 -50t28 -40q18 -18 40 -28q22 -8 50 -8q26 0 48 8q20 10 40 28q18 18 26 40q10 22 10 50q0 26 -10 46q-8 22 -26 40q-20 18 -40 28q-22 10 -48 10q-28 0 -50 -10t-40 -28q-20 -18 -28 -40q-8 -20 -8 -46z" />
<glyph unicode="&#xe5;" horiz-adv-x="1096" d="M92 256q0 -28 4 -54q4 -28 12 -52q8 -26 20 -48t30 -40q16 -18 38 -34t48 -26q24 -12 54 -18q32 -4 66 -4q28 0 56 4q26 2 52 12l48 20q24 12 46 24l40 28q18 16 38 32q16 18 32 34t30 32q6 -44 20 -76q14 -34 36 -60q20 -26 50 -38q28 -12 68 -12q26 0 52 4q26 6 52 18 q24 10 48 30q26 18 54 46q-4 16 -10 48q-14 -2 -26 -4q-12 -4 -28 -6q-16 0 -26 -2h-18q-46 0 -70 34q-24 36 -24 106v42v64q0 38 2 76v78t2 78v74q0 34 2 60v36q0 82 -22 148q-22 64 -66 108q-44 42 -110 66q-66 22 -156 22q-42 0 -82 -4q-38 -6 -74 -14q-34 -10 -66 -24 q-30 -12 -56 -30q-26 -16 -46 -36q-20 -22 -36 -46t-22 -52q-6 -30 -6 -60q0 -18 2 -36q2 -16 8 -28q4 -12 12 -24t20 -22q52 6 154 20q-8 28 -10 54q-4 28 -4 52q0 76 42 114t126 38q28 0 54 -4q24 -6 44 -14q18 -10 34 -24q16 -12 28 -28t20 -36q8 -18 12 -40t8 -42 q2 -22 2 -44v-100q-80 -30 -324 -116q-24 -10 -50 -20q-24 -12 -50 -22q-26 -12 -48 -26q-24 -14 -44 -32q-22 -18 -38 -38t-30 -46q-12 -24 -18 -54t-6 -66zM284 306q0 28 8 54q8 24 26 46q16 22 40 36q22 16 52 30q96 36 290 110v-366q-34 -26 -64 -42q-30 -18 -58 -28 q-30 -12 -62 -18t-68 -6q-40 0 -70 12q-28 12 -50 36t-32 56q-12 34 -12 80zM344 1390q0 -40 12 -72q14 -34 40 -60q26 -28 60 -40q36 -14 78 -14q44 0 78 14q34 12 60 40q26 26 40 60q12 32 12 72t-12 74q-14 32 -40 60q-26 26 -60 40q-34 12 -78 12q-42 0 -78 -12 q-34 -14 -60 -40q-26 -28 -40 -60q-12 -34 -12 -74zM430 1390q0 24 6 44t18 34q12 16 32 24q20 10 48 10q26 0 46 -10q20 -8 32 -24q12 -14 20 -34q6 -20 6 -44t-6 -44q-8 -20 -20 -36q-12 -14 -32 -22t-46 -8q-28 0 -48 8t-32 22q-12 16 -18 36t-6 44z" />
<glyph unicode="&#xe6;" horiz-adv-x="1696" d="M92 256q0 -28 4 -54q6 -28 14 -52q10 -26 24 -48q16 -22 34 -40t42 -34q22 -16 50 -26q28 -12 58 -18q32 -4 68 -4q64 0 120 14q58 16 106 46q44 28 88 68q42 40 84 92q10 -18 22 -34q12 -18 28 -32q30 -38 68 -66q36 -28 82 -48q42 -22 92 -30q50 -10 108 -10 q86 0 156 22q72 22 126 66q56 42 92 100q38 56 56 124q-12 8 -34 20q-30 -40 -64 -72t-70 -56q-38 -24 -86 -36t-106 -12q-44 0 -84 8q-38 8 -72 24q-36 16 -66 38q-28 24 -54 54q-24 30 -44 64q-18 36 -30 78q-14 40 -20 86q-6 48 -6 98h734v64t-8 94q-6 46 -18 90 q-14 42 -34 76q-20 36 -44 66q-26 32 -60 54q-32 24 -70 42q-40 16 -84 24q-44 10 -94 10q-54 0 -102 -10q-50 -12 -94 -34q-46 -20 -84 -50q-38 -32 -70 -68q-10 22 -24 40t-30 34q-46 42 -114 66q-68 22 -158 22q-40 0 -78 -4q-38 -6 -72 -14q-34 -10 -64 -24 q-30 -12 -54 -30q-24 -16 -44 -36q-20 -22 -36 -46t-22 -52q-6 -30 -6 -60q0 -18 2 -36q2 -16 8 -28q4 -12 12 -24t20 -22q52 6 154 20q-8 28 -10 54q-4 28 -4 52q0 76 42 114t126 38q36 0 68 -8q30 -8 54 -22t42 -32q18 -20 32 -40q14 -22 24 -46t16 -52q2 -18 4 -34t4 -30 q-8 -24 -14 -48t-10 -48q-112 -34 -336 -100q-24 -6 -50 -16q-26 -8 -52 -18t-48 -24q-24 -14 -46 -32q-22 -16 -38 -36t-30 -46q-14 -24 -20 -54t-6 -66zM284 294q0 34 8 60q10 26 28 48q18 20 42 34q24 16 54 24q98 30 292 88v-40q0 -56 8 -108t24 -98q4 -16 10 -30 l12 -28q-30 -22 -62 -42q-30 -20 -62 -36q-38 -22 -86 -32q-48 -12 -104 -12q-40 0 -70 12q-28 10 -50 34q-22 22 -32 54q-12 32 -12 72zM886 680q4 30 10 62q8 30 20 60q10 30 24 56t32 50q20 20 40 38q22 20 46 32q26 14 54 20q26 8 58 8q62 0 110 -24q48 -22 80 -66 q30 -46 46 -104q18 -58 18 -132h-538z" />
<glyph unicode="&#xe7;" horiz-adv-x="1036" d="M82 508q0 -58 8 -112q8 -52 24 -102q18 -48 42 -90t54 -78q32 -34 68 -62q38 -28 80 -46q24 -12 52 -20t58 -12q-24 -62 -74 -184q44 -4 78 -10q36 -6 60 -16q26 -10 38 -26q14 -18 14 -40q0 -26 -16 -42q-18 -18 -50 -30t-76 -18q-42 -6 -98 -6q4 -16 12 -66q38 0 74 2 q36 4 70 10t62 16q30 8 54 20q26 12 44 28q20 16 36 34q14 18 22 42q6 22 6 50q0 42 -14 70q-16 30 -44 46q-32 16 -72 26q-40 8 -92 10l30 78h16q78 0 144 18t120 58q52 38 92 96q38 58 60 136q-12 8 -36 22q-30 -44 -64 -76q-32 -32 -70 -54q-36 -22 -80 -34 q-46 -10 -98 -10q-42 0 -80 8q-40 8 -74 24q-32 16 -62 38q-28 24 -52 54q-22 30 -40 64q-18 36 -30 78q-12 40 -18 86q-6 48 -6 98q0 42 6 84q4 42 16 80t30 72q16 34 38 60q22 28 46 50q26 24 56 38q30 16 64 24q32 10 70 10q48 0 84 -16q36 -14 56 -44q22 -30 34 -64 q12 -36 12 -80v-68h104q18 6 32 18q14 10 26 24q12 12 18 32t6 48q0 58 -22 104q-24 46 -70 80t-110 52q-62 16 -144 16q-60 0 -114 -12t-100 -38q-50 -24 -92 -56q-40 -32 -74 -72q-34 -42 -62 -90q-26 -46 -46 -100q-18 -56 -26 -114q-10 -56 -10 -116z" />
<glyph unicode="&#xe8;" horiz-adv-x="1070" d="M82 508q0 -56 8 -108t22 -98q16 -50 40 -92t54 -76q32 -38 68 -66q38 -28 82 -48q44 -22 94 -30q50 -10 108 -10q86 0 156 22t126 66q54 42 92 100q36 56 56 124q-12 8 -36 20q-28 -40 -62 -72t-70 -56q-40 -24 -88 -36q-46 -12 -106 -12q-42 0 -82 8t-72 24 q-36 16 -66 38q-30 24 -54 54t-44 64q-20 36 -32 78q-12 40 -18 86q-6 48 -6 98h734v64t-8 94t-20 90q-14 42 -34 76q-18 36 -44 66q-26 32 -58 54q-32 24 -70 42q-40 16 -84 24q-46 10 -94 10q-54 0 -104 -10q-48 -12 -94 -34q-46 -20 -84 -52q-38 -30 -70 -70 q-34 -40 -60 -86q-24 -48 -44 -102q-18 -56 -26 -116q-10 -60 -10 -128zM246 1558q78 -86 310 -346h78q-38 86 -150 346h-238zM260 684q4 30 10 62q6 30 18 58q12 30 26 56t32 48q18 20 40 38q22 20 46 32q24 14 52 20q28 8 58 8q64 0 112 -22q46 -24 80 -66q30 -44 46 -102 t16 -132h-536z" />
<glyph unicode="&#xe9;" horiz-adv-x="1070" d="M82 508q0 -56 8 -108t22 -98q16 -50 40 -92t54 -76q32 -38 68 -66q38 -28 82 -48q44 -22 94 -30q50 -10 108 -10q86 0 156 22t126 66q54 42 92 100q36 56 56 124q-12 8 -36 20q-28 -40 -62 -72t-70 -56q-40 -24 -88 -36q-46 -12 -106 -12q-42 0 -82 8t-72 24 q-36 16 -66 38q-30 24 -54 54t-44 64q-20 36 -32 78q-12 40 -18 86q-6 48 -6 98h734v64t-8 94t-20 90q-14 42 -34 76q-18 36 -44 66q-26 32 -58 54q-32 24 -70 42q-40 16 -84 24q-46 10 -94 10q-54 0 -104 -10q-48 -12 -94 -34q-46 -20 -84 -52q-38 -30 -70 -70 q-34 -40 -60 -86q-24 -48 -44 -102q-18 -56 -26 -116q-10 -60 -10 -128zM260 684q4 30 10 62q6 30 18 58q12 30 26 56t32 48q18 20 40 38q22 20 46 32q24 14 52 20q28 8 58 8q64 0 112 -22q46 -24 80 -66q30 -44 46 -102t16 -132h-536zM500 1212h80q76 86 308 346h-236 q-38 -86 -152 -346z" />
<glyph unicode="&#xea;" horiz-adv-x="1070" d="M82 508q0 -56 8 -108t22 -98q16 -50 40 -92t54 -76q32 -38 68 -66q38 -28 82 -48q44 -22 94 -30q50 -10 108 -10q86 0 156 22t126 66q54 42 92 100q36 56 56 124q-12 8 -36 20q-28 -40 -62 -72t-70 -56q-40 -24 -88 -36q-46 -12 -106 -12q-42 0 -82 8t-72 24 q-36 16 -66 38q-30 24 -54 54t-44 64q-20 36 -32 78q-12 40 -18 86q-6 48 -6 98h734v64t-8 94t-20 90q-14 42 -34 76q-18 36 -44 66q-26 32 -58 54q-32 24 -70 42q-40 16 -84 24q-46 10 -94 10q-54 0 -104 -10q-48 -12 -94 -34q-46 -20 -84 -52q-38 -30 -70 -70 q-34 -40 -60 -86q-24 -48 -44 -102q-18 -56 -26 -116q-10 -60 -10 -128zM212 1212h96q64 54 262 212q64 -54 262 -212h94q-72 88 -288 354h-138q-72 -88 -288 -354zM260 684q4 30 10 62q6 30 18 58q12 30 26 56t32 48q18 20 40 38q22 20 46 32q24 14 52 20q28 8 58 8 q64 0 112 -22q46 -24 80 -66q30 -44 46 -102t16 -132h-536z" />
<glyph unicode="&#xeb;" horiz-adv-x="1070" d="M82 508q0 -56 8 -108t22 -98q16 -50 40 -92t54 -76q32 -38 68 -66q38 -28 82 -48q44 -22 94 -30q50 -10 108 -10q86 0 156 22t126 66q54 42 92 100q36 56 56 124q-12 8 -36 20q-28 -40 -62 -72t-70 -56q-40 -24 -88 -36q-46 -12 -106 -12q-42 0 -82 8t-72 24 q-36 16 -66 38q-30 24 -54 54t-44 64q-20 36 -32 78q-12 40 -18 86q-6 48 -6 98h734v64t-8 94t-20 90q-14 42 -34 76q-18 36 -44 66q-26 32 -58 54q-32 24 -70 42q-40 16 -84 24q-46 10 -94 10q-54 0 -104 -10q-48 -12 -94 -34q-46 -20 -84 -52q-38 -30 -70 -70 q-34 -40 -60 -86q-24 -48 -44 -102q-18 -56 -26 -116q-10 -60 -10 -128zM246 1386q0 -28 8 -50t26 -40q20 -18 42 -28q22 -8 48 -8t48 8q22 10 40 28q20 18 28 40q10 22 10 50q0 26 -10 46q-8 22 -28 40q-18 18 -40 28t-48 10t-48 -10t-42 -28q-18 -18 -26 -40 q-8 -20 -8 -46zM260 684q4 30 10 62q6 30 18 58q12 30 26 56t32 48q18 20 40 38q22 20 46 32q24 14 52 20q28 8 58 8q64 0 112 -22q46 -24 80 -66q30 -44 46 -102t16 -132h-536zM634 1386q0 -28 10 -50q8 -22 26 -40t40 -28q22 -8 50 -8q26 0 48 8q22 10 40 28t28 40 q8 22 8 50q0 26 -8 46q-10 22 -28 40t-40 28t-48 10q-28 0 -50 -10t-40 -28t-26 -40q-10 -20 -10 -46z" />
<glyph unicode="&#xec;" horiz-adv-x="658" d="M-8 1558q78 -86 310 -346h78q-36 86 -150 346h-238zM82 0h504v72q-18 2 -34 4t-30 6q-16 2 -28 6t-22 10q-12 6 -20 14t-14 20q-6 10 -8 24t-2 32v918h-52q-70 -26 -284 -102v-44q38 -18 148 -72v-700q0 -18 -4 -32q-2 -14 -8 -24q-6 -12 -16 -20q-8 -8 -18 -14t-22 -10 q-14 -4 -28 -6q-16 -4 -32 -6q-14 -2 -30 -4v-72z" />
<glyph unicode="&#xed;" horiz-adv-x="658" d="M82 0h504v72q-18 2 -34 4t-30 6q-16 2 -28 6t-22 10q-12 6 -20 14t-14 20q-6 10 -8 24t-2 32v918h-52q-70 -26 -284 -102v-44q38 -18 148 -72v-700q0 -18 -4 -32q-2 -14 -8 -24q-6 -12 -16 -20q-8 -8 -18 -14t-22 -10q-14 -4 -28 -6q-16 -4 -32 -6q-14 -2 -30 -4v-72z M266 1212h80q78 86 310 346h-238q-38 -86 -152 -346z" />
<glyph unicode="&#xee;" horiz-adv-x="658" d="M-26 1212h94q66 54 262 212q66 -54 262 -212h94q-72 88 -286 354h-140q-72 -88 -286 -354zM82 0h504v72q-18 2 -34 4t-30 6q-16 2 -28 6t-22 10q-12 6 -20 14t-14 20q-6 10 -8 24t-2 32v918h-52q-70 -26 -284 -102v-44q38 -18 148 -72v-700q0 -18 -4 -32q-2 -14 -8 -24 q-6 -12 -16 -20q-8 -8 -18 -14t-22 -10q-14 -4 -28 -6q-16 -4 -32 -6q-14 -2 -30 -4v-72z" />
<glyph unicode="&#xef;" horiz-adv-x="658" d="M10 1386q0 -28 8 -50t28 -40q18 -18 40 -28q22 -8 50 -8q26 0 48 8q20 10 40 28q18 18 26 40q10 22 10 50q0 26 -10 46q-8 22 -26 40q-20 18 -40 28q-22 10 -48 10q-28 0 -50 -10t-40 -28q-20 -18 -28 -40q-8 -20 -8 -46zM82 0h504v72q-18 2 -34 4t-30 6q-16 2 -28 6 t-22 10q-12 6 -20 14t-14 20q-6 10 -8 24t-2 32v918h-52q-70 -26 -284 -102v-44q38 -18 148 -72v-700q0 -18 -4 -32q-2 -14 -8 -24q-6 -12 -16 -20q-8 -8 -18 -14t-22 -10q-14 -4 -28 -6q-16 -4 -32 -6q-14 -2 -30 -4v-72zM400 1386q0 -28 8 -50t26 -40t40 -28q22 -8 50 -8 q26 0 48 8q22 10 40 28t28 40t10 50q0 26 -10 46q-10 22 -28 40t-40 28t-48 10q-28 0 -50 -10t-40 -28t-26 -40q-8 -20 -8 -46z" />
<glyph unicode="&#xf0;" d="M82 522q0 -60 8 -114q8 -56 26 -104q18 -50 42 -94q26 -42 60 -78q32 -38 70 -66t84 -48t98 -30q52 -8 110 -8q52 0 100 8q50 10 96 28t88 48q40 30 74 70q34 38 62 86q28 50 48 110t32 132q10 72 10 154q0 80 -14 158t-38 152q-26 74 -64 142q-38 70 -90 134 q-30 38 -64 72t-72 68q60 22 180 70q-8 20 -30 78q-58 -22 -228 -88q-10 8 -36 26q-74 48 -162 90q-86 40 -186 72q-12 -22 -38 -66q56 -22 106 -50t98 -60q22 -16 42 -32q20 -14 40 -30q-82 -32 -248 -94l32 -80q72 28 288 110q6 -4 20 -20q40 -40 72 -82q34 -44 64 -86 q30 -44 52 -90q24 -44 42 -86q-28 32 -58 60q-32 26 -68 48q-38 22 -80 34q-40 12 -86 12q-50 0 -96 -10t-90 -28q-42 -18 -80 -46q-38 -26 -70 -62q-34 -38 -60 -80q-28 -44 -48 -96t-28 -110q-10 -60 -10 -124zM278 560q0 98 18 176q18 80 54 138t90 88t128 30 q38 0 72 -10t64 -28q32 -18 56 -44q26 -26 46 -56q22 -30 38 -68q16 -36 26 -80q12 -42 18 -88q4 -44 4 -92t-4 -94t-14 -86q-8 -42 -22 -76q-14 -36 -32 -64q-20 -28 -42 -52q-22 -22 -48 -38q-28 -14 -60 -22q-30 -8 -66 -8q-40 0 -74 10q-34 8 -66 26q-30 20 -54 46 q-26 26 -48 58t-36 70q-16 38 -26 80q-12 44 -16 88q-6 46 -6 96z" />
<glyph unicode="&#xf1;" horiz-adv-x="1318" d="M82 0h504v72q-18 2 -34 4t-30 6q-16 2 -28 6t-22 10q-12 6 -20 14t-14 20q-6 10 -8 24t-2 32v658q30 22 64 42q36 20 76 36t80 22q42 8 82 8q48 0 84 -12t58 -32q24 -22 36 -60t12 -94v-568q0 -18 -4 -32q-2 -14 -8 -24q-6 -12 -16 -20q-8 -8 -18 -14t-22 -10 q-14 -4 -28 -6q-16 -4 -32 -6q-14 -2 -30 -4v-72h506v72q-18 2 -34 4t-30 6q-16 2 -28 6t-22 10q-12 6 -20 14t-14 20q-6 10 -8 24q-4 14 -4 32v582q0 90 -20 154q-18 64 -56 104q-38 38 -90 58q-54 20 -120 20q-34 0 -62 -4q-30 -6 -58 -14q-28 -10 -54 -20 q-26 -12 -50 -26t-46 -30t-44 -36q-22 -18 -42 -34q-20 -18 -38 -36v200h-52q-70 -26 -284 -102v-44q38 -18 148 -72v-700q0 -18 -4 -32q-2 -14 -8 -24q-6 -12 -16 -20q-8 -8 -18 -14t-22 -10q-14 -4 -28 -6q-16 -4 -32 -6q-14 -2 -30 -4v-72zM300 1292q24 -6 74 -20 q18 30 32 54q16 24 28 40t30 24q20 8 44 8q16 0 32 -6t34 -18q16 -12 34 -24q18 -14 38 -26l36 -28q18 -12 38 -22q20 -12 42 -18q22 -4 46 -4q20 0 36 2t30 8q14 4 28 14q14 8 28 22q14 12 28 32q14 18 30 42l28 56q16 30 34 70q-18 4 -76 20q-18 -32 -32 -58 q-16 -24 -28 -38q-12 -16 -32 -24q-18 -8 -40 -8q-18 0 -34 6q-16 4 -34 18q-16 10 -34 22t-36 26t-38 26q-20 14 -40 26t-42 18t-44 6q-18 0 -34 -2q-18 -4 -30 -8q-16 -6 -30 -16q-14 -8 -28 -22q-14 -12 -28 -32q-14 -18 -28 -42q-14 -26 -30 -56t-32 -68z" />
<glyph unicode="&#xf2;" d="M82 522q0 -60 8 -114q8 -56 26 -104q18 -50 42 -94q26 -42 60 -78q32 -38 70 -66t84 -48t98 -30q52 -8 110 -8q52 0 100 10q50 8 96 30t88 52q40 28 74 68q34 36 62 82t48 100t32 114q10 60 10 128q0 58 -10 112q-8 56 -26 104q-18 50 -42 92q-26 44 -58 80 q-34 36 -72 64q-40 28 -86 48t-98 32q-50 10 -106 10q-52 0 -102 -10q-50 -12 -96 -34q-46 -20 -88 -50q-40 -28 -74 -66t-62 -84t-48 -100q-20 -56 -30 -116t-10 -124zM248 1558q78 -86 310 -346h78q-36 86 -150 346h-238zM278 560q0 48 6 94q4 44 12 86q10 40 22 74 q14 36 32 64t40 50q22 24 50 38q28 16 60 24q30 10 68 10t72 -10q34 -12 64 -30q32 -18 56 -44q26 -26 46 -58q22 -32 38 -70q16 -36 26 -80q12 -42 18 -88q4 -46 4 -94t-4 -94t-14 -86q-8 -42 -22 -76q-14 -36 -32 -64q-20 -28 -42 -52q-22 -22 -48 -38q-28 -14 -60 -22 q-30 -8 -66 -8q-40 0 -74 10q-34 8 -66 26q-30 20 -54 46q-26 26 -48 58t-36 70q-16 38 -26 80q-12 44 -16 88q-6 46 -6 96z" />
<glyph unicode="&#xf3;" d="M82 522q0 -60 8 -114q8 -56 26 -104q18 -50 42 -94q26 -42 60 -78q32 -38 70 -66t84 -48t98 -30q52 -8 110 -8q52 0 100 10q50 8 96 30t88 52q40 28 74 68q34 36 62 82t48 100t32 114q10 60 10 128q0 58 -10 112q-8 56 -26 104q-18 50 -42 92q-26 44 -58 80 q-34 36 -72 64q-40 28 -86 48t-98 32q-50 10 -106 10q-52 0 -102 -10q-50 -12 -96 -34q-46 -20 -88 -50q-40 -28 -74 -66t-62 -84t-48 -100q-20 -56 -30 -116t-10 -124zM278 560q0 48 6 94q4 44 12 86q10 40 22 74q14 36 32 64t40 50q22 24 50 38q28 16 60 24q30 10 68 10 t72 -10q34 -12 64 -30q32 -18 56 -44q26 -26 46 -58q22 -32 38 -70q16 -36 26 -80q12 -42 18 -88q4 -46 4 -94t-4 -94t-14 -86q-8 -42 -22 -76q-14 -36 -32 -64q-20 -28 -42 -52q-22 -22 -48 -38q-28 -14 -60 -22q-30 -8 -66 -8q-40 0 -74 10q-34 8 -66 26q-30 20 -54 46 q-26 26 -48 58t-36 70q-16 38 -26 80q-12 44 -16 88q-6 46 -6 96zM522 1212h80q78 86 310 346h-238q-38 -86 -152 -346z" />
<glyph unicode="&#xf4;" d="M82 522q0 -60 8 -114q8 -56 26 -104q18 -50 42 -94q26 -42 60 -78q32 -38 70 -66t84 -48t98 -30q52 -8 110 -8q52 0 100 10q50 8 96 30t88 52q40 28 74 68q34 36 62 82t48 100t32 114q10 60 10 128q0 58 -10 112q-8 56 -26 104q-18 50 -42 92q-26 44 -58 80 q-34 36 -72 64q-40 28 -86 48t-98 32q-50 10 -106 10q-52 0 -102 -10q-50 -12 -96 -34q-46 -20 -88 -50q-40 -28 -74 -66t-62 -84t-48 -100q-20 -56 -30 -116t-10 -124zM230 1212h94q66 54 262 212q66 -54 262 -212h94q-72 88 -286 354h-140q-72 -88 -286 -354zM278 560 q0 48 6 94q4 44 12 86q10 40 22 74q14 36 32 64t40 50q22 24 50 38q28 16 60 24q30 10 68 10t72 -10q34 -12 64 -30q32 -18 56 -44q26 -26 46 -58q22 -32 38 -70q16 -36 26 -80q12 -42 18 -88q4 -46 4 -94t-4 -94t-14 -86q-8 -42 -22 -76q-14 -36 -32 -64q-20 -28 -42 -52 q-22 -22 -48 -38q-28 -14 -60 -22q-30 -8 -66 -8q-40 0 -74 10q-34 8 -66 26q-30 20 -54 46q-26 26 -48 58t-36 70q-16 38 -26 80q-12 44 -16 88q-6 46 -6 96z" />
<glyph unicode="&#xf5;" d="M82 522q0 -60 8 -114q8 -56 26 -104q18 -50 42 -94q26 -42 60 -78q32 -38 70 -66t84 -48t98 -30q52 -8 110 -8q52 0 100 10q50 8 96 30t88 52q40 28 74 68q34 36 62 82t48 100t32 114q10 60 10 128q0 58 -10 112q-8 56 -26 104q-18 50 -42 92q-26 44 -58 80 q-34 36 -72 64q-40 28 -86 48t-98 32q-50 10 -106 10q-52 0 -102 -10q-50 -12 -96 -34q-46 -20 -88 -50q-40 -28 -74 -66t-62 -84t-48 -100q-20 -56 -30 -116t-10 -124zM210 1292q26 -6 76 -20q18 30 32 54q16 24 28 40t30 24q20 8 44 8q16 0 32 -6t34 -18q16 -12 34 -24 q18 -14 38 -26l36 -28q18 -12 38 -22q20 -12 42 -18q22 -4 46 -4q20 0 36 2t30 8q14 4 28 14q14 8 28 22q14 12 28 32q14 18 30 42l28 56q16 30 34 70q-18 4 -76 20q-18 -32 -34 -58q-14 -24 -26 -38q-12 -16 -32 -24q-18 -8 -40 -8q-18 0 -34 6q-18 4 -34 18q-16 10 -34 22 t-36 26t-38 26q-20 14 -40 26t-42 18t-44 6q-18 0 -34 -2q-18 -4 -30 -8q-16 -6 -30 -16q-14 -8 -28 -22q-14 -12 -28 -32q-14 -18 -28 -42q-14 -26 -30 -56t-34 -68zM278 560q0 48 6 94q4 44 12 86q10 40 22 74q14 36 32 64t40 50q22 24 50 38q28 16 60 24q30 10 68 10 t72 -10q34 -12 64 -30q32 -18 56 -44q26 -26 46 -58q22 -32 38 -70q16 -36 26 -80q12 -42 18 -88q4 -46 4 -94t-4 -94t-14 -86q-8 -42 -22 -76q-14 -36 -32 -64q-20 -28 -42 -52q-22 -22 -48 -38q-28 -14 -60 -22q-30 -8 -66 -8q-40 0 -74 10q-34 8 -66 26q-30 20 -54 46 q-26 26 -48 58t-36 70q-16 38 -26 80q-12 44 -16 88q-6 46 -6 96z" />
<glyph unicode="&#xf6;" d="M82 522q0 -60 8 -114q8 -56 26 -104q18 -50 42 -94q26 -42 60 -78q32 -38 70 -66t84 -48t98 -30q52 -8 110 -8q52 0 100 10q50 8 96 30t88 52q40 28 74 68q34 36 62 82t48 100t32 114q10 60 10 128q0 58 -10 112q-8 56 -26 104q-18 50 -42 92q-26 44 -58 80 q-34 36 -72 64q-40 28 -86 48t-98 32q-50 10 -106 10q-52 0 -102 -10q-50 -12 -96 -34q-46 -20 -88 -50q-40 -28 -74 -66t-62 -84t-48 -100q-20 -56 -30 -116t-10 -124zM266 1386q0 -28 8 -50t28 -40q18 -18 40 -28q22 -8 50 -8q26 0 48 8q20 10 40 28q18 18 26 40 q10 22 10 50q0 26 -10 46q-8 22 -26 40q-20 18 -40 28q-22 10 -48 10q-28 0 -50 -10t-40 -28q-20 -18 -28 -40q-8 -20 -8 -46zM278 560q0 48 6 94q4 44 12 86q10 40 22 74q14 36 32 64t40 50q22 24 50 38q28 16 60 24q30 10 68 10t72 -10q34 -12 64 -30q32 -18 56 -44 q26 -26 46 -58q22 -32 38 -70q16 -36 26 -80q12 -42 18 -88q4 -46 4 -94t-4 -94t-14 -86q-8 -42 -22 -76q-14 -36 -32 -64q-20 -28 -42 -52q-22 -22 -48 -38q-28 -14 -60 -22q-30 -8 -66 -8q-40 0 -74 10q-34 8 -66 26q-30 20 -54 46q-26 26 -48 58t-36 70q-16 38 -26 80 q-12 44 -16 88q-6 46 -6 96zM656 1386q0 -28 8 -50t26 -40t40 -28q22 -8 50 -8q26 0 48 8q22 10 40 28t28 40t10 50q0 26 -10 46q-10 22 -28 40t-40 28t-48 10q-28 0 -50 -10t-40 -28t-26 -40q-8 -20 -8 -46z" />
<glyph unicode="&#xf7;" horiz-adv-x="1156" d="M130 574h896v126h-896v-126zM460 290q0 -24 8 -44t26 -38q16 -18 36 -26t46 -8q22 0 42 8t40 26q18 18 28 38q8 20 8 44q0 26 -8 46q-10 20 -28 38q-20 18 -40 26q-20 10 -42 10q-26 0 -46 -10q-20 -8 -36 -26q-18 -18 -26 -38t-8 -46zM460 984q0 -26 8 -46t26 -38 q16 -20 36 -28t46 -8q22 0 42 8t40 28q18 18 28 38q8 20 8 46q0 22 -8 42q-10 20 -28 36q-20 18 -40 26q-20 10 -42 10q-26 0 -46 -10q-20 -8 -36 -26q-18 -16 -26 -36t-8 -42z" />
<glyph unicode="&#xf8;" d="M82 522q0 -60 8 -114q8 -56 26 -104q18 -50 42 -94q26 -42 60 -78q8 -14 20 -24q12 -12 24 -22q-32 -54 -94 -160q20 -12 84 -50q22 38 92 156q6 -4 14 -8q8 -2 14 -6q46 -20 98 -30q52 -8 110 -8q52 0 100 10q50 8 96 30t88 52q40 28 74 68q34 36 62 82t48 100t32 114 q10 60 10 128q0 58 -10 112q-8 56 -26 104q-18 50 -42 92q-26 44 -58 80q-10 12 -22 22l-20 20q30 52 92 154q-22 14 -84 52q-22 -38 -90 -152q-8 4 -34 16q-46 20 -98 32q-50 10 -106 10q-52 0 -102 -10q-50 -12 -96 -34q-46 -20 -88 -50q-40 -28 -74 -66t-62 -84t-48 -100 q-20 -56 -30 -116t-10 -124zM278 560q0 48 6 94q4 44 12 86q10 40 22 74q14 36 32 64t40 50q22 24 50 38q28 16 60 24q30 10 68 10q42 0 80 -10q36 -10 66 -28q12 -8 22 -16q12 -6 24 -16q-138 -232 -412 -698q-18 30 -30 66q-14 34 -22 74q-8 44 -12 90q-6 46 -6 98z M416 152q136 230 410 694q14 -30 26 -62q14 -34 22 -72q10 -42 14 -90q4 -46 4 -96q0 -48 -4 -94t-14 -86q-8 -42 -22 -76q-14 -36 -32 -64q-20 -28 -42 -52q-22 -22 -48 -38q-28 -14 -60 -22q-30 -8 -66 -8q-42 0 -80 10q-36 8 -68 26q-12 8 -22 14t-18 16z" />
<glyph unicode="&#xf9;" horiz-adv-x="1288" d="M46 990q8 -2 32 -4q36 -8 62 -14q24 -8 36 -18t18 -30q6 -18 6 -46v-562q0 -92 20 -156q18 -64 56 -102q38 -40 92 -60q54 -18 122 -18q30 0 60 4q28 2 54 12t50 20q26 12 48 28q24 12 46 28t42 34t40 38l40 36v-200h30q80 18 326 72v68q-12 2 -52 6q-36 4 -58 10 q-24 6 -34 16q-12 8 -18 24q-6 18 -6 46v884h-32l-312 -48v-68q8 -2 34 -4q36 -8 60 -14q26 -8 38 -18t18 -30q6 -18 6 -46v-638q-30 -24 -64 -44q-34 -18 -70 -34q-38 -16 -78 -24q-38 -6 -78 -6q-50 0 -86 12t-60 36q-22 24 -34 66q-10 42 -10 98v762h-32l-312 -48v-68z M296 1558q78 -86 310 -346h80q-38 86 -152 346h-238z" />
<glyph unicode="&#xfa;" horiz-adv-x="1288" d="M46 990q8 -2 32 -4q36 -8 62 -14q24 -8 36 -18t18 -30q6 -18 6 -46v-562q0 -92 20 -156q18 -64 56 -102q38 -40 92 -60q54 -18 122 -18q30 0 60 4q28 2 54 12t50 20q26 12 48 28q24 12 46 28t42 34t40 38l40 36v-200h30q80 18 326 72v68q-12 2 -52 6q-36 4 -58 10 q-24 6 -34 16q-12 8 -18 24q-6 18 -6 46v884h-32l-312 -48v-68q8 -2 34 -4q36 -8 60 -14q26 -8 38 -18t18 -30q6 -18 6 -46v-638q-30 -24 -64 -44q-34 -18 -70 -34q-38 -16 -78 -24q-38 -6 -78 -6q-50 0 -86 12t-60 36q-22 24 -34 66q-10 42 -10 98v762h-32l-312 -48v-68z M572 1212h80q76 86 308 346h-238q-36 -86 -150 -346z" />
<glyph unicode="&#xfb;" horiz-adv-x="1288" d="M46 990q8 -2 32 -4q36 -8 62 -14q24 -8 36 -18t18 -30q6 -18 6 -46v-562q0 -92 20 -156q18 -64 56 -102q38 -40 92 -60q54 -18 122 -18q30 0 60 4q28 2 54 12t50 20q26 12 48 28q24 12 46 28t42 34t40 38l40 36v-200h30q80 18 326 72v68q-12 2 -52 6q-36 4 -58 10 q-24 6 -34 16q-12 8 -18 24q-6 18 -6 46v884h-32l-312 -48v-68q8 -2 34 -4q36 -8 60 -14q26 -8 38 -18t18 -30q6 -18 6 -46v-638q-30 -24 -64 -44q-34 -18 -70 -34q-38 -16 -78 -24q-38 -6 -78 -6q-50 0 -86 12t-60 36q-22 24 -34 66q-10 42 -10 98v762h-32l-312 -48v-68z M278 1212h94q66 54 262 212q66 -54 264 -212h94q-72 88 -288 354h-138q-72 -88 -288 -354z" />
<glyph unicode="&#xfc;" horiz-adv-x="1288" d="M46 990q8 -2 32 -4q36 -8 62 -14q24 -8 36 -18t18 -30q6 -18 6 -46v-562q0 -92 20 -156q18 -64 56 -102q38 -40 92 -60q54 -18 122 -18q30 0 60 4q28 2 54 12t50 20q26 12 48 28q24 12 46 28t42 34t40 38l40 36v-200h30q80 18 326 72v68q-12 2 -52 6q-36 4 -58 10 q-24 6 -34 16q-12 8 -18 24q-6 18 -6 46v884h-32l-312 -48v-68q8 -2 34 -4q36 -8 60 -14q26 -8 38 -18t18 -30q6 -18 6 -46v-638q-30 -24 -64 -44q-34 -18 -70 -34q-38 -16 -78 -24q-38 -6 -78 -6q-50 0 -86 12t-60 36q-22 24 -34 66q-10 42 -10 98v762h-32l-312 -48v-68z M316 1386q0 -28 8 -50t26 -40t40 -28q22 -8 50 -8q26 0 48 8q22 10 40 28t28 40t10 50q0 26 -10 46q-10 22 -28 40t-40 28t-48 10q-28 0 -50 -10t-40 -28t-26 -40q-8 -20 -8 -46zM704 1386q0 -28 8 -50t28 -40q18 -18 40 -28q22 -8 50 -8q26 0 48 8q22 10 40 28t28 40 q8 22 8 50q0 26 -8 46q-10 22 -28 40t-40 28t-48 10q-28 0 -50 -10t-40 -28q-20 -18 -28 -40q-8 -20 -8 -46z" />
<glyph unicode="&#xfd;" horiz-adv-x="1148" d="M10 1014q18 -6 30 -12q14 -6 26 -10q8 -6 18 -10q8 -4 14 -8q6 -2 12 -6q4 -4 6 -10l8 -12q2 -6 8 -14q100 -234 404 -938q-10 -28 -40 -108q-16 -44 -36 -72t-42 -42q-24 -14 -60 -22q-36 -6 -84 -6h-106v-94q12 -18 28 -30q16 -14 38 -24q20 -10 42 -16q24 -4 50 -4 q46 0 82 14q38 14 66 44q26 28 48 68q24 40 44 90q150 380 452 1140q2 8 6 14t6 12q4 6 8 10l12 8t14 8l20 10q8 2 22 8t32 12v72h-392v-72q38 -6 66 -12t46 -12t26 -20q8 -12 8 -30v-12l-4 -12q0 -6 -4 -14q-2 -8 -6 -18l-252 -666q-66 166 -270 666q-6 10 -8 18 q-4 8 -4 14q-2 6 -2 12v12q0 18 8 30q8 14 24 20q18 6 46 12q30 6 70 12v72h-480v-6v-66zM564 1212h80q76 86 308 346h-238q-38 -86 -150 -346z" />
<glyph unicode="&#xfe;" horiz-adv-x="1214" d="M10 -332v-22v-50h508v72q-18 2 -34 4q-16 4 -30 6l-28 8q-12 2 -22 8q-12 6 -20 14t-14 20q-6 10 -8 24q-4 14 -4 32v308q18 -24 44 -46q26 -20 58 -36q34 -16 76 -22q42 -8 90 -8q52 0 104 10q50 12 96 32q46 22 86 52q40 32 74 72q32 40 60 88t48 104q18 56 28 122 q10 64 10 134q0 52 -6 102q-8 50 -20 96q-14 46 -34 88t-48 76t-60 62q-34 26 -74 46t-86 32q-46 10 -98 10q-56 0 -106 -12t-92 -38q-44 -24 -80 -56q-38 -32 -70 -72v630h-50q-72 -26 -288 -102v-42q38 -18 150 -72v-1558q0 -18 -4 -32q-2 -14 -8 -24q-6 -12 -16 -20 q-8 -8 -20 -14q-10 -6 -22 -8q-12 -4 -26 -8q-16 -2 -32 -6q-14 -2 -32 -4zM358 358v510q24 24 52 44q30 18 66 30q34 12 72 20q36 6 76 6q44 0 80 -10t66 -30t56 -46q24 -26 44 -58q18 -32 32 -70q14 -36 24 -78q8 -42 14 -84q4 -42 4 -84q0 -50 -6 -94q-6 -46 -18 -86 t-28 -76q-16 -34 -38 -62t-46 -48q-26 -22 -54 -38q-32 -14 -64 -22t-68 -8q-60 0 -108 18q-48 16 -84 54q-36 34 -54 88t-18 124z" />
<glyph unicode="&#xff;" horiz-adv-x="1148" d="M10 1014q18 -6 30 -12q14 -6 26 -10q8 -6 18 -10q8 -4 14 -8q6 -2 12 -6q4 -4 6 -10l8 -12q2 -6 8 -14q100 -234 404 -938q-10 -28 -40 -108q-16 -44 -36 -72t-42 -42q-24 -14 -60 -22q-36 -6 -84 -6h-106v-94q12 -18 28 -30q16 -14 38 -24q20 -10 42 -16q24 -4 50 -4 q46 0 82 14q38 14 66 44q26 28 48 68q24 40 44 90q150 380 452 1140q2 8 6 14t6 12q4 6 8 10l12 8t14 8l20 10q8 2 22 8t32 12v72h-392v-72q38 -6 66 -12t46 -12t26 -20q8 -12 8 -30v-12l-4 -12q0 -6 -4 -14q-2 -8 -6 -18l-252 -666q-66 166 -270 666q-6 10 -8 18 q-4 8 -4 14q-2 6 -2 12v12q0 18 8 30q8 14 24 20q18 6 46 12q30 6 70 12v72h-480v-6v-66zM308 1386q0 -28 8 -50t26 -40t40 -28q22 -8 50 -8q26 0 48 8q22 10 40 28t28 40t10 50q0 26 -10 46q-10 22 -28 40t-40 28t-48 10q-28 0 -50 -10t-40 -28t-26 -40q-8 -20 -8 -46z M696 1386q0 -28 8 -50t28 -40q18 -18 40 -28q22 -8 50 -8q26 0 48 8q20 10 40 28q18 18 26 40q10 22 10 50q0 26 -10 46q-8 22 -26 40q-20 18 -40 28q-22 10 -48 10q-28 0 -50 -10t-40 -28q-20 -18 -28 -40q-8 -20 -8 -46z" />
<glyph unicode="&#x152;" horiz-adv-x="2068" d="M88 678q0 -68 10 -132q12 -62 34 -124q20 -62 56 -116q34 -56 80 -102t104 -84q60 -38 132 -64q70 -28 156 -42t188 -14h1078q14 92 60 368h-56q-26 -40 -46 -72q-22 -34 -38 -60q-20 -28 -36 -50q-18 -22 -36 -36q-18 -16 -38 -26q-20 -12 -42 -18t-50 -8q-28 -4 -60 -4 h-206q-54 0 -94 6q-40 8 -66 20q-24 14 -36 42q-10 28 -10 72v454h348q34 0 58 -12t40 -34q16 -24 28 -58t22 -80h68v462h-68q-10 -46 -22 -80q-12 -36 -28 -58q-16 -24 -40 -34q-24 -12 -58 -12h-348v562h390q32 0 58 -4t48 -10q20 -6 40 -18q20 -10 36 -26q18 -16 32 -34 q16 -18 28 -42l26 -52t30 -62h54v342h-1096q-78 0 -148 -12q-72 -12 -138 -38q-66 -24 -124 -60q-58 -38 -106 -84q-50 -50 -90 -110q-38 -60 -66 -130q-30 -72 -44 -152q-14 -82 -14 -174zM308 722q0 154 32 268q34 116 102 196q68 78 162 118t214 40h156v-1250h-88 q-80 0 -146 14q-66 12 -122 40q-54 26 -100 60q-46 36 -80 80q-36 44 -60 94t-40 108q-16 54 -24 114q-6 58 -6 118z" />
<glyph unicode="&#x153;" horiz-adv-x="1882" d="M82 522q0 -60 8 -114q8 -56 26 -104q18 -50 42 -94q26 -42 60 -78q32 -38 70 -66t84 -48t98 -30q52 -8 110 -8q36 0 72 6t70 18t66 30q34 16 64 40q30 22 56 48q26 28 50 58q6 4 10 10l8 12l18 -24q20 -30 44 -56t52 -48q28 -24 60 -40q32 -18 66 -30q36 -12 74 -18 t80 -6q86 0 156 22q72 22 126 66q56 42 92 100q38 56 56 124q-12 8 -34 20q-30 -40 -64 -72q-32 -32 -70 -56t-86 -36t-106 -12q-44 0 -82 8q-40 8 -74 24q-36 16 -64 38q-30 24 -54 54q-26 30 -44 64q-20 36 -32 78q-12 40 -18 86q-8 48 -8 98h734v64t-8 94q-6 46 -18 90 q-14 42 -34 76q-20 36 -44 66q-26 32 -58 54q-32 24 -72 42q-40 16 -84 24q-44 10 -94 10q-78 0 -144 -22q-66 -24 -120 -66q-36 -30 -68 -66q-30 -36 -56 -78q-28 44 -62 80q-34 38 -76 68q-56 42 -124 62q-68 22 -144 22q-52 0 -102 -10q-50 -12 -96 -34q-46 -20 -88 -50 q-40 -28 -74 -66t-62 -84t-48 -100q-20 -56 -30 -116t-10 -124zM278 560q0 48 6 94q4 44 12 86q10 40 22 74q14 36 32 64t40 50q22 24 50 38q28 16 60 24q30 10 68 10t72 -10q34 -12 64 -30q32 -18 56 -44q26 -26 46 -58q22 -32 38 -70q16 -36 26 -80q12 -42 18 -88 q4 -46 4 -94t-4 -94t-14 -86q-8 -42 -22 -76q-14 -36 -32 -64q-20 -28 -42 -52q-22 -22 -48 -38q-28 -14 -60 -22q-30 -8 -66 -8q-40 0 -74 10q-34 8 -66 26q-30 20 -54 46q-26 26 -48 58t-36 70q-16 38 -26 80q-12 44 -16 88q-6 46 -6 96zM1074 684q2 30 8 62q8 30 20 58 q10 30 24 56t34 48q18 20 40 38q20 20 46 32q24 14 52 20q28 8 58 8q62 0 110 -22q48 -24 80 -66q30 -44 48 -102q16 -58 16 -132h-536z" />
<glyph unicode="&#x178;" horiz-adv-x="1358" d="M10 1358q22 -4 40 -8l32 -12q14 -8 28 -22q12 -14 26 -34q146 -234 440 -704v-348q0 -26 -4 -44t-10 -32q-6 -16 -18 -26q-10 -12 -22 -20q-14 -8 -30 -12t-36 -8t-42 -6t-48 -2v-80h610v80q-24 0 -46 2t-42 6t-36 8t-28 12q-14 8 -26 20q-10 10 -16 26q-6 14 -8 32 q-4 18 -4 44v350q114 176 452 702q12 20 26 34q12 14 26 22q14 6 32 12q18 4 42 8v80h-462v-80q54 -4 90 -8t56 -12t30 -22q12 -14 12 -34q0 -12 -4 -24q-2 -12 -8 -24q-4 -10 -10 -22t-14 -24q-80 -126 -322 -504l-312 504q-10 12 -16 24t-12 22q-6 12 -8 24t-2 24 q0 20 10 34t30 22t56 12q38 4 90 8v80h-542v-6v-74zM380 1704q0 -28 10 -50q8 -22 26 -40t40 -28t50 -10q26 0 48 10t40 28t28 40q8 22 8 50q0 24 -8 46q-10 22 -28 40t-40 28q-22 8 -48 8q-28 0 -50 -8q-22 -10 -40 -28t-26 -40q-10 -22 -10 -46zM790 1704q0 -28 8 -50 t28 -40q18 -18 40 -28t50 -10q26 0 48 10t40 28t28 40q8 22 8 50q0 24 -8 46q-10 22 -28 40t-40 28q-22 8 -48 8q-28 0 -50 -8q-22 -10 -40 -28q-20 -18 -28 -40t-8 -46z" />
<glyph unicode="&#x2c6;" horiz-adv-x="1024" d="M156 1212h94q66 54 262 212q66 -54 262 -212h94q-72 88 -286 354h-140q-72 -88 -286 -354z" />
<glyph unicode="&#x2dc;" horiz-adv-x="1024" d="M136 1292q24 -6 74 -20q18 30 32 54q16 24 28 40t32 24q18 8 42 8q16 0 32 -6t34 -18q16 -12 34 -24q18 -14 38 -26l36 -28q20 -12 40 -22q20 -12 40 -18q22 -4 48 -4q18 0 34 2t30 8q14 4 28 14q14 8 28 22q14 12 28 32q14 18 30 42q14 24 28 56q16 30 34 70 q-18 4 -74 20q-20 -32 -34 -58q-16 -24 -28 -38q-12 -16 -30 -24q-20 -8 -42 -8q-18 0 -34 6q-16 4 -34 18q-16 10 -34 22q-16 12 -36 26q-18 14 -38 26q-20 14 -40 26t-42 18t-44 6q-18 0 -34 -2q-16 -4 -30 -8q-16 -6 -30 -16q-14 -8 -28 -22q-14 -12 -28 -32 q-14 -18 -28 -42q-14 -26 -30 -56t-32 -68z" />
<glyph unicode="&#x2000;" horiz-adv-x="958" />
<glyph unicode="&#x2001;" horiz-adv-x="1916" />
<glyph unicode="&#x2002;" horiz-adv-x="958" />
<glyph unicode="&#x2003;" horiz-adv-x="1916" />
<glyph unicode="&#x2004;" horiz-adv-x="638" />
<glyph unicode="&#x2005;" horiz-adv-x="479" />
<glyph unicode="&#x2006;" horiz-adv-x="319" />
<glyph unicode="&#x2007;" horiz-adv-x="319" />
<glyph unicode="&#x2008;" horiz-adv-x="239" />
<glyph unicode="&#x2009;" horiz-adv-x="383" />
<glyph unicode="&#x200a;" horiz-adv-x="106" />
<glyph unicode="&#x2010;" horiz-adv-x="738" d="M102 546h532v156h-532v-156z" />
<glyph unicode="&#x2011;" horiz-adv-x="738" d="M102 546h532v156h-532v-156z" />
<glyph unicode="&#x2012;" horiz-adv-x="738" d="M102 546h532v156h-532v-156z" />
<glyph unicode="&#x2013;" horiz-adv-x="1188" d="M102 558h984v134h-984v-134z" />
<glyph unicode="&#x2014;" horiz-adv-x="2048" d="M102 558h1844v134h-1844v-134z" />
<glyph unicode="&#x2018;" horiz-adv-x="548" d="M120 1234q0 -38 10 -72t28 -62t48 -40q28 -14 68 -14q28 0 52 8t44 28q20 16 30 40q10 22 10 54q0 24 -6 44t-18 36q-14 14 -30 22q-18 10 -38 16h-78q0 38 12 66q12 30 36 54q26 22 66 38q42 16 98 24v82q-46 -2 -84 -12q-38 -8 -68 -22q-32 -14 -58 -32 q-26 -16 -46 -38t-34 -48q-14 -24 -22 -52q-10 -28 -14 -58q-6 -30 -6 -62z" />
<glyph unicode="&#x2019;" horiz-adv-x="548" d="M102 1046q44 4 82 12t70 22q30 14 56 32t46 38q20 22 36 48q14 24 24 52q8 26 14 58q4 30 4 62q0 40 -10 72q-10 34 -28 62q-20 26 -48 40q-30 14 -68 14q-28 0 -52 -8q-26 -10 -44 -26q-20 -18 -30 -42q-8 -24 -8 -52q0 -26 6 -46t18 -34q12 -16 30 -26q16 -8 38 -14h78 q0 -36 -14 -66q-14 -32 -38 -54q-24 -24 -66 -38q-40 -16 -96 -24v-82z" />
<glyph unicode="&#x201a;" horiz-adv-x="548" d="M102 -150v-82q44 4 82 12t70 22q30 14 56 32t46 40q20 20 36 46q14 24 24 52q8 26 14 58q4 30 4 62q0 40 -10 72q-10 34 -28 62q-20 26 -48 40q-30 14 -68 14q-28 0 -52 -8q-26 -10 -44 -26q-20 -18 -30 -42q-8 -24 -8 -52q0 -26 6 -46t18 -34q12 -16 30 -26 q16 -8 38 -14h78q0 -36 -14 -66q-14 -32 -38 -54q-24 -24 -66 -38q-40 -16 -96 -24z" />
<glyph unicode="&#x201c;" horiz-adv-x="952" d="M120 1234q0 -38 10 -72t28 -62t48 -40q28 -14 68 -14q28 0 52 8t44 28q20 16 30 40q10 22 10 54q0 24 -6 44t-18 36q-14 14 -30 22q-18 10 -38 16h-78q0 38 12 66q12 30 36 54q26 22 66 38q42 16 98 24v82q-46 -2 -84 -12q-38 -8 -68 -22q-32 -14 -58 -32 q-26 -16 -46 -38t-34 -48q-14 -24 -22 -52q-10 -28 -14 -58q-6 -30 -6 -62zM524 1234q0 -38 10 -72q8 -34 28 -62q18 -28 46 -40q30 -14 70 -14q28 0 52 8t44 28q18 16 28 40q12 22 12 54q0 24 -8 44q-6 20 -18 36q-12 14 -28 22q-18 10 -40 16h-76q0 38 12 66q12 30 36 54 q24 22 66 38t98 24v82q-46 -2 -84 -12q-38 -8 -70 -22q-30 -14 -56 -32q-26 -16 -46 -38t-34 -48q-14 -24 -24 -52q-8 -28 -14 -58q-4 -30 -4 -62z" />
<glyph unicode="&#x201d;" horiz-adv-x="952" d="M102 1046q44 4 82 12t70 22q30 14 56 32t46 38q20 22 36 48q14 24 24 52q8 26 14 58q4 30 4 62q0 40 -10 72q-10 34 -28 62q-20 26 -48 40q-30 14 -68 14q-28 0 -52 -8q-26 -10 -44 -26q-20 -18 -30 -42q-8 -24 -8 -52q0 -26 6 -46t18 -34q12 -16 30 -26q16 -8 38 -14h78 q0 -36 -14 -66q-14 -32 -38 -54q-24 -24 -66 -38q-40 -16 -96 -24v-82zM506 1046q42 4 82 12q38 8 70 22q30 14 56 32t46 38q20 22 34 48q16 24 26 52q8 26 14 58q4 30 4 62q0 40 -10 72q-10 34 -30 62q-18 26 -46 40q-30 14 -68 14q-30 0 -54 -8q-24 -10 -42 -26 q-20 -18 -30 -42t-10 -52q0 -26 8 -46q6 -20 18 -34q12 -16 28 -26q18 -8 40 -14h76q0 -36 -12 -66q-14 -32 -38 -54q-24 -24 -66 -38q-40 -16 -96 -24v-82z" />
<glyph unicode="&#x201e;" horiz-adv-x="952" d="M102 -150v-82q44 4 82 12t70 22q30 14 56 32t46 40q20 20 36 46q14 24 24 52q8 26 14 58q4 30 4 62q0 40 -10 72q-10 34 -28 62q-20 26 -48 40q-30 14 -68 14q-28 0 -52 -8q-26 -10 -44 -26q-20 -18 -30 -42q-8 -24 -8 -52q0 -26 6 -46t18 -34q12 -16 30 -26 q16 -8 38 -14h78q0 -36 -14 -66q-14 -32 -38 -54q-24 -24 -66 -38q-40 -16 -96 -24zM506 -150v-82q42 4 82 12q38 8 70 22q30 14 56 32t46 40q20 20 34 46q16 24 26 52q8 26 14 58q4 30 4 62q0 40 -10 72q-10 34 -30 62q-18 26 -46 40q-30 14 -68 14q-30 0 -54 -8 q-24 -10 -42 -26q-20 -18 -30 -42t-10 -52q0 -26 8 -46q6 -20 18 -34q12 -16 28 -26q18 -8 40 -14h76q0 -36 -12 -66q-14 -32 -38 -54q-24 -24 -66 -38q-40 -16 -96 -24z" />
<glyph unicode="&#x2022;" horiz-adv-x="724" d="M112 614q0 -26 6 -50q4 -24 14 -48q8 -22 22 -42t30 -38q18 -16 38 -30t42 -24q24 -8 48 -12q24 -6 50 -6t50 6q24 4 46 12q24 10 44 24t36 30q18 18 32 38q12 20 22 42q10 24 14 48q6 24 6 50q0 24 -6 50q-4 24 -14 46q-10 24 -22 44q-14 20 -32 36q-16 18 -36 30 q-20 14 -44 24q-22 8 -46 14t-50 6t-50 -6t-48 -14q-22 -10 -42 -24q-20 -12 -38 -30q-16 -16 -30 -36t-22 -44q-10 -22 -14 -46q-6 -26 -6 -50z" />
<glyph unicode="&#x2026;" horiz-adv-x="1744" d="M142 130q0 -34 10 -60t32 -48q22 -20 48 -32q26 -10 58 -10t58 10q28 12 50 32q20 22 32 48q10 26 10 60q0 30 -10 56q-12 28 -32 50q-22 22 -50 32q-26 10 -58 10t-58 -10t-48 -32t-32 -50q-10 -26 -10 -56zM722 130q0 -34 12 -60q10 -26 32 -48q22 -20 48 -32 q26 -10 58 -10t58 10q28 12 48 32q22 22 34 48q10 26 10 60q0 30 -10 56q-12 28 -34 50q-20 22 -48 32q-26 10 -58 10t-58 -10t-48 -32t-32 -50q-12 -26 -12 -56zM1304 130q0 -34 12 -60q10 -26 32 -48q22 -20 48 -32q26 -10 58 -10q30 0 58 10q28 12 48 32q22 22 32 48 q12 26 12 60q0 30 -12 56q-10 28 -32 50q-20 22 -48 32t-58 10q-32 0 -58 -10t-48 -32t-32 -50q-12 -26 -12 -56z" />
<glyph unicode="&#x202f;" horiz-adv-x="383" />
<glyph unicode="&#x2039;" horiz-adv-x="610" d="M92 550q82 -96 330 -388h96q-58 100 -236 400q60 98 236 398h-96q-82 -96 -330 -388v-22z" />
<glyph unicode="&#x203a;" horiz-adv-x="610" d="M92 162h96q82 98 330 388v22q-82 96 -330 388h-96q60 -100 236 -398q-60 -100 -236 -400z" />
<glyph unicode="&#x205f;" horiz-adv-x="479" />
<glyph unicode="&#x20ac;" horiz-adv-x="1296" d="M44 508h172q4 -34 12 -68q6 -32 16 -64q18 -60 46 -114q28 -52 64 -96q38 -44 82 -78t98 -60q54 -24 118 -36q62 -12 132 -12q58 0 112 6q52 6 100 20q46 14 90 32q46 20 90 44q12 110 34 328h-74q-12 -40 -26 -76q-14 -34 -28 -66q-16 -30 -34 -56q-16 -26 -36 -48 q-22 -22 -46 -38q-22 -14 -48 -26q-28 -10 -60 -16q-30 -4 -68 -4q-52 0 -96 12t-80 38q-36 24 -66 56q-28 32 -50 74t-38 90q-16 50 -26 104q-2 18 -8 54h414q6 22 24 86h-446q-2 22 -2 44v48v42h484q6 20 26 86h-504q2 20 6 42q4 20 8 42q10 50 28 94q16 44 38 84 q22 38 48 68q26 32 60 54q32 22 70 34q40 12 84 12q62 0 112 -20q52 -20 92 -56q40 -40 70 -98t48 -134h70v294q-34 26 -76 48q-40 22 -86 36q-48 16 -104 24t-120 8q-62 0 -118 -12q-56 -14 -108 -38t-96 -60q-44 -34 -82 -78q-38 -46 -68 -102q-28 -56 -50 -120 q-10 -30 -16 -60q-8 -30 -12 -62h-176v-86h164v-42q-2 -20 -2 -40v-52h-162v-86z" />
<glyph unicode="&#x2122;" horiz-adv-x="1788" d="M92 1236h52q8 20 16 36l14 28l12 24q8 10 14 18q8 8 18 14q8 4 20 8q8 4 22 6t30 2h54v-498q0 -18 -8 -30q-6 -12 -20 -16q-14 -6 -32 -10q-20 -4 -42 -4v-56h338v56q-24 0 -44 4t-32 10q-14 4 -20 16t-6 30v498h52q16 0 30 -2q12 -2 24 -6q8 -4 18 -8q8 -6 16 -14 t16 -18q8 -12 14 -24l14 -28l18 -36h50q-6 52 -18 202h-606q-4 -50 -14 -202zM754 758h246v56q-28 0 -46 4q-20 2 -28 8q-10 4 -14 14q-4 8 -4 24v10v16v20q2 12 6 22q14 104 40 312q46 -122 184 -486h60q46 122 182 486q10 -80 42 -314q0 -10 2 -20l4 -20v-16q2 -6 2 -10 q0 -16 -6 -24q-6 -10 -14 -14q-10 -6 -28 -8q-18 -4 -44 -4v-56h300v56q-22 0 -36 4q-14 2 -22 8q-10 2 -16 12q-6 8 -8 24q-20 154 -58 462q0 12 4 24q4 10 14 16q8 6 22 10q16 6 38 8v56h-194q-2 -18 -6 -34q-4 -14 -8 -24q-42 -108 -170 -436q-42 110 -166 436 q-4 10 -8 24q-4 16 -6 34h-206v-56q22 -2 38 -8q16 -4 24 -10t12 -16q6 -12 6 -24q-18 -154 -58 -462q-4 -24 -24 -36t-56 -12v-56z" />
<glyph unicode="&#x25fc;" horiz-adv-x="1090" d="M0 0v1090h1090v-1090h-1090z" />
<glyph unicode="&#xfb01;" horiz-adv-x="1330" d="M82 0h504v72q-18 2 -34 4t-30 6q-16 2 -28 6t-22 10q-12 6 -20 14t-14 20q-6 10 -8 24t-2 32v788h484v-788q0 -18 -4 -32q-2 -14 -8 -24q-8 -12 -16 -20t-18 -14t-22 -10q-14 -4 -28 -6q-16 -4 -32 -6q-14 -2 -30 -4v-72h504v72q-18 2 -34 4t-30 6q-16 2 -28 6t-24 10 q-10 6 -18 14t-14 20q-6 10 -8 24t-2 32v918h-46l-56 -24h-570v94q0 80 16 138t48 98q30 38 68 58q38 18 84 18q36 0 62 -8t44 -24q16 -16 26 -44q8 -28 8 -66v-52h120q12 8 26 20q12 10 22 26q10 14 16 32q4 18 4 38q0 38 -20 70q-22 30 -62 50q-40 18 -92 28 q-54 10 -116 10q-50 0 -96 -8t-86 -24q-42 -16 -76 -40q-36 -22 -64 -52t-52 -64q-22 -36 -38 -76t-22 -84q-8 -44 -8 -94v-28q-38 -14 -152 -54v-68h152v-788q0 -18 -4 -32q-2 -14 -8 -24q-6 -12 -16 -20q-8 -8 -18 -14t-22 -10q-14 -4 -28 -6q-16 -4 -32 -6q-14 -2 -30 -4 v-72z" />
<glyph unicode="&#xfb02;" horiz-adv-x="1328" d="M82 0h504v72q-18 2 -34 4t-30 6q-16 2 -28 6t-22 10q-12 6 -20 14t-14 20q-6 10 -8 24t-2 32v788h270v110h-270v102q0 68 12 124q14 56 42 94q26 40 68 62q42 20 98 20q46 0 84 -12q40 -14 72 -38q34 -26 62 -58q26 -32 46 -72v-1120q0 -18 -4 -32q-2 -14 -8 -24 q-8 -12 -16 -20t-20 -14q-10 -6 -22 -10q-14 -4 -26 -6q-16 -4 -32 -6l-32 -4v-72h506v72q-18 2 -34 4t-30 6q-16 2 -28 6t-22 10t-18 14t-14 20q-6 10 -10 24q-2 14 -2 32v1370h-52q-36 -16 -144 -66q-24 18 -52 32q-26 14 -58 24t-66 16q-36 4 -72 4q-46 0 -88 -8t-80 -24 t-72 -40q-32 -22 -60 -50q-28 -30 -48 -64q-22 -34 -38 -74t-22 -84q-8 -44 -8 -90v-36q-38 -14 -152 -54v-68h152v-788q0 -18 -4 -32q-2 -14 -8 -24q-6 -12 -16 -20q-8 -8 -18 -14t-22 -10q-14 -4 -28 -6q-16 -4 -32 -6q-14 -2 -30 -4v-72z" />
<glyph unicode="&#xfb03;" horiz-adv-x="2000" d="M82 0h504v72q-18 2 -34 4t-30 6q-16 2 -28 6t-22 10q-12 6 -20 14t-14 20q-6 10 -8 24t-2 32v788h484v-788q0 -18 -4 -32q-2 -14 -8 -24q-8 -12 -16 -20t-18 -14t-22 -10q-14 -4 -28 -6q-16 -4 -32 -6q-14 -2 -30 -4v-72h504v72q-18 2 -34 4t-30 6q-16 2 -28 6t-24 10 q-10 6 -18 14t-14 20q-6 10 -8 24t-2 32v788h484v-788q0 -18 -4 -32t-10 -24q-6 -12 -14 -20t-18 -14t-24 -10q-12 -4 -28 -6q-14 -4 -30 -6t-30 -4v-72h504v72q-20 2 -34 4q-16 2 -30 6q-16 2 -28 6t-24 10q-10 6 -18 14t-14 20q-6 10 -8 24t-2 32v918h-46l-56 -24h-570v94 q0 80 16 138t48 98q30 38 68 58q38 18 82 18q38 0 64 -8t44 -24q16 -16 26 -44q8 -28 8 -66v-52h118q14 8 28 20q12 10 22 26q10 14 14 32q6 18 6 38q0 38 -20 70q-22 30 -62 50q-40 18 -94 28q-52 10 -114 10q-50 0 -96 -8t-86 -24q-42 -16 -78 -40q-34 -22 -62 -52 q-6 -6 -12 -14l-12 -12q-24 24 -56 46t-72 42q-42 18 -94 28t-110 10q-46 0 -88 -8t-82 -22q-40 -16 -76 -38q-34 -20 -64 -48t-54 -62q-22 -34 -40 -72q-16 -40 -24 -82q-8 -44 -8 -90v-24q-38 -14 -152 -54v-68h152v-788q0 -18 -4 -32q-2 -14 -8 -24q-6 -12 -16 -20 q-8 -8 -18 -14t-22 -10q-14 -4 -28 -6q-16 -4 -32 -6q-14 -2 -30 -4v-72zM428 1082v94q0 68 16 122q16 52 48 88q32 38 76 56t100 18q46 0 86 -14q40 -16 76 -46q34 -28 58 -62t42 -70q-10 -34 -14 -70q-4 -34 -4 -72v-44h-484z" />
<glyph unicode="&#xfb04;" horiz-adv-x="1998" d="M82 0h504v72q-18 2 -34 4t-30 6q-16 2 -28 6t-22 10q-12 6 -20 14t-14 20q-6 10 -8 24t-2 32v788h484v-788q0 -18 -4 -32q-2 -14 -8 -24q-8 -12 -16 -20t-18 -14t-22 -10q-14 -4 -28 -6q-16 -4 -32 -6q-14 -2 -30 -4v-72h504v72q-18 2 -34 4t-30 6q-16 2 -28 6t-24 10 q-10 6 -18 14t-14 20q-6 10 -8 24t-2 32v788h270v110h-270v102q0 68 12 124q14 56 42 94q26 40 68 62q42 20 96 20q46 0 86 -12q38 -14 72 -38q34 -26 60 -58q28 -32 48 -72v-1120q0 -18 -4 -32t-10 -24q-6 -12 -14 -20q-10 -8 -20 -14t-24 -10q-12 -4 -26 -6q-14 -4 -30 -6 l-32 -4v-72h506v72q-20 2 -34 4q-16 2 -30 6q-16 2 -28 6t-22 10t-18 14t-14 20q-6 10 -10 24q-2 14 -2 32v1370h-52q-36 -16 -146 -66q-22 18 -50 32q-26 14 -58 24t-66 16q-36 4 -72 4q-46 0 -88 -8t-80 -24q-40 -16 -72 -40q-32 -22 -60 -50q-6 -6 -12 -14q-6 -6 -10 -12 q-24 24 -54 46q-32 20 -72 40q-42 18 -94 28t-110 10q-46 0 -88 -8t-82 -22q-40 -16 -76 -38q-34 -20 -64 -48t-54 -62q-22 -34 -40 -72q-16 -40 -24 -82q-8 -44 -8 -90v-24q-38 -14 -152 -54v-68h152v-788q0 -18 -4 -32q-2 -14 -8 -24q-6 -12 -16 -20q-8 -8 -18 -14 t-22 -10q-14 -4 -28 -6q-16 -4 -32 -6q-14 -2 -30 -4v-72zM428 1082v94q0 68 16 122q16 52 48 88q32 38 76 56t100 18q46 0 86 -14q40 -16 76 -46q32 -26 56 -60q26 -34 44 -70q-10 -32 -14 -66t-4 -70v-52h-484z" />
</font>
</defs>
</svg>
